<?xml version="1.0" encoding="UTF-8" standalone="no"?>
<svg
   version="1.1"
   viewBox="0.0 0.0 617.509186351706 308.12335958005247"
   fill="none"
   stroke="none"
   stroke-linecap="square"
   stroke-miterlimit="10"
   id="svg145"
   sodipodi:docname="branch_divergence.svg"
   inkscape:version="1.3.2 (091e20ef0f, 2023-11-25)"
   xmlns:inkscape="http://www.inkscape.org/namespaces/inkscape"
   xmlns:sodipodi="http://sodipodi.sourceforge.net/DTD/sodipodi-0.dtd"
   xmlns="http://www.w3.org/2000/svg"
   xmlns:svg="http://www.w3.org/2000/svg">
  <defs
     id="defs145" />
  <sodipodi:namedview
     id="namedview145"
     pagecolor="#ffffff"
     bordercolor="#000000"
     borderopacity="0.25"
     inkscape:showpageshadow="2"
     inkscape:pageopacity="0.0"
     inkscape:pagecheckerboard="0"
     inkscape:deskcolor="#d1d1d1"
     inkscape:zoom="1.2161762"
     inkscape:cx="308.34348"
     inkscape:cy="154.17174"
     inkscape:window-width="1265"
     inkscape:window-height="1391"
     inkscape:window-x="0"
     inkscape:window-y="0"
     inkscape:window-maximized="0"
     inkscape:current-layer="g145" />
  <clipPath
     id="p.0">
    <path
       d="m0 0l617.5092 0l0 308.12335l-617.5092 0l0 -308.12335z"
       clip-rule="nonzero"
       id="path1" />
  </clipPath>
  <g
     clip-path="url(#p.0)"
     id="g145">
    <path
       fill="#f4cccc"
       d="m115.78609 32.17979l0 0c0 -13.254835 10.745171 -24.0 24.0 -24.0l0 0c6.365204 0 12.469696 2.5285635 16.970566 7.029437c4.5008698 4.5008726 7.029434 10.605367 7.029434 16.970562l0 0c0 13.254833 -10.745163 24.0 -24.0 24.0l0 0c-13.254829 0 -24.0 -10.745167 -24.0 -24.0z"
       fill-rule="evenodd"
       id="path5" />
    <path
       stroke="#000000"
       stroke-width="2.0"
       stroke-linejoin="round"
       stroke-linecap="butt"
       d="m115.78609 32.17979l0 0c0 -13.254835 10.745171 -24.0 24.0 -24.0l0 0c6.365204 0 12.469696 2.5285635 16.970566 7.029437c4.5008698 4.5008726 7.029434 10.605367 7.029434 16.970562l0 0c0 13.254833 -10.745163 24.0 -24.0 24.0l0 0c-13.254829 0 -24.0 -10.745167 -24.0 -24.0z"
       fill-rule="evenodd"
       id="path6" />
    <path
       fill="#000000"
       d="m144.82932 39.09979l-1.765625 0l-0.84375 -2.59375l-4.953125 0l-0.828125 2.59375l-1.6875 0l3.953125 -11.906252l2.21875 0l3.90625 11.906252zm-3.0625 -4.046875l-2.015625 -6.359377l-2.015625 6.359377l4.03125 0z"
       fill-rule="nonzero"
       id="path7" />
    <path
       fill="#d9ead3"
       d="m10.489501 147.53412l0 0c0 -13.254837 10.745166 -24.0 24.0 -24.0l0 0c6.365196 0 12.469688 2.5285645 16.970562 7.029434c4.5008736 4.500885 7.029438 10.605377 7.029438 16.970566l0 0c0 13.254837 -10.745167 24.0 -24.0 24.0l0 0c-13.254835 0 -24.0 -10.745163 -24.0 -24.0z"
       fill-rule="evenodd"
       id="path8" />
    <path
       stroke="#000000"
       stroke-width="2.0"
       stroke-linejoin="round"
       stroke-linecap="butt"
       d="m10.489501 147.53412l0 0c0 -13.254837 10.745166 -24.0 24.0 -24.0l0 0c6.365196 0 12.469688 2.5285645 16.970562 7.029434c4.5008736 4.500885 7.029438 10.605377 7.029438 16.970566l0 0c0 13.254837 -10.745167 24.0 -24.0 24.0l0 0c-13.254835 0 -24.0 -10.745163 -24.0 -24.0z"
       fill-rule="evenodd"
       id="path9" />
    <path
       fill="#000000"
       d="m38.610855 150.89162q0 0.859375 -0.328125 1.515625q-0.328125 0.65625 -0.953125 1.125q-0.609375 0.453125 -1.484375 0.6875q-0.859375 0.234375 -1.921875 0.234375l-3.125 0l0 -11.90625l3.40625 0q3.984375 0 3.984375 2.890625q0 0.96875 -0.46875 1.671875q-0.453125 0.6875 -1.484375 1.015625q0.46875 0.09375 0.90625 0.3125q0.4375 0.21875 0.765625 0.578125q0.328125 0.34375 0.515625 0.8125q0.1875 0.46875 0.1875 1.0625zm-2.109375 -5.234375q0 -0.359375 -0.109375 -0.671875q-0.109375 -0.328125 -0.390625 -0.5625q-0.265625 -0.234375 -0.734375 -0.375q-0.453125 -0.140625 -1.171875 -0.140625l-1.671875 0l0 3.734375l1.625 0q0.546875 0 1.0 -0.109375q0.453125 -0.125 0.765625 -0.375q0.328125 -0.25 0.5 -0.609375q0.1875 -0.375 0.1875 -0.890625zm0.390625 5.296875q0 -0.46875 -0.1875 -0.828125q-0.1875 -0.359375 -0.5625 -0.609375q-0.359375 -0.25 -0.890625 -0.390625q-0.515625 -0.140625 -1.171875 -0.140625l-1.65625 0l0 4.109375l1.703125 0q1.40625 0 2.078125 -0.515625q0.6875 -0.53125 0.6875 -1.625z"
       fill-rule="nonzero"
       id="path10" />
    <path
       fill="#fff2cc"
       d="m221.08005 147.53412l0 0c0 -13.254837 10.745178 -24.0 24.0 -24.0l0 0c6.365204 0 12.469696 2.5285645 16.970581 7.029434c4.5008545 4.500885 7.029419 10.605377 7.029419 16.970566l0 0c0 13.254837 -10.745148 24.0 -24.0 24.0l0 0c-13.254822 0 -24.0 -10.745163 -24.0 -24.0z"
       fill-rule="evenodd"
       id="path11" />
    <path
       stroke="#000000"
       stroke-width="2.0"
       stroke-linejoin="round"
       stroke-linecap="butt"
       d="m221.08005 147.53412l0 0c0 -13.254837 10.745178 -24.0 24.0 -24.0l0 0c6.365204 0 12.469696 2.5285645 16.970581 7.029434c4.5008545 4.500885 7.029419 10.605377 7.029419 16.970566l0 0c0 13.254837 -10.745148 24.0 -24.0 24.0l0 0c-13.254822 0 -24.0 -10.745163 -24.0 -24.0z"
       fill-rule="evenodd"
       id="path12" />
    <path
       fill="#000000"
       d="m249.0139 154.00099q-1.421875 0.59375 -3.0 0.59375q-2.515625 0 -3.875 -1.5q-1.34375 -1.515625 -1.34375 -4.46875q0 -1.421875 0.359375 -2.578125q0.375 -1.15625 1.0625 -1.953125q0.703125 -0.8125 1.6875 -1.25q0.984375 -0.4375 2.203125 -0.4375q0.828125 0 1.53125 0.140625q0.71875 0.140625 1.375 0.421875l0 1.59375q-0.640625 -0.34375 -1.34375 -0.53125q-0.6875 -0.1875 -1.5 -0.1875q-0.84375 0 -1.53125 0.3125q-0.671875 0.3125 -1.15625 0.90625q-0.46875 0.59375 -0.71875 1.46875q-0.25 0.859375 -0.25 1.953125q0 2.3125 0.9375 3.5q0.9375 1.171875 2.75 1.171875q0.765625 0 1.46875 -0.171875q0.703125 -0.1875 1.34375 -0.515625l0 1.53125z"
       fill-rule="nonzero"
       id="path13" />
    <path
       fill="#d9d2e9"
       d="m115.784775 273.36615l0 0c0 -13.254852 10.745171 -24.000015 24.0 -24.000015l0 0c6.365204 0 12.469696 2.5285645 16.970566 7.029434c4.5008698 4.500885 7.029434 10.605377 7.029434 16.970581l0 0c0 13.254822 -10.745163 24.0 -24.0 24.0l0 0c-13.254829 0 -24.0 -10.745178 -24.0 -24.0z"
       fill-rule="evenodd"
       id="path14" />
    <path
       stroke="#000000"
       stroke-width="2.0"
       stroke-linejoin="round"
       stroke-linecap="butt"
       d="m115.784775 273.36615l0 0c0 -13.254852 10.745171 -24.000015 24.0 -24.000015l0 0c6.365204 0 12.469696 2.5285645 16.970566 7.029434c4.5008698 4.500885 7.029434 10.605377 7.029434 16.970581l0 0c0 13.254822 -10.745163 24.0 -24.0 24.0l0 0c-13.254829 0 -24.0 -10.745178 -24.0 -24.0z"
       fill-rule="evenodd"
       id="path15" />
    <path
       fill="#000000"
       d="m144.24988 274.208q0 0.84375 -0.140625 1.640625q-0.125 0.78125 -0.421875 1.453125q-0.28125 0.671875 -0.75 1.21875q-0.46875 0.546875 -1.140625 0.953125q-0.671875 0.390625 -1.5625 0.609375q-0.890625 0.203125 -2.03125 0.203125l-2.546875 0l0 -11.90625l3.0625 0q2.78125 0 4.15625 1.4375q1.375 1.4375 1.375 4.390625zm-1.703125 0.109375q0 -1.265625 -0.234375 -2.140625q-0.234375 -0.875 -0.71875 -1.40625q-0.484375 -0.546875 -1.21875 -0.78125q-0.734375 -0.25 -1.703125 -0.25l-1.40625 0l0 9.140625l1.21875 0q4.0625 0 4.0625 -4.5625z"
       fill-rule="nonzero"
       id="path16" />
    <path
       fill="#000000"
       fill-opacity="0.0"
       d="m122.81553 49.150352l-71.37009 81.41732"
       fill-rule="evenodd"
       id="path17" />
    <path
       stroke="#000000"
       stroke-width="2.0"
       stroke-linejoin="round"
       stroke-linecap="butt"
       d="m122.81552 49.150356l-63.45987 72.39354"
       fill-rule="evenodd"
       id="path18" />
    <path
       fill="#000000"
       stroke="#000000"
       stroke-width="2.0"
       stroke-linecap="butt"
       d="m56.87151 119.3663l-3.4987373 9.002731l8.467026 -4.647545z"
       fill-rule="evenodd"
       id="path19" />
    <path
       fill="#000000"
       fill-opacity="0.0"
       d="m156.75665 49.150352l71.33858 81.41732"
       fill-rule="evenodd"
       id="path20" />
    <path
       stroke="#000000"
       stroke-width="2.0"
       stroke-linejoin="round"
       stroke-linecap="butt"
       d="m156.75665 49.150356l63.43033 72.391815"
       fill-rule="evenodd"
       id="path21" />
    <path
       fill="#000000"
       stroke="#000000"
       stroke-width="2.0"
       stroke-linecap="butt"
       d="m217.70238 123.719215l8.466003 4.649391l-3.4967651 -9.003487z"
       fill-rule="evenodd"
       id="path22" />
    <path
       fill="#000000"
       fill-opacity="0.0"
       d="m51.460064 164.50468l71.33858 91.9055"
       fill-rule="evenodd"
       id="path23" />
    <path
       stroke="#000000"
       stroke-width="2.0"
       stroke-linejoin="round"
       stroke-linecap="butt"
       d="m51.460068 164.50468l63.980515 82.42612"
       fill-rule="evenodd"
       id="path24" />
    <path
       fill="#000000"
       stroke="#000000"
       stroke-width="2.0"
       stroke-linecap="butt"
       d="m112.83102 248.95639l8.174835 5.1441345l-2.955696 -9.195328z"
       fill-rule="evenodd"
       id="path25" />
    <path
       fill="#000000"
       fill-opacity="0.0"
       d="m228.1095 164.50468l-71.33859 91.9055"
       fill-rule="evenodd"
       id="path26" />
    <path
       stroke="#000000"
       stroke-width="2.0"
       stroke-linejoin="round"
       stroke-linecap="butt"
       d="m228.1095 164.50468l-63.98053 82.42612"
       fill-rule="evenodd"
       id="path27" />
    <path
       fill="#000000"
       stroke="#000000"
       stroke-width="2.0"
       stroke-linecap="butt"
       d="m161.5194 244.9052l-2.9556885 9.195328l8.174835 -5.1441345z"
       fill-rule="evenodd"
       id="path28" />
    <path
       fill="#000000"
       fill-opacity="0.0"
       d="m292.25986 8.181094l170.92911 0l0 277.95276l-170.92911 0z"
       fill-rule="evenodd"
       id="path29" />
    <path
       stroke="#000000"
       stroke-width="2.0"
       stroke-linejoin="round"
       stroke-linecap="butt"
       d="m292.25986 8.181094l170.92911 0l0 277.95276l-170.92911 0z"
       fill-rule="evenodd"
       id="path30"
       style="fill:#c9daf8;fill-opacity:1" />
    <path
       fill="#f4cccc"
       d="m301.25986 17.181095l140.75 0l0 19.199997l-140.75 0l0 -19.199997z"
       fill-rule="nonzero"
       id="path31" />
    <path
       fill="#000000"
       fill-opacity="0.0"
       d="m301.25986 20.658281l140.75 0l0 18.734377l-140.75 0l0 -18.734377z"
       fill-rule="nonzero"
       id="path32" />
    <path
       fill="#595959"
       d="m309.21298 28.478594q0 0.96875 -0.265625 1.75q-0.265625 0.765625 -0.765625 1.296875q-0.5 0.5312519 -1.21875 0.8281269q-0.703125 0.28125 -1.59375 0.28125q-0.6875 0 -1.421875 -0.125q-0.71875 -0.140625 -1.4375 -0.4375l0 -10.578127l1.359375 0l0 3.046875l-0.0625 1.453125q0.59375 -0.796875 1.25 -1.109375q0.671875 -0.328125 1.4375 -0.328125q0.671875 0 1.171875 0.28125q0.515625 0.28125 0.859375 0.796875q0.34375 0.5 0.515625 1.234375q0.171875 0.71875 0.171875 1.609375zm-1.390625 0.0625q0 -0.625 -0.09375 -1.140625q-0.078125 -0.515625 -0.28125 -0.875q-0.1875 -0.375 -0.5 -0.578125q-0.296875 -0.203125 -0.71875 -0.203125q-0.265625 0 -0.53125 0.078125q-0.265625 0.078125 -0.546875 0.28125q-0.28125 0.1875 -0.609375 0.5q-0.3125 0.3125 -0.671875 0.78125l0 3.8125q0.40625 0.15625 0.8125 0.25q0.421875 0.078125 0.796875 0.078125q0.46875 0 0.890625 -0.140625q0.421875 -0.15625 0.75 -0.5q0.328125 -0.34375 0.515625 -0.921875q0.1875 -0.578125 0.1875 -1.421875zm10.3125 0.015625q0 0.90625 -0.265625 1.671875q-0.25 0.765625 -0.734375 1.3125q-0.484375 0.5312519 -1.1875 0.8437519q-0.6875 0.296875 -1.5625 0.296875q-0.84375 0 -1.515625 -0.265625q-0.671875 -0.265625 -1.140625 -0.7656269q-0.453125 -0.515625 -0.703125 -1.265625q-0.25 -0.75 -0.25 -1.71875q0 -0.921875 0.25 -1.671875q0.265625 -0.75 0.75 -1.296875q0.484375 -0.546875 1.171875 -0.84375q0.703125 -0.296875 1.59375 -0.296875q0.84375 0 1.5 0.265625q0.671875 0.25 1.140625 0.765625q0.46875 0.5 0.703125 1.25q0.25 0.75 0.25 1.71875zm-1.390625 0.0625q0 -0.734375 -0.15625 -1.265625q-0.15625 -0.546875 -0.453125 -0.90625q-0.296875 -0.375 -0.734375 -0.546875q-0.421875 -0.1875 -0.9375 -0.1875q-0.609375 0 -1.046875 0.234375q-0.4375 0.234375 -0.71875 0.640625q-0.265625 0.390625 -0.40625 0.921875q-0.125 0.53125 -0.125 1.109375q0 0.71875 0.15625 1.265625q0.171875 0.546875 0.46875 0.921875q0.296875 0.359375 0.71875 0.546875q0.421875 0.171875 0.953125 0.171875q0.609375 0 1.03125 -0.234375q0.4375 -0.234375 0.71875 -0.625q0.28125 -0.40625 0.40625 -0.9375q0.125 -0.53125 0.125 -1.109375zm10.1875 -0.0625q0 0.90625 -0.265625 1.671875q-0.25 0.765625 -0.734375 1.3125q-0.484375 0.5312519 -1.1875 0.8437519q-0.6875 0.296875 -1.5625 0.296875q-0.84375 0 -1.515625 -0.265625q-0.671875 -0.265625 -1.140625 -0.7656269q-0.453125 -0.515625 -0.703125 -1.265625q-0.25 -0.75 -0.25 -1.71875q0 -0.921875 0.25 -1.671875q0.265625 -0.75 0.75 -1.296875q0.484375 -0.546875 1.171875 -0.84375q0.703125 -0.296875 1.59375 -0.296875q0.84375 0 1.5 0.265625q0.671875 0.25 1.140625 0.765625q0.46875 0.5 0.703125 1.25q0.25 0.75 0.25 1.71875zm-1.390625 0.0625q0 -0.734375 -0.15625 -1.265625q-0.15625 -0.546875 -0.453125 -0.90625q-0.296875 -0.375 -0.734375 -0.546875q-0.421875 -0.1875 -0.9375 -0.1875q-0.609375 0 -1.046875 0.234375q-0.4375 0.234375 -0.71875 0.640625q-0.265625 0.390625 -0.40625 0.921875q-0.125 0.53125 -0.125 1.109375q0 0.71875 0.15625 1.265625q0.171875 0.546875 0.46875 0.921875q0.296875 0.359375 0.71875 0.546875q0.421875 0.171875 0.953125 0.171875q0.609375 0 1.03125 -0.234375q0.4375 -0.234375 0.71875 -0.625q0.28125 -0.40625 0.40625 -0.9375q0.125 -0.53125 0.125 -1.109375zm6.03125 -6.0l-2.3125 0l0 -1.125l3.6875 0l0 9.90625l2.34375 0l0 1.1406269l-6.296875 0l0 -1.1406269l2.578125 0l0 -8.78125zm21.015625 9.625002q-0.53125 0.203125 -1.09375 0.296875q-0.546875 0.109375 -1.140625 0.109375q-1.859375 0 -2.875 -1.0000019q-1.0 -1.015625 -1.0 -2.953125q0 -0.9375 0.28125 -1.6875q0.296875 -0.765625 0.8125 -1.296875q0.53125 -0.546875 1.25 -0.828125q0.734375 -0.296875 1.609375 -0.296875q0.609375 0 1.140625 0.09375q0.53125 0.078125 1.015625 0.265625l0 1.296875q-0.5 -0.265625 -1.03125 -0.375q-0.53125 -0.125 -1.09375 -0.125q-0.515625 0 -0.984375 0.203125q-0.46875 0.1875 -0.828125 0.5625q-0.34375 0.375 -0.546875 0.921875q-0.203125 0.53125 -0.203125 1.21875q0 1.421875 0.6875 2.125q0.703125 0.703125 1.921875 0.703125q0.5625 0 1.078125 -0.125q0.515625 -0.125 1.0 -0.375l0 1.2656269zm9.53125 -3.687502q0 0.90625 -0.265625 1.671875q-0.25 0.765625 -0.734375 1.3125q-0.484375 0.5312519 -1.1875 0.8437519q-0.6875 0.296875 -1.5625 0.296875q-0.84375 0 -1.515625 -0.265625q-0.671875 -0.265625 -1.140625 -0.7656269q-0.453125 -0.515625 -0.703125 -1.265625q-0.25 -0.75 -0.25 -1.71875q0 -0.921875 0.25 -1.671875q0.265625 -0.75 0.75 -1.296875q0.484375 -0.546875 1.171875 -0.84375q0.703125 -0.296875 1.59375 -0.296875q0.84375 0 1.5 0.265625q0.671875 0.25 1.140625 0.765625q0.46875 0.5 0.703125 1.25q0.25 0.75 0.25 1.71875zm-1.390625 0.0625q0 -0.734375 -0.15625 -1.265625q-0.15625 -0.546875 -0.453125 -0.90625q-0.296875 -0.375 -0.734375 -0.546875q-0.421875 -0.1875 -0.9375 -0.1875q-0.609375 0 -1.046875 0.234375q-0.4375 0.234375 -0.71875 0.640625q-0.265625 0.390625 -0.40625 0.921875q-0.125 0.53125 -0.125 1.109375q0 0.71875 0.15625 1.265625q0.171875 0.546875 0.46875 0.921875q0.296875 0.359375 0.71875 0.546875q0.421875 0.171875 0.953125 0.171875q0.609375 0 1.03125 -0.234375q0.4375 -0.234375 0.71875 -0.625q0.28125 -0.40625 0.40625 -0.9375q0.125 -0.53125 0.125 -1.109375zm3.359375 -3.921875l1.21875 0l0.046875 1.265625q0.34375 -0.40625 0.65625 -0.671875q0.328125 -0.28125 0.640625 -0.4375q0.3125 -0.171875 0.625 -0.234375q0.328125 -0.0625 0.671875 -0.0625q1.203125 0 1.828125 0.71875q0.625 0.703125 0.625 2.140625l0 5.125002l-1.359375 0l0 -5.015627q0 -0.921875 -0.34375 -1.359375q-0.34375 -0.4375 -1.03125 -0.4375q-0.25 0 -0.484375 0.078125q-0.234375 0.0625 -0.5 0.25q-0.25 0.1875 -0.5625 0.5q-0.296875 0.3125 -0.671875 0.78125l0 5.203127l-1.359375 0l0 -7.843752zm8.40625 4.078125q0 -1.0 0.265625 -1.765625q0.28125 -0.78125 0.78125 -1.3125q0.5 -0.546875 1.203125 -0.8125q0.71875 -0.28125 1.578125 -0.28125q0.375 0 0.734375 0.046875q0.375 0.046875 0.71875 0.140625l0 -3.296875l1.375 0l0 11.046877l-1.21875 0l-0.046875 -1.4843769q-0.578125 0.828125 -1.25 1.2343769q-0.65625 0.390625 -1.421875 0.390625q-0.671875 0 -1.1875 -0.28125q-0.515625 -0.28125 -0.859375 -0.7968769q-0.328125 -0.515625 -0.5 -1.234375q-0.171875 -0.71875 -0.171875 -1.59375zm1.390625 -0.078125q0 1.421875 0.40625 2.125q0.421875 0.6875 1.1875 0.6875q0.515625 0 1.09375 -0.453125q0.578125 -0.46875 1.203125 -1.375l0 -3.640625q-0.328125 -0.15625 -0.734375 -0.234375q-0.40625 -0.078125 -0.8125 -0.078125q-1.109375 0 -1.734375 0.71875q-0.609375 0.71875 -0.609375 2.25zm23.109375 -1.203125l-6.71875 0l0 -1.15625l6.71875 0l0 1.15625zm0 2.71875l-6.71875 0l0 -1.15625l6.71875 0l0 1.15625zm18.546875 2.328127l-1.515625 0l-0.703125 -2.234377l-4.25 0l-0.71875 2.234377l-1.453125 0l3.390625 -10.218752l1.90625 0l3.34375 10.218752zm-2.625 -3.468752l-1.71875 -5.46875l-1.734375 5.46875l3.453125 0zm8.65625 6.750002q-3.609375 -3.34375 -3.609375 -7.375002q0 -0.953125 0.1875 -1.890625q0.203125 -0.9375 0.625 -1.875q0.421875 -0.953125 1.125 -1.890625q0.703125 -0.953125 1.703125 -1.890625l0.78125 0.8125q-3.03125 2.984375 -3.03125 6.625q0 1.8125 0.765625 3.5q0.765625 1.6718769 2.265625 3.156252l-0.8125 0.828125zm11.171875 -3.28125l-1.8125 0l-2.109375 -3.000002l-2.09375 3.000002l-1.765625 0l3.046875 -3.937502l-2.90625 -3.90625l1.75 0l2.0625 3.015625l2.015625 -3.015625l1.6875 0l-2.953125 3.9375l3.078125 3.906252zm3.328125 -11.640627q3.59375 3.34375 3.59375 7.421875q0 0.84375 -0.171875 1.75q-0.171875 0.90625 -0.59375 1.859375q-0.40625 0.9531269 -1.109375 1.9218769q-0.6875 0.984375 -1.75 1.96875l-0.796875 -0.796875q1.53125 -1.515625 2.28125 -3.156252q0.75 -1.640625 0.75 -3.4375q0 -3.71875 -3.03125 -6.6875l0.828125 -0.84375z"
       fill-rule="nonzero"
       id="path33" />
    <path
       fill="#000000"
       fill-opacity="0.0"
       d="m442.00986 20.658281l0 0l0 18.734377l0 0l0 -18.734377z"
       fill-rule="nonzero"
       id="path34" />
    <path
       fill="#595959"
       d="m305.18173 64.22234l-2.3125 0l0 -1.1249962l3.6875 0l0 6.703121l2.34375 0l0 1.140625l-6.296875 0l0 -1.140625l2.578125 0l0 -5.578125zm0.484375 -4.421871q0.21875 0 0.40625 0.09375q0.203125 0.078125 0.34375 0.234375q0.15625 0.140625 0.234375 0.328125q0.078125 0.1875 0.078125 0.421875q0 0.21875 -0.078125 0.421875q-0.078125 0.1875 -0.234375 0.34375q-0.140625 0.140625 -0.34375 0.21875q-0.1875 0.078125 -0.40625 0.078125q-0.234375 0 -0.4375 -0.078125q-0.1875 -0.078125 -0.328125 -0.21875q-0.140625 -0.15625 -0.234375 -0.34375q-0.078125 -0.203125 -0.078125 -0.421875q0 -0.234375 0.078125 -0.421875q0.09375 -0.1875 0.234375 -0.328125q0.140625 -0.15625 0.328125 -0.234375q0.203125 -0.09375 0.4375 -0.09375zm12.609375 1.359375q-1.078125 -0.21875 -1.84375 -0.21875q-1.84375 0 -1.84375 1.921875l0 1.3749962l3.4375 0l0 1.125l-3.4375 0l0 5.578125l-1.375 0l0 -5.578125l-2.53125 0l0 -1.125l2.53125 0l0 -1.2968712q0 -3.140625 3.265625 -3.140625q0.8125 0 1.796875 0.1875l0 1.171875zm-8.21875 1.9375l0 0zm14.75 11.124996q-3.609375 -3.34375 -3.609375 -7.375q0 -0.953125 0.1875 -1.890625q0.203125 -0.9375 0.625 -1.8749962q0.421875 -0.953125 1.125 -1.890625q0.703125 -0.953125 1.703125 -1.890625l0.78125 0.8125q-3.03125 2.984375 -3.03125 6.624996q0 1.8125 0.765625 3.5q0.765625 1.671875 2.265625 3.15625l-0.8125 0.828125zm18.984375 -3.578125q-0.53125 0.203125 -1.09375 0.296875q-0.546875 0.109375 -1.140625 0.109375q-1.859375 0 -2.875 -1.0q-1.0 -1.015625 -1.0 -2.953125q0 -0.9375 0.28125 -1.6875q0.296875 -0.765625 0.8125 -1.296875q0.53125 -0.5468712 1.25 -0.8281212q0.734375 -0.296875 1.609375 -0.296875q0.609375 0 1.140625 0.09375q0.53125 0.078125 1.015625 0.265625l0 1.2968712q-0.5 -0.265625 -1.03125 -0.375q-0.53125 -0.125 -1.09375 -0.125q-0.515625 0 -0.984375 0.203125q-0.46875 0.1875 -0.828125 0.5625q-0.34375 0.375 -0.546875 0.921875q-0.203125 0.53125 -0.203125 1.21875q0 1.421875 0.6875 2.125q0.703125 0.703125 1.921875 0.703125q0.5625 0 1.078125 -0.125q0.515625 -0.125 1.0 -0.375l0 1.265625zm9.53125 -3.6875q0 0.90625 -0.265625 1.671875q-0.25 0.765625 -0.734375 1.3125q-0.484375 0.53125 -1.1875 0.84375q-0.6875 0.296875 -1.5625 0.296875q-0.84375 0 -1.515625 -0.265625q-0.671875 -0.265625 -1.140625 -0.765625q-0.453125 -0.515625 -0.703125 -1.265625q-0.25 -0.75 -0.25 -1.71875q0 -0.921875 0.25 -1.671875q0.265625 -0.75 0.75 -1.296875q0.484375 -0.5468712 1.171875 -0.8437462q0.703125 -0.296875 1.59375 -0.296875q0.84375 0 1.5 0.265625q0.671875 0.25 1.140625 0.765625q0.46875 0.4999962 0.703125 1.2499962q0.25 0.75 0.25 1.71875zm-1.390625 0.0625q0 -0.734375 -0.15625 -1.265625q-0.15625 -0.546875 -0.453125 -0.90625q-0.296875 -0.375 -0.734375 -0.546875q-0.421875 -0.1875 -0.9375 -0.1875q-0.609375 0 -1.046875 0.234375q-0.4375 0.234375 -0.71875 0.640625q-0.265625 0.390625 -0.40625 0.921875q-0.125 0.53125 -0.125 1.109375q0 0.71875 0.15625 1.265625q0.171875 0.546875 0.46875 0.921875q0.296875 0.359375 0.71875 0.546875q0.421875 0.171875 0.953125 0.171875q0.609375 0 1.03125 -0.234375q0.4375 -0.234375 0.71875 -0.625q0.28125 -0.40625 0.40625 -0.9375q0.125 -0.53125 0.125 -1.109375zm3.359375 -3.9218712l1.21875 0l0.046875 1.2656212q0.34375 -0.4062462 0.65625 -0.6718712q0.328125 -0.28125 0.640625 -0.4375q0.3125 -0.171875 0.625 -0.234375q0.328125 -0.0625 0.671875 -0.0625q1.203125 0 1.828125 0.71875q0.625 0.7031212 0.625 2.1406212l0 5.125l-1.359375 0l0 -5.015625q0 -0.921875 -0.34375 -1.359375q-0.34375 -0.4375 -1.03125 -0.4375q-0.25 0 -0.484375 0.078125q-0.234375 0.0625 -0.5 0.25q-0.25 0.1875 -0.5625 0.5q-0.296875 0.3125 -0.671875 0.78125l0 5.203125l-1.359375 0l0 -7.843746zm8.40625 4.078121q0 -1.0 0.265625 -1.765625q0.28125 -0.78125 0.78125 -1.3125q0.5 -0.5468712 1.203125 -0.8124962q0.71875 -0.28125 1.578125 -0.28125q0.375 0 0.734375 0.046875q0.375 0.046875 0.71875 0.140625l0 -3.296875l1.375 0l0 11.046871l-1.21875 0l-0.046875 -1.484375q-0.578125 0.828125 -1.25 1.234375q-0.65625 0.390625 -1.421875 0.390625q-0.671875 0 -1.1875 -0.28125q-0.515625 -0.28125 -0.859375 -0.796875q-0.328125 -0.515625 -0.5 -1.234375q-0.171875 -0.71875 -0.171875 -1.59375zm1.390625 -0.078125q0 1.421875 0.40625 2.125q0.421875 0.6875 1.1875 0.6875q0.515625 0 1.09375 -0.453125q0.578125 -0.46875 1.203125 -1.375l0 -3.640625q-0.328125 -0.15625 -0.734375 -0.234375q-0.40625 -0.078125 -0.8125 -0.078125q-1.109375 0 -1.734375 0.71875q-0.609375 0.71875 -0.609375 2.25zm18.203125 -7.796871q3.59375 3.34375 3.59375 7.421871q0 0.84375 -0.171875 1.75q-0.171875 0.90625 -0.59375 1.859375q-0.40625 0.953125 -1.109375 1.921875q-0.6875 0.984375 -1.75 1.96875l-0.796875 -0.796875q1.53125 -1.515625 2.28125 -3.15625q0.75 -1.640625 0.75 -3.4375q0 -3.7187462 -3.03125 -6.687496l0.828125 -0.84375zm12.953125 14.843746l-0.578125 0q-1.515625 0 -2.25 -0.703125q-0.734375 -0.703125 -0.734375 -2.140625l0 -2.703125q0 -0.375 -0.09375 -0.671875q-0.078125 -0.3125 -0.296875 -0.515625q-0.203125 -0.203125 -0.5625 -0.3125q-0.359375 -0.109375 -0.890625 -0.109375l-0.34375 0l0 -1.09375l0.34375 0q0.5625 0 0.921875 -0.09375q0.359375 -0.09375 0.5625 -0.28125q0.203125 -0.1875 0.28125 -0.484375q0.078125 -0.296875 0.078125 -0.703125l0 -1.8593712q0 -0.65625 0.15625 -1.171875q0.15625 -0.53125 0.515625 -0.90625q0.359375 -0.375 0.921875 -0.5625q0.5625 -0.203125 1.390625 -0.203125l0.578125 0l0 1.09375l-0.46875 0q-1.8125 0 -1.8125 1.75l0 1.8281212q0 1.90625 -1.640625 2.140625q1.65625 0.171875 1.65625 2.140625l0 2.6875q0 1.78125 1.796875 1.78125l0.46875 0l0 1.09375z"
       fill-rule="nonzero"
       id="path35" />
    <path
       fill="#d9ead3"
       d="m349.25986 93.98109l43.984375 0l0 19.200005l-43.984375 0l0 -19.200005z"
       fill-rule="nonzero"
       id="path36" />
    <path
       fill="#010000"
       fill-opacity="0.0"
       d="m349.25986 97.458275l43.984375 0l0 18.734375l-43.984375 0l0 -18.734375z"
       fill-rule="nonzero"
       id="path37" />
    <path
       fill="#595959"
       d="m357.19736 106.27859q0 0.734375 -0.28125 1.3125q-0.28125 0.5625 -0.8125 0.953125q-0.53125 0.390625 -1.28125 0.59375q-0.734375 0.203125 -1.65625 0.203125l-2.671875 0l0 -10.21875l2.921875 0q3.421875 0 3.421875 2.484375q0 0.828125 -0.40625 1.421875q-0.390625 0.59375 -1.28125 0.890625q0.421875 0.078125 0.78125 0.265625q0.375 0.1875 0.65625 0.484375q0.28125 0.296875 0.4375 0.703125q0.171875 0.40625 0.171875 0.90625zm-1.8125 -4.484375q0 -0.3125 -0.09375 -0.578125q-0.09375 -0.28125 -0.328125 -0.484375q-0.234375 -0.203125 -0.640625 -0.3125q-0.390625 -0.125 -1.0 -0.125l-1.4375 0l0 3.203125l1.390625 0q0.484375 0 0.859375 -0.09375q0.390625 -0.109375 0.671875 -0.3125q0.28125 -0.21875 0.421875 -0.53125q0.15625 -0.328125 0.15625 -0.765625zm0.34375 4.53125q0 -0.390625 -0.171875 -0.703125q-0.15625 -0.3125 -0.46875 -0.515625q-0.3125 -0.21875 -0.765625 -0.328125q-0.453125 -0.125 -1.015625 -0.125l-1.421875 0l0 3.515625l1.46875 0q1.203125 0 1.78125 -0.4375q0.59375 -0.453125 0.59375 -1.40625zm8.28125 6.296875q-3.609375 -3.34375 -3.609375 -7.375q0 -0.953125 0.1875 -1.890625q0.203125 -0.9375 0.625 -1.875q0.421875 -0.953125 1.125 -1.890625q0.703125 -0.953125 1.703125 -1.890625l0.78125 0.8125q-3.03125 2.984375 -3.03125 6.625q0 1.8125 0.765625 3.5q0.765625 1.671875 2.265625 3.15625l-0.8125 0.828125zm11.171875 -3.28125l-1.8125 0l-2.109375 -3.0l-2.09375 3.0l-1.765625 0l3.046875 -3.9375l-2.90625 -3.90625l1.75 0l2.0625 3.015625l2.015625 -3.015625l1.6875 0l-2.953125 3.9375l3.078125 3.90625zm3.328125 -11.640625q3.59375 3.34375 3.59375 7.421875q0 0.84375 -0.171875 1.75q-0.171875 0.90625 -0.59375 1.859375q-0.40625 0.953125 -1.109375 1.921875q-0.6875 0.984375 -1.75 1.96875l-0.796875 -0.796875q1.53125 -1.515625 2.28125 -3.15625q0.75 -1.640625 0.75 -3.4375q0 -3.71875 -3.03125 -6.6875l0.828125 -0.84375zm7.890625 13.25q0.40625 0.015625 0.78125 -0.078125q0.375 -0.078125 0.65625 -0.25q0.28125 -0.171875 0.453125 -0.421875q0.171875 -0.25 0.171875 -0.5625q0 -0.34375 -0.109375 -0.546875q-0.109375 -0.203125 -0.25 -0.375q-0.140625 -0.171875 -0.265625 -0.359375q-0.109375 -0.203125 -0.109375 -0.53125q0 -0.15625 0.0625 -0.328125q0.0625 -0.1875 0.1875 -0.328125q0.140625 -0.15625 0.328125 -0.25q0.203125 -0.09375 0.484375 -0.09375q0.265625 0 0.515625 0.109375q0.265625 0.109375 0.453125 0.34375q0.1875 0.234375 0.296875 0.59375q0.125 0.34375 0.125 0.828125q0 0.65625 -0.25 1.25q-0.234375 0.59375 -0.703125 1.046875q-0.46875 0.46875 -1.1875 0.734375q-0.703125 0.28125 -1.640625 0.28125l0 -1.0625zm2.453125 -9.59375q0.234375 0 0.453125 0.09375q0.21875 0.09375 0.375 0.265625q0.171875 0.15625 0.265625 0.375q0.109375 0.21875 0.109375 0.46875q0 0.25 -0.109375 0.46875q-0.09375 0.203125 -0.265625 0.375q-0.15625 0.15625 -0.375 0.25q-0.21875 0.09375 -0.453125 0.09375q-0.25 0 -0.46875 -0.09375q-0.21875 -0.09375 -0.390625 -0.25q-0.15625 -0.171875 -0.25 -0.375q-0.09375 -0.21875 -0.09375 -0.46875q0 -0.25 0.09375 -0.46875q0.09375 -0.21875 0.25 -0.375q0.171875 -0.171875 0.390625 -0.265625q0.21875 -0.09375 0.46875 -0.09375z"
       fill-rule="nonzero"
       id="path38" />
    <path
       fill="#010000"
       fill-opacity="0.0"
       d="m393.24423 97.458275l0 0l0 18.734375l0 0l0 -18.734375z"
       fill-rule="nonzero"
       id="path39" />
    <path
       fill="#595959"
       d="m303.05673 136.42857l0.578125 0q1.5 0 2.234375 0.703125q0.734375 0.703125 0.734375 2.140625l0 1.8125q0 0.375 0.078125 0.6875q0.09375 0.296875 0.3125 0.5q0.21875 0.203125 0.578125 0.3125q0.359375 0.109375 0.890625 0.109375l0.34375 0l0 1.09375l-0.34375 0q-0.5625 0 -0.9375 0.09375q-0.359375 0.09375 -0.5625 0.28125q-0.203125 0.1875 -0.28125 0.484375q-0.078125 0.296875 -0.078125 0.703125l0 2.75q0 0.65625 -0.15625 1.171875q-0.15625 0.53125 -0.515625 0.90625q-0.34375 0.375 -0.921875 0.5625q-0.5625 0.203125 -1.375 0.203125l-0.578125 0l0 -1.09375l0.46875 0q1.796875 0 1.796875 -1.75l0 -2.71875q0 -1.90625 1.65625 -2.140625q-1.671875 -0.171875 -1.671875 -2.140625l0 -1.796875q0 -1.78125 -1.78125 -1.78125l-0.46875 0l0 -1.09375zm23.671875 6.96875q0 0.296875 -0.015625 0.5q0 0.1875 -0.015625 0.359375l-5.5 0q0 1.203125 0.671875 1.84375q0.671875 0.640625 1.9375 0.640625q0.34375 0 0.6875 -0.015625q0.34375 -0.03125 0.65625 -0.078125q0.328125 -0.046875 0.609375 -0.109375q0.296875 -0.0625 0.546875 -0.125l0 1.109375q-0.546875 0.15625 -1.25 0.25q-0.703125 0.109375 -1.453125 0.109375q-1.0 0 -1.734375 -0.265625q-0.71875 -0.28125 -1.1875 -0.796875q-0.46875 -0.53125 -0.6875 -1.28125q-0.21875 -0.75 -0.21875 -1.703125q0 -0.828125 0.234375 -1.5625q0.234375 -0.75 0.6875 -1.296875q0.46875 -0.5625 1.125 -0.890625q0.671875 -0.328125 1.515625 -0.328125q0.8125 0 1.4375 0.265625q0.640625 0.25 1.078125 0.71875q0.4375 0.46875 0.65625 1.15625q0.21875 0.671875 0.21875 1.5zm-1.40625 -0.1875q0.015625 -0.53125 -0.109375 -0.953125q-0.125 -0.4375 -0.390625 -0.75q-0.25 -0.3125 -0.640625 -0.484375q-0.390625 -0.1875 -0.90625 -0.1875q-0.453125 0 -0.828125 0.171875q-0.359375 0.171875 -0.625 0.484375q-0.265625 0.3125 -0.4375 0.75q-0.15625 0.4375 -0.1875 0.96875l4.125 0zm6.25 -5.390625l-2.3125 0l0 -1.125l3.6875 0l0 9.90625l2.34375 0l0 1.140625l-6.296875 0l0 -1.140625l2.578125 0l0 -8.78125zm12.34375 7.78125q0 0.40625 -0.140625 0.734375q-0.140625 0.328125 -0.390625 0.59375q-0.234375 0.25 -0.5625 0.4375q-0.3125 0.171875 -0.6875 0.296875q-0.359375 0.109375 -0.75 0.15625q-0.375 0.0625 -0.734375 0.0625q-0.796875 0 -1.46875 -0.078125q-0.671875 -0.0625 -1.3125 -0.21875l0 -1.25q0.6875 0.1875 1.359375 0.296875q0.6875 0.09375 1.359375 0.09375q0.984375 0 1.453125 -0.265625q0.46875 -0.265625 0.46875 -0.75q0 -0.21875 -0.078125 -0.375q-0.078125 -0.171875 -0.28125 -0.328125q-0.1875 -0.15625 -0.59375 -0.3125q-0.40625 -0.171875 -1.125 -0.375q-0.53125 -0.15625 -0.984375 -0.359375q-0.4375 -0.203125 -0.765625 -0.46875q-0.328125 -0.28125 -0.515625 -0.640625q-0.1875 -0.375 -0.1875 -0.875q0 -0.328125 0.140625 -0.71875q0.15625 -0.390625 0.515625 -0.71875q0.375 -0.34375 1.0 -0.5625q0.625 -0.21875 1.5625 -0.21875q0.46875 0 1.03125 0.046875q0.5625 0.046875 1.171875 0.171875l0 1.21875q-0.640625 -0.15625 -1.21875 -0.234375q-0.578125 -0.078125 -1.0 -0.078125q-0.5 0 -0.859375 0.078125q-0.34375 0.078125 -0.5625 0.21875q-0.203125 0.140625 -0.296875 0.328125q-0.09375 0.171875 -0.09375 0.390625q0 0.203125 0.078125 0.375q0.078125 0.171875 0.296875 0.34375q0.234375 0.15625 0.625 0.3125q0.40625 0.15625 1.046875 0.34375q0.6875 0.203125 1.15625 0.4375q0.484375 0.21875 0.78125 0.5q0.296875 0.265625 0.421875 0.609375q0.140625 0.34375 0.140625 0.78125zm9.203125 -2.203125q0 0.296875 -0.015625 0.5q0 0.1875 -0.015625 0.359375l-5.5 0q0 1.203125 0.671875 1.84375q0.671875 0.640625 1.9375 0.640625q0.34375 0 0.6875 -0.015625q0.34375 -0.03125 0.65625 -0.078125q0.328125 -0.046875 0.609375 -0.109375q0.296875 -0.0625 0.546875 -0.125l0 1.109375q-0.546875 0.15625 -1.25 0.25q-0.703125 0.109375 -1.453125 0.109375q-1.0 0 -1.734375 -0.265625q-0.71875 -0.28125 -1.1875 -0.796875q-0.46875 -0.53125 -0.6875 -1.28125q-0.21875 -0.75 -0.21875 -1.703125q0 -0.828125 0.234375 -1.5625q0.234375 -0.75 0.6875 -1.296875q0.46875 -0.5625 1.125 -0.890625q0.671875 -0.328125 1.515625 -0.328125q0.8125 0 1.4375 0.265625q0.640625 0.25 1.078125 0.71875q0.4375 0.46875 0.65625 1.15625q0.21875 0.671875 0.21875 1.5zm-1.40625 -0.1875q0.015625 -0.53125 -0.109375 -0.953125q-0.125 -0.4375 -0.390625 -0.75q-0.25 -0.3125 -0.640625 -0.484375q-0.390625 -0.1875 -0.90625 -0.1875q-0.453125 0 -0.828125 0.171875q-0.359375 0.171875 -0.625 0.484375q-0.265625 0.3125 -0.4375 0.75q-0.15625 0.4375 -0.1875 0.96875l4.125 0zm18.140625 7.734375l-0.578125 0q-1.515625 0 -2.25 -0.703125q-0.734375 -0.703125 -0.734375 -2.140625l0 -2.703125q0 -0.375 -0.09375 -0.671875q-0.078125 -0.3125 -0.296875 -0.515625q-0.203125 -0.203125 -0.5625 -0.3125q-0.359375 -0.109375 -0.890625 -0.109375l-0.34375 0l0 -1.09375l0.34375 0q0.5625 0 0.921875 -0.09375q0.359375 -0.09375 0.5625 -0.28125q0.203125 -0.1875 0.28125 -0.484375q0.078125 -0.296875 0.078125 -0.703125l0 -1.859375q0 -0.65625 0.15625 -1.171875q0.15625 -0.53125 0.515625 -0.90625q0.359375 -0.375 0.921875 -0.5625q0.5625 -0.203125 1.390625 -0.203125l0.578125 0l0 1.09375l-0.46875 0q-1.8125 0 -1.8125 1.75l0 1.828125q0 1.90625 -1.640625 2.140625q1.65625 0.171875 1.65625 2.140625l0 2.6875q0 1.78125 1.796875 1.78125l0.46875 0l0 1.09375z"
       fill-rule="nonzero"
       id="path40" />
    <path
       fill="#fff2cc"
       d="m349.25986 170.78107l43.984375 0l0 19.199997l-43.984375 0l0 -19.199997z"
       fill-rule="nonzero"
       id="path41" />
    <path
       fill="#010000"
       fill-opacity="0.0"
       d="m349.25986 174.25826l43.984375 0l0 18.734375l-43.984375 0l0 -18.734375z"
       fill-rule="nonzero"
       id="path42" />
    <path
       fill="#595959"
       d="m357.0411 185.75044q-1.234375 0.515625 -2.578125 0.515625q-2.15625 0 -3.328125 -1.296875q-1.15625 -1.296875 -1.15625 -3.828125q0 -1.21875 0.3125 -2.203125q0.328125 -1.0 0.921875 -1.6875q0.59375 -0.703125 1.4375 -1.078125q0.84375 -0.375 1.890625 -0.375q0.71875 0 1.328125 0.125q0.609375 0.125 1.171875 0.375l0 1.359375q-0.5625 -0.296875 -1.15625 -0.453125q-0.59375 -0.171875 -1.296875 -0.171875q-0.71875 0 -1.296875 0.28125q-0.578125 0.265625 -0.984375 0.78125q-0.40625 0.5 -0.625 1.25q-0.21875 0.734375 -0.21875 1.671875q0 1.984375 0.796875 3.0q0.8125 1.0 2.359375 1.0q0.65625 0 1.25 -0.140625q0.609375 -0.15625 1.171875 -0.4375l0 1.3125zm6.96875 3.671875q-3.609375 -3.34375 -3.609375 -7.375q0 -0.953125 0.1875 -1.890625q0.203125 -0.9375 0.625 -1.875q0.421875 -0.953125 1.125 -1.890625q0.703125 -0.953125 1.703125 -1.890625l0.78125 0.8125q-3.03125 2.984375 -3.03125 6.625q0 1.8125 0.765625 3.5q0.765625 1.671875 2.265625 3.15625l-0.8125 0.828125zm11.171875 -3.28125l-1.8125 0l-2.109375 -3.0l-2.09375 3.0l-1.765625 0l3.046875 -3.9375l-2.90625 -3.90625l1.75 0l2.0625 3.015625l2.015625 -3.015625l1.6875 0l-2.953125 3.9375l3.078125 3.90625zm3.328125 -11.640625q3.59375 3.34375 3.59375 7.421875q0 0.84375 -0.171875 1.75q-0.171875 0.90625 -0.59375 1.859375q-0.40625 0.953125 -1.109375 1.921875q-0.6875 0.984375 -1.75 1.96875l-0.796875 -0.796875q1.53125 -1.515625 2.28125 -3.15625q0.75 -1.640625 0.75 -3.4375q0 -3.71875 -3.03125 -6.6875l0.828125 -0.84375zm7.890625 13.25q0.40625 0.015625 0.78125 -0.078125q0.375 -0.078125 0.65625 -0.25q0.28125 -0.171875 0.453125 -0.421875q0.171875 -0.25 0.171875 -0.5625q0 -0.34375 -0.109375 -0.546875q-0.109375 -0.203125 -0.25 -0.375q-0.140625 -0.171875 -0.265625 -0.359375q-0.109375 -0.203125 -0.109375 -0.53125q0 -0.15625 0.0625 -0.328125q0.0625 -0.1875 0.1875 -0.328125q0.140625 -0.15625 0.328125 -0.25q0.203125 -0.09375 0.484375 -0.09375q0.265625 0 0.515625 0.109375q0.265625 0.109375 0.453125 0.34375q0.1875 0.234375 0.296875 0.59375q0.125 0.34375 0.125 0.828125q0 0.65625 -0.25 1.25q-0.234375 0.59375 -0.703125 1.046875q-0.46875 0.46875 -1.1875 0.734375q-0.703125 0.28125 -1.640625 0.28125l0 -1.0625zm2.453125 -9.59375q0.234375 0 0.453125 0.09375q0.21875 0.09375 0.375 0.265625q0.171875 0.15625 0.265625 0.375q0.109375 0.21875 0.109375 0.46875q0 0.25 -0.109375 0.46875q-0.09375 0.203125 -0.265625 0.375q-0.15625 0.15625 -0.375 0.25q-0.21875 0.09375 -0.453125 0.09375q-0.25 0 -0.46875 -0.09375q-0.21875 -0.09375 -0.390625 -0.25q-0.15625 -0.171875 -0.25 -0.375q-0.09375 -0.21875 -0.09375 -0.46875q0 -0.25 0.09375 -0.46875q0.09375 -0.21875 0.25 -0.375q0.171875 -0.171875 0.390625 -0.265625q0.21875 -0.09375 0.46875 -0.09375z"
       fill-rule="nonzero"
       id="path43" />
    <path
       fill="#010000"
       fill-opacity="0.0"
       d="m393.24423 174.25826l0 0l0 18.734375l0 0l0 -18.734375z"
       fill-rule="nonzero"
       id="path44" />
    <path
       fill="#595959"
       d="m303.05673 213.22856l0.578125 0q1.5 0 2.234375 0.703125q0.734375 0.703125 0.734375 2.140625l0 1.8125q0 0.375 0.078125 0.6875q0.09375 0.296875 0.3125 0.5q0.21875 0.203125 0.578125 0.3125q0.359375 0.109375 0.890625 0.109375l0.34375 0l0 1.09375l-0.34375 0q-0.5625 0 -0.9375 0.09375q-0.359375 0.09375 -0.5625 0.28125q-0.203125 0.1875 -0.28125 0.484375q-0.078125 0.296875 -0.078125 0.703125l0 2.75q0 0.65625 -0.15625 1.171875q-0.15625 0.53125 -0.515625 0.90625q-0.34375 0.375 -0.921875 0.5625q-0.5625 0.203125 -1.375 0.203125l-0.578125 0l0 -1.09375l0.46875 0q1.796875 0 1.796875 -1.75l0 -2.71875q0 -1.90625 1.65625 -2.140625q-1.671875 -0.171875 -1.671875 -2.140625l0 -1.796875q0 -1.78125 -1.78125 -1.78125l-0.46875 0l0 -1.09375z"
       fill-rule="nonzero"
       id="path45" />
    <path
       fill="#d9d2e9"
       d="m301.25986 247.58105l43.984375 0l0 19.200012l-43.984375 0l0 -19.200012z"
       fill-rule="nonzero"
       id="path46" />
    <path
       fill="#000000"
       fill-opacity="0.0"
       d="m301.25986 251.05824l43.984375 0l0 18.73436l-43.984375 0l0 -18.73436z"
       fill-rule="nonzero"
       id="path47" />
    <path
       fill="#595959"
       d="m309.49423 257.72232q0 0.734375 -0.125 1.40625q-0.109375 0.671875 -0.359375 1.25q-0.25 0.578125 -0.65625 1.046875q-0.390625 0.46875 -0.96875 0.8125q-0.578125 0.328125 -1.34375 0.515625q-0.765625 0.1875 -1.734375 0.1875l-2.1875 0l0 -10.218765l2.625 0q2.390625 0 3.5625 1.234375q1.1875 1.234375 1.1875 3.7656403zm-1.46875 0.09375q0 -1.078125 -0.203125 -1.8281403q-0.203125 -0.75 -0.625 -1.203125q-0.40625 -0.46875 -1.03125 -0.671875q-0.625 -0.21875 -1.46875 -0.21875l-1.1875 0l0 7.8437653l1.03125 0q3.484375 0 3.484375 -3.921875zm7.984375 8.4062195q-3.609375 -3.3437195 -3.609375 -7.3749695q0 -0.953125 0.1875 -1.890625q0.203125 -0.9375 0.625 -1.8750153q0.421875 -0.953125 1.125 -1.890625q0.703125 -0.953125 1.703125 -1.890625l0.78125 0.8125q-3.03125 2.984375 -3.03125 6.6250153q0 1.8125 0.765625 3.5q0.765625 1.671875 2.265625 3.1562195l-0.8125 0.828125zm11.171875 -3.2812195l-1.8125 0l-2.109375 -3.0l-2.09375 3.0l-1.765625 0l3.046875 -3.9375l-2.90625 -3.9062653l1.75 0l2.0625 3.0156403l2.015625 -3.0156403l1.6875 0l-2.953125 3.9375153l3.078125 3.90625zm3.328125 -11.64064q3.59375 3.34375 3.59375 7.4218903q0 0.84375 -0.171875 1.75q-0.171875 0.90625 -0.59375 1.859375q-0.40625 0.953125 -1.109375 1.9218445q-0.6875 0.984375 -1.75 1.96875l-0.796875 -0.796875q1.53125 -1.5155945 2.28125 -3.1562195q0.75 -1.640625 0.75 -3.4375q0 -3.7187653 -3.03125 -6.6875153l0.828125 -0.84375zm7.890625 13.249985q0.40625 0.015625 0.78125 -0.078125q0.375 -0.078125 0.65625 -0.25q0.28125 -0.17184448 0.453125 -0.42184448q0.171875 -0.25 0.171875 -0.5625q0 -0.34375 -0.109375 -0.546875q-0.109375 -0.203125 -0.25 -0.375q-0.140625 -0.171875 -0.265625 -0.359375q-0.109375 -0.203125 -0.109375 -0.53125q0 -0.15625 0.0625 -0.328125q0.0625 -0.1875 0.1875 -0.328125q0.140625 -0.15625 0.328125 -0.25q0.203125 -0.09375 0.484375 -0.09375q0.265625 0 0.515625 0.109375q0.265625 0.109375 0.453125 0.34375q0.1875 0.234375 0.296875 0.59375q0.125 0.34375 0.125 0.828125q0 0.65625 -0.25 1.25q-0.234375 0.59375 -0.703125 1.0468445q-0.46875 0.46875 -1.1875 0.734375q-0.703125 0.28125 -1.640625 0.28125l0 -1.0625zm2.453125 -9.593735q0.234375 0 0.453125 0.09375q0.21875 0.09375 0.375 0.265625q0.171875 0.15625 0.265625 0.375q0.109375 0.21875 0.109375 0.46876526q0 0.25 -0.109375 0.46875q-0.09375 0.203125 -0.265625 0.375q-0.15625 0.15625 -0.375 0.25q-0.21875 0.09375 -0.453125 0.09375q-0.25 0 -0.46875 -0.09375q-0.21875 -0.09375 -0.390625 -0.25q-0.15625 -0.171875 -0.25 -0.375q-0.09375 -0.21875 -0.09375 -0.46875q0 -0.25001526 0.09375 -0.46876526q0.09375 -0.21875 0.25 -0.375q0.171875 -0.171875 0.390625 -0.265625q0.21875 -0.09375 0.46875 -0.09375z"
       fill-rule="nonzero"
       id="path48" />
    <path
       fill="#000000"
       fill-opacity="0.0"
       d="m345.24423 251.05824l0 0l0 18.73436l0 0l0 -18.73436z"
       fill-rule="nonzero"
       id="path49" />
    <path
       fill="#f4cccc"
       d="m486.36746 21.74147l14.393707 0l0 11.514961l-7.196869 2.8787384l-7.1968384 -2.8787384z"
       fill-rule="evenodd"
       id="path50" />
    <path
       stroke="#000000"
       stroke-width="2.0"
       stroke-linejoin="round"
       stroke-linecap="butt"
       d="m486.36746 21.74147l14.393707 0l0 11.514961l-7.196869 2.8787384l-7.1968384 -2.8787384z"
       fill-rule="evenodd"
       id="path51" />
    <path
       fill="#f4cccc"
       d="m500.76648 21.74147l14.393677 0l0 11.514961l-7.1968384 2.8787384l-7.1968384 -2.8787384z"
       fill-rule="evenodd"
       id="path52" />
    <path
       stroke="#000000"
       stroke-width="2.0"
       stroke-linejoin="round"
       stroke-linecap="butt"
       d="m500.76648 21.74147l14.393677 0l0 11.514961l-7.1968384 2.8787384l-7.1968384 -2.8787384z"
       fill-rule="evenodd"
       id="path53" />
    <path
       fill="#f4cccc"
       d="m515.16547 21.74147l14.393738 0l0 11.514961l-7.1968384 2.8787384l-7.1968994 -2.8787384z"
       fill-rule="evenodd"
       id="path54" />
    <path
       stroke="#000000"
       stroke-width="2.0"
       stroke-linejoin="round"
       stroke-linecap="butt"
       d="m515.16547 21.74147l14.393738 0l0 11.514961l-7.1968384 2.8787384l-7.1968994 -2.8787384z"
       fill-rule="evenodd"
       id="path55" />
    <path
       fill="#f4cccc"
       d="m529.5645 21.74147l14.393677 0l0 11.514961l-7.1968384 2.8787384l-7.1968384 -2.8787384z"
       fill-rule="evenodd"
       id="path56" />
    <path
       stroke="#000000"
       stroke-width="2.0"
       stroke-linejoin="round"
       stroke-linecap="butt"
       d="m529.5645 21.74147l14.393677 0l0 11.514961l-7.1968384 2.8787384l-7.1968384 -2.8787384z"
       fill-rule="evenodd"
       id="path57" />
    <path
       fill="#f4cccc"
       d="m543.9619 21.74147l14.393738 0l0 11.514961l-7.1968384 2.8787384l-7.1968994 -2.8787384z"
       fill-rule="evenodd"
       id="path58" />
    <path
       stroke="#000000"
       stroke-width="2.0"
       stroke-linejoin="round"
       stroke-linecap="butt"
       d="m543.9619 21.74147l14.393738 0l0 11.514961l-7.1968384 2.8787384l-7.1968994 -2.8787384z"
       fill-rule="evenodd"
       id="path59" />
    <path
       fill="#f4cccc"
       d="m558.36096 21.74147l14.393677 0l0 11.514961l-7.1968384 2.8787384l-7.1968384 -2.8787384z"
       fill-rule="evenodd"
       id="path60" />
    <path
       stroke="#000000"
       stroke-width="2.0"
       stroke-linejoin="round"
       stroke-linecap="butt"
       d="m558.36096 21.74147l14.393677 0l0 11.514961l-7.1968384 2.8787384l-7.1968384 -2.8787384z"
       fill-rule="evenodd"
       id="path61" />
    <path
       fill="#f4cccc"
       d="m572.75995 21.74147l14.393738 0l0 11.514961l-7.1968384 2.8787384l-7.1968994 -2.8787384z"
       fill-rule="evenodd"
       id="path62" />
    <path
       stroke="#000000"
       stroke-width="2.0"
       stroke-linejoin="round"
       stroke-linecap="butt"
       d="m572.75995 21.74147l14.393738 0l0 11.514961l-7.1968384 2.8787384l-7.1968994 -2.8787384z"
       fill-rule="evenodd"
       id="path63" />
    <path
       fill="#f4cccc"
       d="m587.159 21.74147l14.393677 0l0 11.514961l-7.1968384 2.8787384l-7.1968384 -2.8787384z"
       fill-rule="evenodd"
       id="path64" />
    <path
       stroke="#000000"
       stroke-width="2.0"
       stroke-linejoin="round"
       stroke-linecap="butt"
       d="m587.159 21.74147l14.393677 0l0 11.514961l-7.1968384 2.8787384l-7.1968384 -2.8787384z"
       fill-rule="evenodd"
       id="path65" />
    <path
       fill="#d9ead3"
       d="m486.36746 102.13517l14.393707 0l0 11.514961l-7.196869 2.8787384l-7.1968384 -2.8787384z"
       fill-rule="evenodd"
       id="path66" />
    <path
       stroke="#000000"
       stroke-width="2.0"
       stroke-linejoin="round"
       stroke-linecap="butt"
       d="m486.36746 102.13517l14.393707 0l0 11.514961l-7.196869 2.8787384l-7.1968384 -2.8787384z"
       fill-rule="evenodd"
       id="path67" />
    <path
       fill="#d9ead3"
       d="m529.5645 102.13517l14.393677 0l0 11.514961l-7.1968384 2.8787384l-7.1968384 -2.8787384z"
       fill-rule="evenodd"
       id="path68" />
    <path
       stroke="#000000"
       stroke-width="2.0"
       stroke-linejoin="round"
       stroke-linecap="butt"
       d="m529.5645 102.13517l14.393677 0l0 11.514961l-7.1968384 2.8787384l-7.1968384 -2.8787384z"
       fill-rule="evenodd"
       id="path69" />
    <path
       fill="#d9ead3"
       d="m543.9619 102.13517l14.393738 0l0 11.514961l-7.1968384 2.8787384l-7.1968994 -2.8787384z"
       fill-rule="evenodd"
       id="path70" />
    <path
       stroke="#000000"
       stroke-width="2.0"
       stroke-linejoin="round"
       stroke-linecap="butt"
       d="m543.9619 102.13517l14.393738 0l0 11.514961l-7.1968384 2.8787384l-7.1968994 -2.8787384z"
       fill-rule="evenodd"
       id="path71" />
    <path
       fill="#d9ead3"
       d="m558.36096 102.13517l14.393677 0l0 11.514961l-7.1968384 2.8787384l-7.1968384 -2.8787384z"
       fill-rule="evenodd"
       id="path72" />
    <path
       stroke="#000000"
       stroke-width="2.0"
       stroke-linejoin="round"
       stroke-linecap="butt"
       d="m558.36096 102.13517l14.393677 0l0 11.514961l-7.1968384 2.8787384l-7.1968384 -2.8787384z"
       fill-rule="evenodd"
       id="path73" />
    <path
       fill="#d9ead3"
       d="m587.159 102.13517l14.393677 0l0 11.514961l-7.1968384 2.8787384l-7.1968384 -2.8787384z"
       fill-rule="evenodd"
       id="path74" />
    <path
       stroke="#000000"
       stroke-width="2.0"
       stroke-linejoin="round"
       stroke-linecap="butt"
       d="m587.159 102.13517l14.393677 0l0 11.514961l-7.1968384 2.8787384l-7.1968384 -2.8787384z"
       fill-rule="evenodd"
       id="path75" />
    <path
       fill="#fff2cc"
       d="m500.76648 177.93045l14.393677 0l0 11.514954l-7.1968384 2.8787384l-7.1968384 -2.8787384z"
       fill-rule="evenodd"
       id="path76" />
    <path
       stroke="#000000"
       stroke-width="2.0"
       stroke-linejoin="round"
       stroke-linecap="butt"
       d="m500.76648 177.93045l14.393677 0l0 11.514954l-7.1968384 2.8787384l-7.1968384 -2.8787384z"
       fill-rule="evenodd"
       id="path77" />
    <path
       fill="#fff2cc"
       d="m515.16547 177.93045l14.393738 0l0 11.514954l-7.1968384 2.8787384l-7.1968994 -2.8787384z"
       fill-rule="evenodd"
       id="path78" />
    <path
       stroke="#000000"
       stroke-width="2.0"
       stroke-linejoin="round"
       stroke-linecap="butt"
       d="m515.16547 177.93045l14.393738 0l0 11.514954l-7.1968384 2.8787384l-7.1968994 -2.8787384z"
       fill-rule="evenodd"
       id="path79" />
    <path
       fill="#fff2cc"
       d="m572.75995 177.93045l14.393738 0l0 11.514954l-7.1968384 2.8787384l-7.1968994 -2.8787384z"
       fill-rule="evenodd"
       id="path80" />
    <path
       stroke="#000000"
       stroke-width="2.0"
       stroke-linejoin="round"
       stroke-linecap="butt"
       d="m572.75995 177.93045l14.393738 0l0 11.514954l-7.1968384 2.8787384l-7.1968994 -2.8787384z"
       fill-rule="evenodd"
       id="path81" />
    <path
       fill="#d9d2e9"
       d="m486.36746 258.93045l14.393707 0l0 11.514954l-7.196869 2.8787537l-7.1968384 -2.8787537z"
       fill-rule="evenodd"
       id="path82" />
    <path
       stroke="#000000"
       stroke-width="2.0"
       stroke-linejoin="round"
       stroke-linecap="butt"
       d="m486.36746 258.93045l14.393707 0l0 11.514954l-7.196869 2.8787537l-7.1968384 -2.8787537z"
       fill-rule="evenodd"
       id="path83" />
    <path
       fill="#d9d2e9"
       d="m500.76648 258.93045l14.393677 0l0 11.514954l-7.1968384 2.8787537l-7.1968384 -2.8787537z"
       fill-rule="evenodd"
       id="path84" />
    <path
       stroke="#000000"
       stroke-width="2.0"
       stroke-linejoin="round"
       stroke-linecap="butt"
       d="m500.76648 258.93045l14.393677 0l0 11.514954l-7.1968384 2.8787537l-7.1968384 -2.8787537z"
       fill-rule="evenodd"
       id="path85" />
    <path
       fill="#d9d2e9"
       d="m515.16547 258.93045l14.393738 0l0 11.514954l-7.1968384 2.8787537l-7.1968994 -2.8787537z"
       fill-rule="evenodd"
       id="path86" />
    <path
       stroke="#000000"
       stroke-width="2.0"
       stroke-linejoin="round"
       stroke-linecap="butt"
       d="m515.16547 258.93045l14.393738 0l0 11.514954l-7.1968384 2.8787537l-7.1968994 -2.8787537z"
       fill-rule="evenodd"
       id="path87" />
    <path
       fill="#d9d2e9"
       d="m529.5645 258.93045l14.393677 0l0 11.514954l-7.1968384 2.8787537l-7.1968384 -2.8787537z"
       fill-rule="evenodd"
       id="path88" />
    <path
       stroke="#000000"
       stroke-width="2.0"
       stroke-linejoin="round"
       stroke-linecap="butt"
       d="m529.5645 258.93045l14.393677 0l0 11.514954l-7.1968384 2.8787537l-7.1968384 -2.8787537z"
       fill-rule="evenodd"
       id="path89" />
    <path
       fill="#d9d2e9"
       d="m543.9619 258.93045l14.393738 0l0 11.514954l-7.1968384 2.8787537l-7.1968994 -2.8787537z"
       fill-rule="evenodd"
       id="path90" />
    <path
       stroke="#000000"
       stroke-width="2.0"
       stroke-linejoin="round"
       stroke-linecap="butt"
       d="m543.9619 258.93045l14.393738 0l0 11.514954l-7.1968384 2.8787537l-7.1968994 -2.8787537z"
       fill-rule="evenodd"
       id="path91" />
    <path
       fill="#d9d2e9"
       d="m558.36096 258.93045l14.393677 0l0 11.514954l-7.1968384 2.8787537l-7.1968384 -2.8787537z"
       fill-rule="evenodd"
       id="path92" />
    <path
       stroke="#000000"
       stroke-width="2.0"
       stroke-linejoin="round"
       stroke-linecap="butt"
       d="m558.36096 258.93045l14.393677 0l0 11.514954l-7.1968384 2.8787537l-7.1968384 -2.8787537z"
       fill-rule="evenodd"
       id="path93" />
    <path
       fill="#d9d2e9"
       d="m572.75995 258.93045l14.393738 0l0 11.514954l-7.1968384 2.8787537l-7.1968994 -2.8787537z"
       fill-rule="evenodd"
       id="path94" />
    <path
       stroke="#000000"
       stroke-width="2.0"
       stroke-linejoin="round"
       stroke-linecap="butt"
       d="m572.75995 258.93045l14.393738 0l0 11.514954l-7.1968384 2.8787537l-7.1968994 -2.8787537z"
       fill-rule="evenodd"
       id="path95" />
    <path
       fill="#d9d2e9"
       d="m587.159 258.93045l14.393677 0l0 11.514954l-7.1968384 2.8787537l-7.1968384 -2.8787537z"
       fill-rule="evenodd"
       id="path96" />
    <path
       stroke="#000000"
       stroke-width="2.0"
       stroke-linejoin="round"
       stroke-linecap="butt"
       d="m587.159 258.93045l14.393677 0l0 11.514954l-7.1968384 2.8787537l-7.1968384 -2.8787537z"
       fill-rule="evenodd"
       id="path97" />
    <path
       fill="#000000"
       fill-opacity="0.0"
       d="m493.5643 36.119423l0 66.01575"
       fill-rule="evenodd"
       id="path98" />
    <path
       stroke="#000000"
       stroke-width="1.0"
       stroke-linejoin="round"
       stroke-linecap="butt"
       d="m493.5643 36.119423l0 60.015747"
       fill-rule="evenodd"
       id="path99" />
    <path
       fill="#000000"
       stroke="#000000"
       stroke-width="1.0"
       stroke-linecap="butt"
       d="m491.91257 96.13517l1.6517334 4.538101l1.6517334 -4.538101z"
       fill-rule="evenodd"
       id="path100" />
    <path
       fill="#000000"
       fill-opacity="0.0"
       d="m522.36237 36.13517l0 141.79529"
       fill-rule="evenodd"
       id="path101" />
    <path
       stroke="#000000"
       stroke-width="1.0"
       stroke-linejoin="round"
       stroke-linecap="butt"
       stroke-dasharray="4.0,3.0"
       d="m522.3623 36.13517l0 135.79529"
       fill-rule="evenodd"
       id="path102" />
    <path
       fill="#000000"
       stroke="#000000"
       stroke-width="1.0"
       stroke-linecap="butt"
       d="m520.7106 171.93045l1.6517334 4.538086l1.6517334 -4.538086z"
       fill-rule="evenodd"
       id="path103" />
    <path
       fill="#000000"
       fill-opacity="0.0"
       d="m507.96332 36.13517l0 141.79529"
       fill-rule="evenodd"
       id="path104" />
    <path
       stroke="#000000"
       stroke-width="1.0"
       stroke-linejoin="round"
       stroke-linecap="butt"
       stroke-dasharray="4.0,3.0"
       d="m507.96335 36.13517l0 135.79529"
       fill-rule="evenodd"
       id="path105" />
    <path
       fill="#000000"
       stroke="#000000"
       stroke-width="1.0"
       stroke-linecap="butt"
       d="m506.3116 171.93045l1.6517334 4.538086l1.6517334 -4.538086z"
       fill-rule="evenodd"
       id="path106" />
    <path
       fill="#000000"
       fill-opacity="0.0"
       d="m536.76135 36.13517l0 66.01575"
       fill-rule="evenodd"
       id="path107" />
    <path
       stroke="#000000"
       stroke-width="1.0"
       stroke-linejoin="round"
       stroke-linecap="butt"
       d="m536.76135 36.13517l0 60.015747"
       fill-rule="evenodd"
       id="path108" />
    <path
       fill="#000000"
       stroke="#000000"
       stroke-width="1.0"
       stroke-linecap="butt"
       d="m535.1096 96.15092l1.6517334 4.538101l1.6517334 -4.538101z"
       fill-rule="evenodd"
       id="path109" />
    <path
       fill="#000000"
       fill-opacity="0.0"
       d="m551.1588 36.13517l0 66.01575"
       fill-rule="evenodd"
       id="path110" />
    <path
       stroke="#000000"
       stroke-width="1.0"
       stroke-linejoin="round"
       stroke-linecap="butt"
       d="m551.1588 36.13517l0 60.015747"
       fill-rule="evenodd"
       id="path111" />
    <path
       fill="#000000"
       stroke="#000000"
       stroke-width="1.0"
       stroke-linecap="butt"
       d="m549.5071 96.15092l1.6517334 4.538101l1.6517334 -4.538101z"
       fill-rule="evenodd"
       id="path112" />
    <path
       fill="#000000"
       fill-opacity="0.0"
       d="m565.5578 36.13517l0 66.01575"
       fill-rule="evenodd"
       id="path113" />
    <path
       stroke="#000000"
       stroke-width="1.0"
       stroke-linejoin="round"
       stroke-linecap="butt"
       d="m565.5578 36.13517l0 60.015747"
       fill-rule="evenodd"
       id="path114" />
    <path
       fill="#000000"
       stroke="#000000"
       stroke-width="1.0"
       stroke-linecap="butt"
       d="m563.90607 96.15092l1.6517334 4.538101l1.6517334 -4.538101z"
       fill-rule="evenodd"
       id="path115" />
    <path
       fill="#000000"
       fill-opacity="0.0"
       d="m579.95685 36.13517l0 141.79529"
       fill-rule="evenodd"
       id="path116" />
    <path
       stroke="#000000"
       stroke-width="1.0"
       stroke-linejoin="round"
       stroke-linecap="butt"
       stroke-dasharray="4.0,3.0"
       d="m579.9568 36.13517l0 135.79529"
       fill-rule="evenodd"
       id="path117" />
    <path
       fill="#000000"
       stroke="#000000"
       stroke-width="1.0"
       stroke-linecap="butt"
       d="m578.30505 171.93045l1.6517334 4.538086l1.6517334 -4.538086z"
       fill-rule="evenodd"
       id="path118" />
    <path
       fill="#000000"
       fill-opacity="0.0"
       d="m594.35583 36.13517l0 66.01575"
       fill-rule="evenodd"
       id="path119" />
    <path
       stroke="#000000"
       stroke-width="1.0"
       stroke-linejoin="round"
       stroke-linecap="butt"
       d="m594.35583 36.13517l0 60.015747"
       fill-rule="evenodd"
       id="path120" />
    <path
       fill="#000000"
       stroke="#000000"
       stroke-width="1.0"
       stroke-linecap="butt"
       d="m592.7041 96.15092l1.6517334 4.538101l1.6517334 -4.538101z"
       fill-rule="evenodd"
       id="path121" />
    <path
       fill="#000000"
       fill-opacity="0.0"
       d="m493.5643 116.52887l0 142.3937"
       fill-rule="evenodd"
       id="path122" />
    <path
       stroke="#000000"
       stroke-width="1.0"
       stroke-linejoin="round"
       stroke-linecap="butt"
       stroke-dasharray="4.0,3.0"
       d="m493.5643 116.52887l0 136.3937"
       fill-rule="evenodd"
       id="path123" />
    <path
       fill="#000000"
       stroke="#000000"
       stroke-width="1.0"
       stroke-linecap="butt"
       d="m491.91257 252.92258l1.6517334 4.538086l1.6517334 -4.538086z"
       fill-rule="evenodd"
       id="path124" />
    <path
       fill="#000000"
       fill-opacity="0.0"
       d="m536.76135 116.53674l0 142.3937"
       fill-rule="evenodd"
       id="path125" />
    <path
       stroke="#000000"
       stroke-width="1.0"
       stroke-linejoin="round"
       stroke-linecap="butt"
       stroke-dasharray="4.0,3.0"
       d="m536.76135 116.53674l0 136.3937"
       fill-rule="evenodd"
       id="path126" />
    <path
       fill="#000000"
       stroke="#000000"
       stroke-width="1.0"
       stroke-linecap="butt"
       d="m535.1096 252.93045l1.6517334 4.538086l1.6517334 -4.538086z"
       fill-rule="evenodd"
       id="path127" />
    <path
       fill="#000000"
       fill-opacity="0.0"
       d="m551.1588 116.52887l0 142.3937"
       fill-rule="evenodd"
       id="path128" />
    <path
       stroke="#000000"
       stroke-width="1.0"
       stroke-linejoin="round"
       stroke-linecap="butt"
       stroke-dasharray="4.0,3.0"
       d="m551.1588 116.52887l0 136.3937"
       fill-rule="evenodd"
       id="path129" />
    <path
       fill="#000000"
       stroke="#000000"
       stroke-width="1.0"
       stroke-linecap="butt"
       d="m549.5071 252.92258l1.6517334 4.538086l1.6517334 -4.538086z"
       fill-rule="evenodd"
       id="path130" />
    <path
       fill="#000000"
       fill-opacity="0.0"
       d="m565.5578 116.52887l0 142.3937"
       fill-rule="evenodd"
       id="path131" />
    <path
       stroke="#000000"
       stroke-width="1.0"
       stroke-linejoin="round"
       stroke-linecap="butt"
       stroke-dasharray="4.0,3.0"
       d="m565.5578 116.52887l0 136.3937"
       fill-rule="evenodd"
       id="path132" />
    <path
       fill="#000000"
       stroke="#000000"
       stroke-width="1.0"
       stroke-linecap="butt"
       d="m563.90607 252.92258l1.6517334 4.538086l1.6517334 -4.538086z"
       fill-rule="evenodd"
       id="path133" />
    <path
       fill="#000000"
       fill-opacity="0.0"
       d="m594.35583 116.52887l0 142.3937"
       fill-rule="evenodd"
       id="path134" />
    <path
       stroke="#000000"
       stroke-width="1.0"
       stroke-linejoin="round"
       stroke-linecap="butt"
       stroke-dasharray="4.0,3.0"
       d="m594.35583 116.52887l0 136.3937"
       fill-rule="evenodd"
       id="path135" />
    <path
       fill="#000000"
       stroke="#000000"
       stroke-width="1.0"
       stroke-linecap="butt"
       d="m592.7041 252.92258l1.6517334 4.538086l1.6517334 -4.538086z"
       fill-rule="evenodd"
       id="path136" />
    <path
       fill="#000000"
       fill-opacity="0.0"
       d="m507.96332 192.31627l0 66.61418"
       fill-rule="evenodd"
       id="path137" />
    <path
       stroke="#000000"
       stroke-width="1.0"
       stroke-linejoin="round"
       stroke-linecap="butt"
       d="m507.96335 192.31627l0 60.61418"
       fill-rule="evenodd"
       id="path138" />
    <path
       fill="#000000"
       stroke="#000000"
       stroke-width="1.0"
       stroke-linecap="butt"
       d="m506.3116 252.93045l1.6517334 4.538086l1.6517334 -4.538086z"
       fill-rule="evenodd"
       id="path139" />
    <path
       fill="#000000"
       fill-opacity="0.0"
       d="m522.36237 192.32414l0 66.61418"
       fill-rule="evenodd"
       id="path140" />
    <path
       stroke="#000000"
       stroke-width="1.0"
       stroke-linejoin="round"
       stroke-linecap="butt"
       d="m522.3623 192.32414l0 60.61418"
       fill-rule="evenodd"
       id="path141" />
    <path
       fill="#000000"
       stroke="#000000"
       stroke-width="1.0"
       stroke-linecap="butt"
       d="m520.7106 252.93832l1.6517334 4.538086l1.6517334 -4.538086z"
       fill-rule="evenodd"
       id="path142" />
    <path
       fill="#000000"
       fill-opacity="0.0"
       d="m579.95685 192.31627l0 66.61418"
       fill-rule="evenodd"
       id="path143" />
    <path
       stroke="#000000"
       stroke-width="1.0"
       stroke-linejoin="round"
       stroke-linecap="butt"
       d="m579.9568 192.31627l0 60.61418"
       fill-rule="evenodd"
       id="path144" />
    <path
       fill="#000000"
       stroke="#000000"
       stroke-width="1.0"
       stroke-linecap="butt"
       d="m578.30505 252.93045l1.6517334 4.538086l1.6517334 -4.538086z"
       fill-rule="evenodd"
       id="path145" />
  </g>
</svg>
