<?xml version="1.0" encoding="UTF-8" standalone="no"?>
<svg
   version="1.1"
   viewBox="0 0 368.86535 309.27366"
   fill="none"
   stroke="none"
   stroke-linecap="square"
   stroke-miterlimit="10"
   id="svg161"
   sodipodi:docname="gpu_overview_high.svg"
   inkscape:version="1.3.2 (091e20ef0f, 2023-11-25)"
   width="368.86536"
   height="309.27365"
   xmlns:inkscape="http://www.inkscape.org/namespaces/inkscape"
   xmlns:sodipodi="http://sodipodi.sourceforge.net/DTD/sodipodi-0.dtd"
   xmlns="http://www.w3.org/2000/svg"
   xmlns:svg="http://www.w3.org/2000/svg">
  <defs
     id="defs161" />
  <sodipodi:namedview
     id="namedview161"
     pagecolor="#ffffff"
     bordercolor="#000000"
     borderopacity="0.25"
     inkscape:showpageshadow="2"
     inkscape:pageopacity="0.0"
     inkscape:pagecheckerboard="0"
     inkscape:deskcolor="#d1d1d1"
     inkscape:zoom="2.0749768"
     inkscape:cx="211.56863"
     inkscape:cy="176.14655"
     inkscape:window-width="1265"
     inkscape:window-height="1391"
     inkscape:window-x="0"
     inkscape:window-y="0"
     inkscape:window-maximized="0"
     inkscape:current-layer="g161" />
  <clipPath
     id="p.0">
    <path
       d="M 0,0 H 723.8635 V 324.06824 H 0 Z"
       clip-rule="nonzero"
       id="path1" />
  </clipPath>
  <g
     clip-path="url(#p.0)"
     id="g161"
     transform="translate(-349.48294,-7.403278)">
    <path
       fill="#c9daf8"
       d="M 350.48294,8.403278 H 504.81366 V 216.59226 H 350.48294 Z"
       fill-rule="evenodd"
       id="path5" />
    <path
       stroke="#000000"
       stroke-width="2"
       stroke-linejoin="round"
       stroke-linecap="butt"
       d="M 350.48294,8.403278 H 504.81366 V 216.59226 H 350.48294 Z"
       fill-rule="evenodd"
       id="path6" />
    <path
       fill="#000000"
       d="m 418.17017,29.371403 v -1.71875 h 3.9375 v 5.890625 q -0.76563,0.359375 -1.59375,0.515625 -0.82813,0.171875 -1.79688,0.171875 -1.15625,0 -2.07812,-0.34375 -0.90625,-0.359375 -1.5625,-1.0625 -0.64063,-0.703125 -0.98438,-1.734375 -0.34375,-1.046875 -0.34375,-2.421875 0,-1.375 0.35938,-2.46875 0.35937,-1.09375 1.04687,-1.84375 0.70313,-0.765625 1.70313,-1.15625 1,-0.40625 2.28125,-0.40625 0.76562,0 1.48437,0.140625 0.73438,0.125 1.45313,0.34375 v 2.0625 q -0.625,-0.296875 -1.39063,-0.484375 -0.75,-0.203125 -1.53125,-0.203125 -0.76562,0 -1.375,0.28125 -0.59375,0.265625 -1,0.765625 -0.39062,0.5 -0.60937,1.234375 -0.20313,0.71875 -0.20313,1.640625 0,0.875 0.15625,1.578125 0.17188,0.703125 0.53125,1.203125 0.35938,0.5 0.92188,0.765625 0.5625,0.25 1.375,0.25 0.20312,0 0.34375,0 0.14062,-0.01563 0.26562,-0.04687 0.14063,-0.03125 0.25,-0.0625 0.10938,-0.03125 0.23438,-0.07813 v -2.8125 z m 13.52707,-2.859375 q 0,0.859375 -0.29688,1.59375 -0.28125,0.71875 -0.84375,1.265625 -0.5625,0.53125 -1.40625,0.828125 -0.84375,0.296875 -1.96875,0.296875 h -1.0625 v 3.546875 h -2.09375 v -11.0625 h 3.23438 q 1.07812,0 1.90625,0.234375 0.82812,0.234375 1.39062,0.6875 0.5625,0.4375 0.84375,1.09375 0.29688,0.65625 0.29688,1.515625 z m -2.17188,0.140625 q 0,-0.4375 -0.14062,-0.796875 -0.14063,-0.359375 -0.4375,-0.609375 -0.28125,-0.265625 -0.71875,-0.390625 -0.42188,-0.140625 -1.01563,-0.140625 h -1.09375 v 4.046875 h 1.17188 q 0.53125,0 0.9375,-0.140625 0.42187,-0.15625 0.70312,-0.4375 0.29688,-0.28125 0.4375,-0.65625 0.15625,-0.390625 0.15625,-0.875 z m 11.68335,3.328125 q 0,1.046875 -0.29687,1.859375 -0.28125,0.796875 -0.8125,1.328125 -0.51563,0.53125 -1.28125,0.796875 -0.76563,0.265625 -1.70313,0.265625 -1.07812,0 -1.84375,-0.265625 -0.75,-0.265625 -1.23437,-0.765625 -0.46875,-0.515625 -0.6875,-1.234375 -0.20313,-0.734375 -0.20313,-1.640625 v -7.34375 h 2.07813 v 7.21875 q 0,0.546875 0.0937,0.984375 0.10937,0.4375 0.34375,0.734375 0.25,0.296875 0.60937,0.453125 0.35938,0.15625 0.90625,0.15625 0.51563,0 0.875,-0.125 0.35938,-0.140625 0.59375,-0.4375 0.23438,-0.296875 0.34375,-0.75 0.125,-0.453125 0.125,-1.109375 v -7.125 h 2.09375 z"
       fill-rule="nonzero"
       id="path7" />
    <path
       fill="#fff2cc"
       d="m 364.16763,76.51486 h 27.52756 v 27.46456 h -27.52756 z"
       fill-rule="evenodd"
       id="path8" />
    <path
       stroke="#000000"
       stroke-width="2"
       stroke-linejoin="round"
       stroke-linecap="butt"
       d="m 364.16763,76.51486 h 27.52756 v 27.46456 h -27.52756 z"
       fill-rule="evenodd"
       id="path9" />
    <path
       fill="#000000"
       d="m 375.71683,96.487144 -0.20312,-6.25 -0.0781,-2.5 -0.53125,1.6875 -1.23437,3.765625 h -1.29688 l -1.10937,-3.765625 -0.46875,-1.6875 -0.0625,2.453125 -0.17188,6.296875 h -1.78125 l 0.54688,-11.0625 h 2.35937 l 0.96875,3.140625 0.46875,1.765625 0.45313,-1.65625 1.03125,-3.25 h 2.39062 l 0.54688,11.0625 z m 11.0271,-7.53125 q 0,0.859375 -0.29687,1.59375 -0.28125,0.71875 -0.84375,1.265625 -0.5625,0.53125 -1.40625,0.828125 -0.84375,0.296875 -1.96875,0.296875 h -1.0625 v 3.546875 h -2.09375 v -11.0625 h 3.23437 q 1.07813,0 1.90625,0.234375 0.82813,0.234375 1.39063,0.6875 0.5625,0.4375 0.84375,1.09375 0.29687,0.65625 0.29687,1.515625 z m -2.17187,0.140625 q 0,-0.4375 -0.14063,-0.796875 -0.14062,-0.359375 -0.4375,-0.609375 -0.28125,-0.265625 -0.71875,-0.390625 -0.42187,-0.140625 -1.01562,-0.140625 h -1.09375 v 4.046875 h 1.17187 q 0.53125,0 0.9375,-0.140625 0.42188,-0.15625 0.70313,-0.4375 0.29687,-0.28125 0.4375,-0.65625 0.15625,-0.390625 0.15625,-0.875 z"
       fill-rule="nonzero"
       id="path10" />
    <path
       fill="#fff2cc"
       d="m 397.30908,76.51486 h 27.52756 v 27.46456 h -27.52756 z"
       fill-rule="evenodd"
       id="path11" />
    <path
       stroke="#000000"
       stroke-width="2"
       stroke-linejoin="round"
       stroke-linecap="butt"
       d="m 397.30908,76.51486 h 27.52756 v 27.46456 h -27.52756 z"
       fill-rule="evenodd"
       id="path12" />
    <path
       fill="#000000"
       d="m 408.85828,96.487144 -0.20313,-6.25 -0.0781,-2.5 -0.53125,1.6875 -1.23438,3.765625 h -1.29687 l -1.10938,-3.765625 -0.46875,-1.6875 -0.0625,2.453125 -0.17187,6.296875 h -1.78125 l 0.54687,-11.0625 h 2.35938 l 0.96875,3.140625 0.46875,1.765625 0.45312,-1.65625 1.03125,-3.25 h 2.39063 l 0.54687,11.0625 z m 11.02707,-7.53125 q 0,0.859375 -0.29688,1.59375 -0.28125,0.71875 -0.84375,1.265625 -0.5625,0.53125 -1.40625,0.828125 -0.84375,0.296875 -1.96875,0.296875 h -1.0625 v 3.546875 h -2.09375 v -11.0625 h 3.23438 q 1.07812,0 1.90625,0.234375 0.82812,0.234375 1.39062,0.6875 0.5625,0.4375 0.84375,1.09375 0.29688,0.65625 0.29688,1.515625 z m -2.17188,0.140625 q 0,-0.4375 -0.14062,-0.796875 -0.14063,-0.359375 -0.4375,-0.609375 -0.28125,-0.265625 -0.71875,-0.390625 -0.42188,-0.140625 -1.01563,-0.140625 h -1.09375 v 4.046875 h 1.17188 q 0.53125,0 0.9375,-0.140625 0.42187,-0.15625 0.70312,-0.4375 0.29688,-0.28125 0.4375,-0.65625 0.15625,-0.390625 0.15625,-0.875 z"
       fill-rule="nonzero"
       id="path13" />
    <path
       fill="#c9daf8"
       d="M 364.16364,42.417805 H 491.12427 V 69.88237 H 364.16364 Z"
       fill-rule="evenodd"
       id="path16" />
    <path
       stroke="#000000"
       stroke-width="2"
       stroke-linejoin="round"
       stroke-linecap="butt"
       stroke-dasharray="8, 6"
       d="M 364.16364,42.417805 H 491.12427 V 69.88237 H 364.16364 Z"
       fill-rule="evenodd"
       id="path17" />
    <path
       fill="#000000"
       d="m 391.2075,62.390087 v -11.0625 h 2.10937 v 9.28125 h 4.67188 v 1.78125 z m 8.94894,0 v -1.515625 l 2.60938,-2.625 q 0.73437,-0.734375 1.17187,-1.265625 0.45313,-0.53125 0.6875,-0.953125 0.25,-0.421875 0.32813,-0.765625 0.0781,-0.359375 0.0781,-0.75 0,-0.3125 -0.10937,-0.59375 -0.0937,-0.28125 -0.29688,-0.484375 -0.1875,-0.203125 -0.48437,-0.328125 -0.29688,-0.125 -0.67188,-0.125 -0.65625,0 -1.21875,0.28125 -0.5625,0.28125 -1.0625,0.75 l -1.07812,-1.390625 q 0.71875,-0.671875 1.60937,-1.078125 0.90625,-0.40625 1.95313,-0.40625 0.8125,0 1.46875,0.21875 0.67187,0.203125 1.14062,0.609375 0.46875,0.40625 0.71875,1.015625 0.26563,0.609375 0.26563,1.40625 0,0.65625 -0.1875,1.234375 -0.17188,0.5625 -0.51563,1.109375 -0.32812,0.53125 -0.82812,1.078125 -0.5,0.546875 -1.125,1.140625 l -1.60938,1.53125 h 4.65625 v 1.90625 z m 26.46042,-0.4375 q -0.73437,0.296875 -1.4375,0.4375 -0.6875,0.15625 -1.42187,0.15625 -1.20313,0 -2.125,-0.34375 -0.90625,-0.359375 -1.54688,-1.046875 -0.625,-0.703125 -0.95312,-1.734375 -0.32813,-1.03125 -0.32813,-2.390625 0,-1.390625 0.35938,-2.46875 0.35937,-1.09375 1.01562,-1.84375 0.65625,-0.75 1.59375,-1.140625 0.95313,-0.390625 2.125,-0.390625 0.39063,0 0.71875,0.01563 0.34375,0.01563 0.65625,0.0625 0.32813,0.04687 0.65625,0.125 0.32813,0.0625 0.6875,0.1875 v 2.0625 q -0.71875,-0.34375 -1.375,-0.484375 -0.65625,-0.140625 -1.1875,-0.140625 -0.78125,0 -1.34375,0.28125 -0.5625,0.28125 -0.92187,0.796875 -0.35938,0.515625 -0.53125,1.21875 -0.15625,0.703125 -0.15625,1.546875 0,0.90625 0.17187,1.609375 0.17188,0.703125 0.53125,1.203125 0.35938,0.484375 0.92188,0.75 0.57812,0.25 1.35937,0.25 0.28125,0 0.59375,-0.04687 0.32813,-0.0625 0.65625,-0.140625 0.34375,-0.09375 0.67188,-0.21875 0.32812,-0.125 0.60937,-0.25 z m 8.2146,0.4375 -0.60937,-2.1875 h -3.85938 l -0.625,2.1875 h -2.0625 l 3.28125,-11.0625 h 2.90625 l 3.28125,11.0625 z m -2.51562,-9.03125 -1.45313,5.140625 h 2.90625 z m 13.35519,8.59375 q -0.73437,0.296875 -1.4375,0.4375 -0.6875,0.15625 -1.42187,0.15625 -1.20313,0 -2.125,-0.34375 -0.90625,-0.359375 -1.54688,-1.046875 -0.625,-0.703125 -0.95312,-1.734375 -0.32813,-1.03125 -0.32813,-2.390625 0,-1.390625 0.35938,-2.46875 0.35937,-1.09375 1.01562,-1.84375 0.65625,-0.75 1.59375,-1.140625 0.95313,-0.390625 2.125,-0.390625 0.39063,0 0.71875,0.01563 0.34375,0.01563 0.65625,0.0625 0.32813,0.04687 0.65625,0.125 0.32813,0.0625 0.6875,0.1875 v 2.0625 q -0.71875,-0.34375 -1.375,-0.484375 -0.65625,-0.140625 -1.1875,-0.140625 -0.78125,0 -1.34375,0.28125 -0.5625,0.28125 -0.92187,0.796875 -0.35938,0.515625 -0.53125,1.21875 -0.15625,0.703125 -0.15625,1.546875 0,0.90625 0.17187,1.609375 0.17188,0.703125 0.53125,1.203125 0.35938,0.484375 0.92188,0.75 0.57812,0.25 1.35937,0.25 0.28125,0 0.59375,-0.04687 0.32813,-0.0625 0.65625,-0.140625 0.34375,-0.09375 0.67188,-0.21875 0.32812,-0.125 0.60937,-0.25 z m 7.66773,0.4375 v -4.8125 h -3.75 v 4.8125 h -2.09375 v -11.0625 h 2.09375 v 4.453125 h 3.75 v -4.453125 h 2.07812 v 11.0625 z m 4.44894,0 v -11.0625 h 6.65625 v 1.765625 h -4.54687 v 2.75 h 4.32812 v 1.71875 h -4.32812 v 3.0625 h 4.54687 v 1.765625 z"
       fill-rule="nonzero"
       id="path18" />
    <path
       fill="#c9daf8"
       d="m 350.48294,226.25963 h 154.33072 v 89.41731 H 350.48294 Z"
       fill-rule="evenodd"
       id="path19" />
    <path
       stroke="#000000"
       stroke-width="2"
       stroke-linejoin="round"
       stroke-linecap="butt"
       stroke-dasharray="8, 6"
       d="m 350.48294,226.25963 h 154.33072 v 89.41731 H 350.48294 Z"
       fill-rule="evenodd"
       id="path20" />
    <path
       fill="#000000"
       d="m 370.53473,272.5364 v -1.71875 h 3.9375 v 5.89063 q -0.76562,0.35937 -1.59375,0.51562 -0.82812,0.17188 -1.79687,0.17188 -1.15625,0 -2.07813,-0.34375 -0.90625,-0.35938 -1.5625,-1.0625 -0.64062,-0.70313 -0.98437,-1.73438 -0.34375,-1.04687 -0.34375,-2.42187 0,-1.375 0.35937,-2.46875 0.35938,-1.09375 1.04688,-1.84375 0.70312,-0.76563 1.70312,-1.15625 1,-0.40625 2.28125,-0.40625 0.76563,0 1.48438,0.14062 0.73437,0.125 1.45312,0.34375 v 2.0625 q -0.625,-0.29687 -1.39062,-0.48437 -0.75,-0.20313 -1.53125,-0.20313 -0.76563,0 -1.375,0.28125 -0.59375,0.26563 -1,0.76563 -0.39063,0.5 -0.60938,1.23437 -0.20312,0.71875 -0.20312,1.64063 0,0.875 0.15625,1.57812 0.17187,0.70313 0.53125,1.20313 0.35937,0.5 0.92187,0.76562 0.5625,0.25 1.375,0.25 0.20313,0 0.34375,0 0.14063,-0.0156 0.26563,-0.0469 0.14062,-0.0312 0.25,-0.0625 0.10937,-0.0312 0.23437,-0.0781 v -2.8125 z m 6.38647,4.67188 v -11.0625 h 2.10938 v 9.28125 h 4.67187 v 1.78125 z m 17.07395,-5.57813 q 0,1.51563 -0.35938,2.60938 -0.34375,1.07812 -0.96875,1.78125 -0.60937,0.70312 -1.4375,1.04687 -0.8125,0.32813 -1.75,0.32813 -2.1875,0 -3.29687,-1.4375 -1.09375,-1.45313 -1.09375,-4.21875 0,-1.51563 0.34375,-2.59375 0.35937,-1.09375 0.96875,-1.79688 0.60937,-0.70312 1.4375,-1.04687 0.82812,-0.34375 1.76562,-0.34375 2.1875,0 3.28125,1.45312 1.10938,1.45313 1.10938,4.21875 z m -2.20313,0.10938 q 0,-1.96875 -0.53125,-2.92188 -0.51562,-0.96875 -1.71875,-0.96875 -0.60937,0 -1.03125,0.25 -0.42187,0.25 -0.70312,0.73438 -0.26563,0.46875 -0.39063,1.1875 -0.125,0.70312 -0.125,1.60937 0,1.96875 0.53125,2.9375 0.53125,0.95313 1.71875,0.95313 0.59375,0 1.01563,-0.25 0.4375,-0.25 0.70312,-0.71875 0.28125,-0.48438 0.40625,-1.1875 0.125,-0.71875 0.125,-1.625 z m 3.60523,5.46875 v -11.0625 h 3.5625 q 1.89062,0 2.82812,0.67187 0.95313,0.65625 0.95313,1.98438 0,0.42187 -0.10938,0.8125 -0.0937,0.39062 -0.29687,0.71875 -0.20313,0.32812 -0.51563,0.59375 -0.29687,0.25 -0.70312,0.39062 0.40625,0.0625 0.78125,0.26563 0.39062,0.20312 0.67187,0.53125 0.28125,0.3125 0.4375,0.75 0.17188,0.42187 0.17188,0.95312 0,1.6875 -1.14063,2.54688 -1.125,0.84375 -3.26562,0.84375 z m 5.17187,-8.03125 q 0,-0.3125 -0.10937,-0.5625 -0.0937,-0.26563 -0.3125,-0.4375 -0.21875,-0.1875 -0.57813,-0.28125 -0.34375,-0.0937 -0.84375,-0.0937 h -1.26562 v 2.92187 h 1.26562 q 0.5,0 0.84375,-0.10937 0.35938,-0.125 0.57813,-0.34375 0.23437,-0.21875 0.32812,-0.5 0.0937,-0.28125 0.0937,-0.59375 z m -1.65625,6.32812 q 0.5,0 0.875,-0.125 0.375,-0.125 0.625,-0.34375 0.26563,-0.23437 0.39063,-0.53125 0.14062,-0.3125 0.14062,-0.65625 0,-0.71875 -0.54687,-1.125 -0.53125,-0.40625 -1.64063,-0.40625 h -1.29687 v 3.1875 z m 12.1052,1.70313 -0.60938,-2.1875 h -3.85937 l -0.625,2.1875 h -2.0625 l 3.28125,-11.0625 h 2.90625 l 3.28125,11.0625 z m -2.51563,-9.03125 -1.45312,5.14062 h 2.90625 z m 6.5271,9.03125 v -11.0625 h 2.10938 v 9.28125 h 4.67187 v 1.78125 z m 24.6948,0 -0.20313,-6.25 -0.0781,-2.5 -0.53125,1.6875 -1.23438,3.76562 h -1.29687 l -1.10938,-3.76562 -0.46875,-1.6875 -0.0625,2.45312 -0.17187,6.29688 h -1.78125 l 0.54687,-11.0625 h 2.35938 l 0.96875,3.14062 0.46875,1.76563 0.45312,-1.65625 1.03125,-3.25 h 2.39063 l 0.54687,11.0625 z m 3.77706,0 v -11.0625 h 6.65625 v 1.76562 h -4.54687 v 2.75 h 4.32812 v 1.71875 h -4.32812 v 3.0625 h 4.54687 v 1.76563 z m 15.2771,0 -0.20312,-6.25 -0.0781,-2.5 -0.53125,1.6875 -1.23437,3.76562 h -1.29688 l -1.10937,-3.76562 -0.46875,-1.6875 -0.0625,2.45312 -0.17188,6.29688 H 451.841 l 0.54688,-11.0625 h 2.35937 l 0.96875,3.14062 0.46875,1.76563 0.45313,-1.65625 1.03125,-3.25 h 2.39062 l 0.54688,11.0625 z m 11.43332,-5.57813 q 0,1.51563 -0.35937,2.60938 -0.34375,1.07812 -0.96875,1.78125 -0.60938,0.70312 -1.4375,1.04687 -0.8125,0.32813 -1.75,0.32813 -2.1875,0 -3.29688,-1.4375 -1.09375,-1.45313 -1.09375,-4.21875 0,-1.51563 0.34375,-2.59375 0.35938,-1.09375 0.96875,-1.79688 0.60938,-0.70312 1.4375,-1.04687 0.82813,-0.34375 1.76563,-0.34375 2.1875,0 3.28125,1.45312 1.10937,1.45313 1.10937,4.21875 z m -2.20312,0.10938 q 0,-1.96875 -0.53125,-2.92188 -0.51563,-0.96875 -1.71875,-0.96875 -0.60938,0 -1.03125,0.25 -0.42188,0.25 -0.70313,0.73438 -0.26562,0.46875 -0.39062,1.1875 -0.125,0.70312 -0.125,1.60937 0,1.96875 0.53125,2.9375 0.53125,0.95313 1.71875,0.95313 0.59375,0 1.01562,-0.25 0.4375,-0.25 0.70313,-0.71875 0.28125,-0.48438 0.40625,-1.1875 0.125,-0.71875 0.125,-1.625 z m 9.18335,5.46875 -1.5625,-3.54688 q -0.21875,-0.51562 -0.60938,-0.76562 -0.39062,-0.26563 -0.92187,-0.26563 h -0.40625 v 4.57813 h -2.07813 v -11.0625 h 3.21875 q 0.92188,0 1.65625,0.15625 0.75,0.15625 1.26563,0.53125 0.53125,0.35937 0.8125,0.95312 0.28125,0.57813 0.28125,1.42188 0,0.60937 -0.17188,1.07812 -0.17187,0.46875 -0.5,0.8125 -0.32812,0.34375 -0.76562,0.5625 -0.4375,0.20313 -0.96875,0.29688 0.40625,0.0781 0.73437,0.45312 0.34375,0.375 0.6875,1.09375 l 1.76563,3.70313 z m -0.51563,-7.79688 q 0,-0.8125 -0.51562,-1.17187 -0.51563,-0.35938 -1.54688,-0.35938 h -0.92187 v 3.125 h 0.84375 q 0.48437,0 0.875,-0.0937 0.39062,-0.10937 0.67187,-0.3125 0.28125,-0.20312 0.4375,-0.5 0.15625,-0.29687 0.15625,-0.6875 z m 9.1677,3.875 v 3.92188 h -2.10938 v -3.90625 l -3.60937,-7.15625 h 2.3125 l 1.625,3.42187 0.75,1.67188 0.75,-1.71875 1.6875,-3.375 h 2.21875 z"
       fill-rule="nonzero"
       id="path21" />
    <path
       fill="#fff2cc"
       d="m 364.16763,110.61168 h 27.52756 v 27.46457 h -27.52756 z"
       fill-rule="evenodd"
       id="path84" />
    <path
       stroke="#000000"
       stroke-width="2"
       stroke-linejoin="round"
       stroke-linecap="butt"
       d="m 364.16763,110.61168 h 27.52756 v 27.46457 h -27.52756 z"
       fill-rule="evenodd"
       id="path85" />
    <path
       fill="#000000"
       d="m 375.71683,130.58397 -0.20312,-6.25001 -0.0781,-2.5 -0.53125,1.6875 -1.23437,3.76563 h -1.29688 l -1.10937,-3.76563 -0.46875,-1.6875 -0.0625,2.45313 -0.17188,6.29688 h -1.78125 l 0.54688,-11.06251 h 2.35937 l 0.96875,3.14063 0.46875,1.76562 0.45313,-1.65625 1.03125,-3.25 h 2.39062 l 0.54688,11.06251 z m 11.0271,-7.53126 q 0,0.85938 -0.29687,1.59375 -0.28125,0.71875 -0.84375,1.26563 -0.5625,0.53125 -1.40625,0.82812 -0.84375,0.29688 -1.96875,0.29688 h -1.0625 v 3.54688 h -2.09375 v -11.06251 h 3.23437 q 1.07813,0 1.90625,0.23438 0.82813,0.23437 1.39063,0.6875 0.5625,0.4375 0.84375,1.09375 0.29687,0.65625 0.29687,1.51562 z m -2.17187,0.14063 q 0,-0.4375 -0.14063,-0.79688 -0.14062,-0.35937 -0.4375,-0.60937 -0.28125,-0.26563 -0.71875,-0.39063 -0.42187,-0.14062 -1.01562,-0.14062 h -1.09375 v 4.04687 h 1.17187 q 0.53125,0 0.9375,-0.14062 0.42188,-0.15625 0.70313,-0.4375 0.29687,-0.28125 0.4375,-0.65625 0.15625,-0.39063 0.15625,-0.875 z"
       fill-rule="nonzero"
       id="path86" />
    <path
       fill="#fff2cc"
       d="m 397.3082,110.61168 h 27.52756 v 27.46457 H 397.3082 Z"
       fill-rule="evenodd"
       id="path87" />
    <path
       stroke="#000000"
       stroke-width="2"
       stroke-linejoin="round"
       stroke-linecap="butt"
       d="m 397.3082,110.61168 h 27.52756 v 27.46457 H 397.3082 Z"
       fill-rule="evenodd"
       id="path88" />
    <path
       fill="#000000"
       d="m 408.8574,130.58397 -0.20313,-6.25001 -0.0781,-2.5 -0.53125,1.6875 -1.23438,3.76563 h -1.29687 l -1.10938,-3.76563 -0.46875,-1.6875 -0.0625,2.45313 -0.17187,6.29688 h -1.78125 l 0.54687,-11.06251 h 2.35938 l 0.96875,3.14063 0.46875,1.76562 0.45312,-1.65625 1.03125,-3.25 h 2.39063 l 0.54687,11.06251 z m 11.02707,-7.53126 q 0,0.85938 -0.29688,1.59375 -0.28125,0.71875 -0.84375,1.26563 -0.5625,0.53125 -1.40625,0.82812 -0.84375,0.29688 -1.96875,0.29688 h -1.0625 v 3.54688 h -2.09375 v -11.06251 h 3.23438 q 1.07812,0 1.90625,0.23438 0.82812,0.23437 1.39062,0.6875 0.5625,0.4375 0.84375,1.09375 0.29688,0.65625 0.29688,1.51562 z m -2.17188,0.14063 q 0,-0.4375 -0.14062,-0.79688 -0.14063,-0.35937 -0.4375,-0.60937 -0.28125,-0.26563 -0.71875,-0.39063 -0.42188,-0.14062 -1.01563,-0.14062 h -1.09375 v 4.04687 h 1.17188 q 0.53125,0 0.9375,-0.14062 0.42187,-0.15625 0.70312,-0.4375 0.29688,-0.28125 0.4375,-0.65625 0.15625,-0.39063 0.15625,-0.875 z"
       fill-rule="nonzero"
       id="path89" />
    <path
       fill="#fff2cc"
       d="m 430.45227,76.51486 h 27.52756 v 27.46456 h -27.52756 z"
       fill-rule="evenodd"
       id="path90" />
    <path
       stroke="#000000"
       stroke-width="2"
       stroke-linejoin="round"
       stroke-linecap="butt"
       d="m 430.45227,76.51486 h 27.52756 v 27.46456 h -27.52756 z"
       fill-rule="evenodd"
       id="path91" />
    <path
       fill="#000000"
       d="m 442.00146,96.487144 -0.20313,-6.25 -0.0781,-2.5 -0.53125,1.6875 -1.23438,3.765625 h -1.29687 l -1.10938,-3.765625 -0.46875,-1.6875 -0.0625,2.453125 -0.17187,6.296875 h -1.78125 l 0.54687,-11.0625 h 2.35938 l 0.96875,3.140625 0.46875,1.765625 0.45312,-1.65625 1.03125,-3.25 h 2.39063 l 0.54687,11.0625 z m 11.0271,-7.53125 q 0,0.859375 -0.29687,1.59375 -0.28125,0.71875 -0.84375,1.265625 -0.5625,0.53125 -1.40625,0.828125 -0.84375,0.296875 -1.96875,0.296875 h -1.0625 v 3.546875 h -2.09375 v -11.0625 h 3.23437 q 1.07813,0 1.90625,0.234375 0.82813,0.234375 1.39063,0.6875 0.5625,0.4375 0.84375,1.09375 0.29687,0.65625 0.29687,1.515625 z m -2.17187,0.140625 q 0,-0.4375 -0.14063,-0.796875 -0.14062,-0.359375 -0.4375,-0.609375 -0.28125,-0.265625 -0.71875,-0.390625 -0.42187,-0.140625 -1.01562,-0.140625 h -1.09375 v 4.046875 h 1.17187 q 0.53125,0 0.9375,-0.140625 0.42188,-0.15625 0.70313,-0.4375 0.29687,-0.28125 0.4375,-0.65625 0.15625,-0.390625 0.15625,-0.875 z"
       fill-rule="nonzero"
       id="path92" />
    <path
       fill="#fff2cc"
       d="m 463.59372,76.51486 h 27.52756 v 27.46456 h -27.52756 z"
       fill-rule="evenodd"
       id="path93" />
    <path
       stroke="#000000"
       stroke-width="2"
       stroke-linejoin="round"
       stroke-linecap="butt"
       d="m 463.59372,76.51486 h 27.52756 v 27.46456 h -27.52756 z"
       fill-rule="evenodd"
       id="path94" />
    <path
       fill="#000000"
       d="m 475.1429,96.487144 -0.20313,-6.25 -0.0781,-2.5 -0.53125,1.6875 -1.23438,3.765625 h -1.29687 l -1.10938,-3.765625 -0.46875,-1.6875 -0.0625,2.453125 -0.17187,6.296875 h -1.78125 l 0.54687,-11.0625 h 2.35938 l 0.96875,3.140625 0.46875,1.765625 0.45312,-1.65625 1.03125,-3.25 h 2.39063 l 0.54687,11.0625 z m 11.02707,-7.53125 q 0,0.859375 -0.29688,1.59375 -0.28125,0.71875 -0.84375,1.265625 -0.5625,0.53125 -1.40625,0.828125 -0.84375,0.296875 -1.96875,0.296875 h -1.0625 v 3.546875 h -2.09375 v -11.0625 h 3.23438 q 1.07812,0 1.90625,0.234375 0.82812,0.234375 1.39062,0.6875 0.5625,0.4375 0.84375,1.09375 0.29688,0.65625 0.29688,1.515625 z m -2.17188,0.140625 q 0,-0.4375 -0.14062,-0.796875 -0.14063,-0.359375 -0.4375,-0.609375 -0.28125,-0.265625 -0.71875,-0.390625 -0.42188,-0.140625 -1.01563,-0.140625 h -1.09375 v 4.046875 h 1.17188 q 0.53125,0 0.9375,-0.140625 0.42187,-0.15625 0.70312,-0.4375 0.29688,-0.28125 0.4375,-0.65625 0.15625,-0.390625 0.15625,-0.875 z"
       fill-rule="nonzero"
       id="path95" />
    <path
       fill="#fff2cc"
       d="m 430.45227,110.61168 h 27.52756 v 27.46457 h -27.52756 z"
       fill-rule="evenodd"
       id="path96" />
    <path
       stroke="#000000"
       stroke-width="2"
       stroke-linejoin="round"
       stroke-linecap="butt"
       d="m 430.45227,110.61168 h 27.52756 v 27.46457 h -27.52756 z"
       fill-rule="evenodd"
       id="path97" />
    <path
       fill="#000000"
       d="m 442.00146,130.58397 -0.20313,-6.25001 -0.0781,-2.5 -0.53125,1.6875 -1.23438,3.76563 h -1.29687 l -1.10938,-3.76563 -0.46875,-1.6875 -0.0625,2.45313 -0.17187,6.29688 h -1.78125 l 0.54687,-11.06251 h 2.35938 l 0.96875,3.14063 0.46875,1.76562 0.45312,-1.65625 1.03125,-3.25 h 2.39063 l 0.54687,11.06251 z m 11.0271,-7.53126 q 0,0.85938 -0.29687,1.59375 -0.28125,0.71875 -0.84375,1.26563 -0.5625,0.53125 -1.40625,0.82812 -0.84375,0.29688 -1.96875,0.29688 h -1.0625 v 3.54688 h -2.09375 v -11.06251 h 3.23437 q 1.07813,0 1.90625,0.23438 0.82813,0.23437 1.39063,0.6875 0.5625,0.4375 0.84375,1.09375 0.29687,0.65625 0.29687,1.51562 z m -2.17187,0.14063 q 0,-0.4375 -0.14063,-0.79688 -0.14062,-0.35937 -0.4375,-0.60937 -0.28125,-0.26563 -0.71875,-0.39063 -0.42187,-0.14062 -1.01562,-0.14062 h -1.09375 v 4.04687 h 1.17187 q 0.53125,0 0.9375,-0.14062 0.42188,-0.15625 0.70313,-0.4375 0.29687,-0.28125 0.4375,-0.65625 0.15625,-0.39063 0.15625,-0.875 z"
       fill-rule="nonzero"
       id="path98" />
    <path
       fill="#fff2cc"
       d="m 463.59283,110.61168 h 27.52756 v 27.46457 h -27.52756 z"
       fill-rule="evenodd"
       id="path99" />
    <path
       stroke="#000000"
       stroke-width="2"
       stroke-linejoin="round"
       stroke-linecap="butt"
       d="m 463.59283,110.61168 h 27.52756 v 27.46457 h -27.52756 z"
       fill-rule="evenodd"
       id="path100" />
    <path
       fill="#000000"
       d="m 475.14203,130.58397 -0.20313,-6.25001 -0.0781,-2.5 -0.53125,1.6875 -1.23438,3.76563 h -1.29687 l -1.10938,-3.76563 -0.46875,-1.6875 -0.0625,2.45313 -0.17187,6.29688 h -1.78125 l 0.54687,-11.06251 h 2.35938 l 0.96875,3.14063 0.46875,1.76562 0.45312,-1.65625 1.03125,-3.25 h 2.39063 l 0.54687,11.06251 z m 11.02707,-7.53126 q 0,0.85938 -0.29688,1.59375 -0.28125,0.71875 -0.84375,1.26563 -0.5625,0.53125 -1.40625,0.82812 -0.84375,0.29688 -1.96875,0.29688 h -1.0625 v 3.54688 h -2.09375 v -11.06251 h 3.23438 q 1.07812,0 1.90625,0.23438 0.82812,0.23437 1.39062,0.6875 0.5625,0.4375 0.84375,1.09375 0.29688,0.65625 0.29688,1.51562 z m -2.17188,0.14063 q 0,-0.4375 -0.14062,-0.79688 -0.14063,-0.35937 -0.4375,-0.60937 -0.28125,-0.26563 -0.71875,-0.39063 -0.42188,-0.14062 -1.01563,-0.14062 h -1.09375 v 4.04687 h 1.17188 q 0.53125,0 0.9375,-0.14062 0.42187,-0.15625 0.70312,-0.4375 0.29688,-0.28125 0.4375,-0.65625 0.15625,-0.39063 0.15625,-0.875 z"
       fill-rule="nonzero"
       id="path101" />
    <path
       fill="#fff2cc"
       d="m 364.16675,144.7085 h 27.52756 v 27.46457 h -27.52756 z"
       fill-rule="evenodd"
       id="path102" />
    <path
       stroke="#000000"
       stroke-width="2"
       stroke-linejoin="round"
       stroke-linecap="butt"
       d="m 364.16675,144.7085 h 27.52756 v 27.46457 h -27.52756 z"
       fill-rule="evenodd"
       id="path103" />
    <path
       fill="#000000"
       d="m 375.71594,164.68079 -0.20313,-6.25 -0.0781,-2.5 -0.53125,1.6875 -1.23438,3.76562 h -1.29687 l -1.10938,-3.76562 -0.46875,-1.6875 -0.0625,2.45312 -0.17187,6.29688 h -1.78125 l 0.54687,-11.0625 h 2.35938 l 0.96875,3.14062 0.46875,1.76563 0.45312,-1.65625 1.03125,-3.25 h 2.39063 l 0.54687,11.0625 z m 11.0271,-7.53125 q 0,0.85937 -0.29688,1.59375 -0.28125,0.71875 -0.84375,1.26562 -0.5625,0.53125 -1.40625,0.82813 -0.84375,0.29687 -1.96875,0.29687 h -1.0625 v 3.54688 h -2.09375 v -11.0625 h 3.23438 q 1.07812,0 1.90625,0.23437 0.82812,0.23438 1.39062,0.6875 0.5625,0.4375 0.84375,1.09375 0.29688,0.65625 0.29688,1.51563 z m -2.17188,0.14062 q 0,-0.4375 -0.14062,-0.79687 -0.14063,-0.35938 -0.4375,-0.60938 -0.28125,-0.26562 -0.71875,-0.39062 -0.42188,-0.14063 -1.01563,-0.14063 h -1.09375 v 4.04688 h 1.17188 q 0.53125,0 0.9375,-0.14063 0.42187,-0.15625 0.70312,-0.4375 0.29688,-0.28125 0.4375,-0.65625 0.15625,-0.39062 0.15625,-0.875 z"
       fill-rule="nonzero"
       id="path104" />
    <path
       fill="#fff2cc"
       d="m 397.3082,144.7085 h 27.52756 v 27.46457 H 397.3082 Z"
       fill-rule="evenodd"
       id="path105" />
    <path
       stroke="#000000"
       stroke-width="2"
       stroke-linejoin="round"
       stroke-linecap="butt"
       d="m 397.3082,144.7085 h 27.52756 v 27.46457 H 397.3082 Z"
       fill-rule="evenodd"
       id="path106" />
    <path
       fill="#000000"
       d="m 408.8574,164.68079 -0.20313,-6.25 -0.0781,-2.5 -0.53125,1.6875 -1.23438,3.76562 h -1.29687 l -1.10938,-3.76562 -0.46875,-1.6875 -0.0625,2.45312 -0.17187,6.29688 h -1.78125 l 0.54687,-11.0625 h 2.35938 l 0.96875,3.14062 0.46875,1.76563 0.45312,-1.65625 1.03125,-3.25 h 2.39063 l 0.54687,11.0625 z m 11.02707,-7.53125 q 0,0.85937 -0.29688,1.59375 -0.28125,0.71875 -0.84375,1.26562 -0.5625,0.53125 -1.40625,0.82813 -0.84375,0.29687 -1.96875,0.29687 h -1.0625 v 3.54688 h -2.09375 v -11.0625 h 3.23438 q 1.07812,0 1.90625,0.23437 0.82812,0.23438 1.39062,0.6875 0.5625,0.4375 0.84375,1.09375 0.29688,0.65625 0.29688,1.51563 z m -2.17188,0.14062 q 0,-0.4375 -0.14062,-0.79687 -0.14063,-0.35938 -0.4375,-0.60938 -0.28125,-0.26562 -0.71875,-0.39062 -0.42188,-0.14063 -1.01563,-0.14063 h -1.09375 v 4.04688 h 1.17188 q 0.53125,0 0.9375,-0.14063 0.42187,-0.15625 0.70312,-0.4375 0.29688,-0.28125 0.4375,-0.65625 0.15625,-0.39062 0.15625,-0.875 z"
       fill-rule="nonzero"
       id="path107" />
    <path
       fill="#fff2cc"
       d="m 364.16675,178.80531 h 27.52756 v 27.46457 h -27.52756 z"
       fill-rule="evenodd"
       id="path108" />
    <path
       stroke="#000000"
       stroke-width="2"
       stroke-linejoin="round"
       stroke-linecap="butt"
       d="m 364.16675,178.80531 h 27.52756 v 27.46457 h -27.52756 z"
       fill-rule="evenodd"
       id="path109" />
    <path
       fill="#000000"
       d="m 375.71594,198.7776 -0.20313,-6.25 -0.0781,-2.5 -0.53125,1.6875 -1.23438,3.76562 h -1.29687 l -1.10938,-3.76562 -0.46875,-1.6875 -0.0625,2.45312 -0.17187,6.29688 h -1.78125 l 0.54687,-11.0625 h 2.35938 l 0.96875,3.14062 0.46875,1.76563 0.45312,-1.65625 1.03125,-3.25 h 2.39063 l 0.54687,11.0625 z m 11.0271,-7.53125 q 0,0.85937 -0.29688,1.59375 -0.28125,0.71875 -0.84375,1.26562 -0.5625,0.53125 -1.40625,0.82813 -0.84375,0.29687 -1.96875,0.29687 h -1.0625 v 3.54688 h -2.09375 v -11.0625 h 3.23438 q 1.07812,0 1.90625,0.23437 0.82812,0.23438 1.39062,0.6875 0.5625,0.4375 0.84375,1.09375 0.29688,0.65625 0.29688,1.51563 z m -2.17188,0.14062 q 0,-0.4375 -0.14062,-0.79687 -0.14063,-0.35938 -0.4375,-0.60938 -0.28125,-0.26562 -0.71875,-0.39062 -0.42188,-0.14063 -1.01563,-0.14063 h -1.09375 v 4.04688 h 1.17188 q 0.53125,0 0.9375,-0.14063 0.42187,-0.15625 0.70312,-0.4375 0.29688,-0.28125 0.4375,-0.65625 0.15625,-0.39062 0.15625,-0.875 z"
       fill-rule="nonzero"
       id="path110" />
    <path
       fill="#fff2cc"
       d="m 397.3073,178.80531 h 27.52756 v 27.46457 H 397.3073 Z"
       fill-rule="evenodd"
       id="path111" />
    <path
       stroke="#000000"
       stroke-width="2"
       stroke-linejoin="round"
       stroke-linecap="butt"
       d="m 397.3073,178.80531 h 27.52756 v 27.46457 H 397.3073 Z"
       fill-rule="evenodd"
       id="path112" />
    <path
       fill="#000000"
       d="m 408.8565,198.7776 -0.20313,-6.25 -0.0781,-2.5 -0.53125,1.6875 -1.23438,3.76562 h -1.29687 l -1.10938,-3.76562 -0.46875,-1.6875 -0.0625,2.45312 -0.17187,6.29688 H 401.919 l 0.54687,-11.0625 h 2.35938 l 0.96875,3.14062 0.46875,1.76563 0.45312,-1.65625 1.03125,-3.25 h 2.39063 l 0.54687,11.0625 z m 11.02707,-7.53125 q 0,0.85937 -0.29688,1.59375 -0.28125,0.71875 -0.84375,1.26562 -0.5625,0.53125 -1.40625,0.82813 -0.84375,0.29687 -1.96875,0.29687 h -1.0625 v 3.54688 h -2.09375 v -11.0625 h 3.23438 q 1.07812,0 1.90625,0.23437 0.82812,0.23438 1.39062,0.6875 0.5625,0.4375 0.84375,1.09375 0.29688,0.65625 0.29688,1.51563 z m -2.17188,0.14062 q 0,-0.4375 -0.14062,-0.79687 -0.14063,-0.35938 -0.4375,-0.60938 -0.28125,-0.26562 -0.71875,-0.39062 -0.42188,-0.14063 -1.01563,-0.14063 h -1.09375 v 4.04688 h 1.17188 q 0.53125,0 0.9375,-0.14063 0.42187,-0.15625 0.70312,-0.4375 0.29688,-0.28125 0.4375,-0.65625 0.15625,-0.39062 0.15625,-0.875 z"
       fill-rule="nonzero"
       id="path113" />
    <path
       fill="#fff2cc"
       d="m 430.4514,144.7085 h 27.52756 v 27.46457 H 430.4514 Z"
       fill-rule="evenodd"
       id="path114" />
    <path
       stroke="#000000"
       stroke-width="2"
       stroke-linejoin="round"
       stroke-linecap="butt"
       d="m 430.4514,144.7085 h 27.52756 v 27.46457 H 430.4514 Z"
       fill-rule="evenodd"
       id="path115" />
    <path
       fill="#000000"
       d="m 442.00058,164.68079 -0.20312,-6.25 -0.0781,-2.5 -0.53125,1.6875 -1.23437,3.76562 h -1.29688 l -1.10937,-3.76562 -0.46875,-1.6875 -0.0625,2.45312 -0.17188,6.29688 h -1.78125 l 0.54688,-11.0625 h 2.35937 l 0.96875,3.14062 0.46875,1.76563 0.45313,-1.65625 1.03125,-3.25 h 2.39062 l 0.54688,11.0625 z m 11.0271,-7.53125 q 0,0.85937 -0.29687,1.59375 -0.28125,0.71875 -0.84375,1.26562 -0.5625,0.53125 -1.40625,0.82813 -0.84375,0.29687 -1.96875,0.29687 h -1.0625 v 3.54688 h -2.09375 v -11.0625 h 3.23437 q 1.07813,0 1.90625,0.23437 0.82813,0.23438 1.39063,0.6875 0.5625,0.4375 0.84375,1.09375 0.29687,0.65625 0.29687,1.51563 z m -2.17187,0.14062 q 0,-0.4375 -0.14063,-0.79687 -0.14062,-0.35938 -0.4375,-0.60938 -0.28125,-0.26562 -0.71875,-0.39062 -0.42187,-0.14063 -1.01562,-0.14063 h -1.09375 v 4.04688 h 1.17187 q 0.53125,0 0.9375,-0.14063 0.42188,-0.15625 0.70313,-0.4375 0.29687,-0.28125 0.4375,-0.65625 0.15625,-0.39062 0.15625,-0.875 z"
       fill-rule="nonzero"
       id="path116" />
    <path
       fill="#fff2cc"
       d="m 463.59283,144.7085 h 27.52756 v 27.46457 h -27.52756 z"
       fill-rule="evenodd"
       id="path117" />
    <path
       stroke="#000000"
       stroke-width="2"
       stroke-linejoin="round"
       stroke-linecap="butt"
       d="m 463.59283,144.7085 h 27.52756 v 27.46457 h -27.52756 z"
       fill-rule="evenodd"
       id="path118" />
    <path
       fill="#000000"
       d="m 475.14203,164.68079 -0.20313,-6.25 -0.0781,-2.5 -0.53125,1.6875 -1.23438,3.76562 h -1.29687 l -1.10938,-3.76562 -0.46875,-1.6875 -0.0625,2.45312 -0.17187,6.29688 h -1.78125 l 0.54687,-11.0625 h 2.35938 l 0.96875,3.14062 0.46875,1.76563 0.45312,-1.65625 1.03125,-3.25 h 2.39063 l 0.54687,11.0625 z m 11.02707,-7.53125 q 0,0.85937 -0.29688,1.59375 -0.28125,0.71875 -0.84375,1.26562 -0.5625,0.53125 -1.40625,0.82813 -0.84375,0.29687 -1.96875,0.29687 h -1.0625 v 3.54688 h -2.09375 v -11.0625 h 3.23438 q 1.07812,0 1.90625,0.23437 0.82812,0.23438 1.39062,0.6875 0.5625,0.4375 0.84375,1.09375 0.29688,0.65625 0.29688,1.51563 z m -2.17188,0.14062 q 0,-0.4375 -0.14062,-0.79687 -0.14063,-0.35938 -0.4375,-0.60938 -0.28125,-0.26562 -0.71875,-0.39062 -0.42188,-0.14063 -1.01563,-0.14063 h -1.09375 v 4.04688 h 1.17188 q 0.53125,0 0.9375,-0.14063 0.42187,-0.15625 0.70312,-0.4375 0.29688,-0.28125 0.4375,-0.65625 0.15625,-0.39062 0.15625,-0.875 z"
       fill-rule="nonzero"
       id="path119" />
    <path
       fill="#fff2cc"
       d="m 430.4514,178.80531 h 27.52756 v 27.46457 H 430.4514 Z"
       fill-rule="evenodd"
       id="path120" />
    <path
       stroke="#000000"
       stroke-width="2"
       stroke-linejoin="round"
       stroke-linecap="butt"
       d="m 430.4514,178.80531 h 27.52756 v 27.46457 H 430.4514 Z"
       fill-rule="evenodd"
       id="path121" />
    <path
       fill="#000000"
       d="m 442.00058,198.7776 -0.20312,-6.25 -0.0781,-2.5 -0.53125,1.6875 -1.23437,3.76562 h -1.29688 l -1.10937,-3.76562 -0.46875,-1.6875 -0.0625,2.45312 -0.17188,6.29688 h -1.78125 l 0.54688,-11.0625 h 2.35937 l 0.96875,3.14062 0.46875,1.76563 0.45313,-1.65625 1.03125,-3.25 h 2.39062 l 0.54688,11.0625 z m 11.0271,-7.53125 q 0,0.85937 -0.29687,1.59375 -0.28125,0.71875 -0.84375,1.26562 -0.5625,0.53125 -1.40625,0.82813 -0.84375,0.29687 -1.96875,0.29687 h -1.0625 v 3.54688 h -2.09375 v -11.0625 h 3.23437 q 1.07813,0 1.90625,0.23437 0.82813,0.23438 1.39063,0.6875 0.5625,0.4375 0.84375,1.09375 0.29687,0.65625 0.29687,1.51563 z m -2.17187,0.14062 q 0,-0.4375 -0.14063,-0.79687 -0.14062,-0.35938 -0.4375,-0.60938 -0.28125,-0.26562 -0.71875,-0.39062 -0.42187,-0.14063 -1.01562,-0.14063 h -1.09375 v 4.04688 h 1.17187 q 0.53125,0 0.9375,-0.14063 0.42188,-0.15625 0.70313,-0.4375 0.29687,-0.28125 0.4375,-0.65625 0.15625,-0.39062 0.15625,-0.875 z"
       fill-rule="nonzero"
       id="path122" />
    <path
       fill="#fff2cc"
       d="m 463.59195,178.80531 h 27.52756 v 27.46457 h -27.52756 z"
       fill-rule="evenodd"
       id="path123" />
    <path
       stroke="#000000"
       stroke-width="2"
       stroke-linejoin="round"
       stroke-linecap="butt"
       d="m 463.59195,178.80531 h 27.52756 v 27.46457 h -27.52756 z"
       fill-rule="evenodd"
       id="path124" />
    <path
       fill="#000000"
       d="m 475.14114,198.7776 -0.20313,-6.25 -0.0781,-2.5 -0.53125,1.6875 -1.23438,3.76562 h -1.29687 l -1.10938,-3.76562 -0.46875,-1.6875 -0.0625,2.45312 -0.17187,6.29688 h -1.78125 l 0.54687,-11.0625 h 2.35938 l 0.96875,3.14062 0.46875,1.76563 0.45312,-1.65625 1.03125,-3.25 h 2.39063 l 0.54687,11.0625 z m 11.02707,-7.53125 q 0,0.85937 -0.29688,1.59375 -0.28125,0.71875 -0.84375,1.26562 -0.5625,0.53125 -1.40625,0.82813 -0.84375,0.29687 -1.96875,0.29687 h -1.0625 v 3.54688 h -2.09375 v -11.0625 h 3.23438 q 1.07812,0 1.90625,0.23437 0.82812,0.23438 1.39062,0.6875 0.5625,0.4375 0.84375,1.09375 0.29688,0.65625 0.29688,1.51563 z m -2.17188,0.14062 q 0,-0.4375 -0.14062,-0.79687 -0.14063,-0.35938 -0.4375,-0.60938 -0.28125,-0.26562 -0.71875,-0.39062 -0.42188,-0.14063 -1.01563,-0.14063 h -1.09375 v 4.04688 h 1.17188 q 0.53125,0 0.9375,-0.14063 0.42187,-0.15625 0.70312,-0.4375 0.29688,-0.28125 0.4375,-0.65625 0.15625,-0.39062 0.15625,-0.875 z"
       fill-rule="nonzero"
       id="path125" />
  </g>
</svg>
