<?xml version="1.0" encoding="UTF-8" standalone="no"?>
<svg
   version="1.1"
   viewBox="0 0 887.9708 296.36085"
   fill="none"
   stroke="none"
   stroke-linecap="square"
   stroke-miterlimit="10"
   id="svg244"
   sodipodi:docname="tdr_example.svg"
   width="887.97076"
   height="296.36084"
   inkscape:version="1.3.2 (091e20ef0f, 2023-11-25)"
   xmlns:inkscape="http://www.inkscape.org/namespaces/inkscape"
   xmlns:sodipodi="http://sodipodi.sourceforge.net/DTD/sodipodi-0.dtd"
   xmlns="http://www.w3.org/2000/svg"
   xmlns:svg="http://www.w3.org/2000/svg">
  <defs
     id="defs244" />
  <sodipodi:namedview
     id="namedview244"
     pagecolor="#ffffff"
     bordercolor="#000000"
     borderopacity="0.25"
     inkscape:showpageshadow="2"
     inkscape:pageopacity="0.0"
     inkscape:pagecheckerboard="0"
     inkscape:deskcolor="#d1d1d1"
     inkscape:zoom="0.54824768"
     inkscape:cx="36.479863"
     inkscape:cy="-113.99957"
     inkscape:window-width="1265"
     inkscape:window-height="1391"
     inkscape:window-x="0"
     inkscape:window-y="0"
     inkscape:window-maximized="0"
     inkscape:current-layer="g244" />
  <clipPath
     id="p.0">
    <path
       d="M 0,0 H 1369.8188 V 363.20996 H 0 Z"
       clip-rule="nonzero"
       id="path1" />
  </clipPath>
  <g
     clip-path="url(#p.0)"
     id="g244"
     transform="translate(-434.86746,-33.425198)">
    <path
       fill="#efefef"
       d="M 511.54694,35.425198 H 1320.8382 V 154.98425 H 511.54694 Z"
       fill-rule="evenodd"
       id="path29" />
    <path
       stroke="#000000"
       stroke-width="4"
       stroke-linejoin="round"
       stroke-linecap="butt"
       d="M 511.54694,35.425198 H 1320.8382 V 154.98425 H 511.54694 Z"
       fill-rule="evenodd"
       id="path30" />
    <path
       fill="#efefef"
       d="M 513.63257,37.34698 H 1319.8688 V 66.134383 H 513.63257 Z"
       fill-rule="evenodd"
       id="path31" />
    <path
       stroke="#000000"
       stroke-width="1"
       stroke-linejoin="round"
       stroke-linecap="butt"
       d="M 513.63257,37.34698 H 1319.8688 V 66.134383 H 513.63257 Z"
       fill-rule="evenodd"
       id="path32" />
    <path
       fill="#efefef"
       d="m 513.4669,66.14698 h 806.2362 v 28.7874 H 513.4669 Z"
       fill-rule="evenodd"
       id="path33" />
    <path
       stroke="#000000"
       stroke-width="1"
       stroke-linejoin="round"
       stroke-linecap="butt"
       d="m 513.4669,66.14698 h 806.2362 v 28.7874 H 513.4669 Z"
       fill-rule="evenodd"
       id="path34" />
    <path
       fill="#efefef"
       d="m 513.4669,95.20473 h 806.2362 v 28.7874 H 513.4669 Z"
       fill-rule="evenodd"
       id="path35" />
    <path
       stroke="#000000"
       stroke-width="1"
       stroke-linejoin="round"
       stroke-linecap="butt"
       d="m 513.4669,95.20473 h 806.2362 v 28.7874 H 513.4669 Z"
       fill-rule="evenodd"
       id="path36" />
    <path
       fill="#efefef"
       d="m 513.4669,123.74698 h 806.2362 v 28.7874 H 513.4669 Z"
       fill-rule="evenodd"
       id="path37" />
    <path
       stroke="#000000"
       stroke-width="1"
       stroke-linejoin="round"
       stroke-linecap="butt"
       d="m 513.4669,123.74698 h 806.2362 v 28.7874 H 513.4669 Z"
       fill-rule="evenodd"
       id="path38" />
    <path
       fill="#cfe2f3"
       d="M 513.4659,37.087925 H 628.67849 V 65.875328 H 513.4659 Z"
       fill-rule="evenodd"
       id="path39" />
    <path
       stroke="#000000"
       stroke-width="1"
       stroke-linejoin="round"
       stroke-linecap="butt"
       d="M 513.4659,37.087925 H 628.67849 V 65.875328 H 513.4659 Z"
       fill-rule="evenodd"
       id="path40" />
    <path
       fill="#ea9999"
       d="m 561.46545,51.738846 v 0 c 0,-5.305412 4.3009,-9.6063 9.60632,-9.6063 v 0 c 2.54773,0 4.99115,1.012089 6.79267,2.813622 1.80151,1.801528 2.8136,4.24493 2.8136,6.792678 v 0 c 0,5.305413 -4.30085,9.6063 -9.60627,9.6063 v 0 c -5.30542,0 -9.60632,-4.300888 -9.60632,-9.6063 z"
       fill-rule="evenodd"
       id="path41" />
    <path
       stroke="#000000"
       stroke-width="1"
       stroke-linejoin="round"
       stroke-linecap="butt"
       d="m 561.46545,51.738846 v 0 c 0,-5.305412 4.3009,-9.6063 9.60632,-9.6063 v 0 c 2.54773,0 4.99115,1.012089 6.79267,2.813622 1.80151,1.801528 2.8136,4.24493 2.8136,6.792678 v 0 c 0,5.305413 -4.30085,9.6063 -9.60627,9.6063 v 0 c -5.30542,0 -9.60632,-4.300888 -9.60632,-9.6063 z"
       fill-rule="evenodd"
       id="path42" />
    <path
       fill="#000000"
       fill-opacity="0"
       d="m 434.93045,37.34646 h 74.20471 v 28.7874 h -74.20471 z"
       fill-rule="evenodd"
       id="path43" />
    <path
       fill="#000000"
       d="M 439.0867,57.50016 V 47.390785 h -3.78125 v -1.34375 h 9.07812 v 1.34375 h -3.78125 V 57.50016 Z m 6.67969,0 V 46.047035 h 1.40625 v 4.109375 q 0.98437,-1.140625 2.48437,-1.140625 0.92188,0 1.59375,0.359375 0.6875,0.359375 0.96875,1 0.29688,0.640625 0.29688,1.859375 v 5.265625 h -1.40625 v -5.265625 q 0,-1.046875 -0.45313,-1.53125 -0.45312,-0.484375 -1.29687,-0.484375 -0.625,0 -1.17188,0.328125 -0.54687,0.328125 -0.78125,0.890625 -0.23437,0.546875 -0.23437,1.515625 v 4.546875 z m 8.88281,0 v -8.296875 h 1.26562 v 1.25 q 0.48438,-0.875 0.89063,-1.15625 0.40625,-0.28125 0.90625,-0.28125 0.70312,0 1.4375,0.453125 l -0.48438,1.296875 q -0.51562,-0.296875 -1.03125,-0.296875 -0.45312,0 -0.82812,0.28125 -0.35938,0.265625 -0.51563,0.765625 -0.23437,0.75 -0.23437,1.640625 v 4.34375 z m 11.01562,-2.671875 1.45313,0.171875 q -0.34375,1.28125 -1.28125,1.984375 -0.92188,0.703125 -2.35938,0.703125 -1.82812,0 -2.89062,-1.125 -1.0625,-1.125 -1.0625,-3.140625 0,-2.09375 1.07812,-3.25 1.07813,-1.15625 2.79688,-1.15625 1.65625,0 2.70312,1.140625 1.0625,1.125 1.0625,3.171875 0,0.125 0,0.375 h -6.1875 q 0.0781,1.375 0.76563,2.109375 0.70312,0.71875 1.73437,0.71875 0.78125,0 1.32813,-0.40625 0.54687,-0.40625 0.85937,-1.296875 z m -4.60937,-2.28125 h 4.625 q -0.0937,-1.046875 -0.53125,-1.5625 -0.67188,-0.8125 -1.73438,-0.8125 -0.96875,0 -1.64062,0.65625 -0.65625,0.640625 -0.71875,1.71875 z m 13.24219,3.921875 q -0.78125,0.671875 -1.5,0.953125 -0.71875,0.265625 -1.54688,0.265625 -1.375,0 -2.10937,-0.671875 -0.73438,-0.671875 -0.73438,-1.703125 0,-0.609375 0.28125,-1.109375 0.28125,-0.515625 0.71875,-0.8125 0.45313,-0.3125 1.01563,-0.46875 0.42187,-0.109375 1.25,-0.203125 1.70312,-0.203125 2.51562,-0.484375 0,-0.296875 0,-0.375 0,-0.859375 -0.39062,-1.203125 -0.54688,-0.484375 -1.60938,-0.484375 -0.98437,0 -1.46875,0.359375 -0.46875,0.34375 -0.6875,1.21875 l -1.375,-0.1875 q 0.1875,-0.875 0.60938,-1.421875 0.4375,-0.546875 1.25,-0.828125 0.8125,-0.296875 1.875,-0.296875 1.0625,0 1.71875,0.25 0.67187,0.25 0.98437,0.625 0.3125,0.375 0.4375,0.953125 0.0781,0.359375 0.0781,1.296875 v 1.875 q 0,1.96875 0.0781,2.484375 0.0937,0.515625 0.35938,1 h -1.46875 q -0.21875,-0.4375 -0.28125,-1.03125 z m -0.10938,-3.140625 q -0.76562,0.3125 -2.29687,0.53125 -0.875,0.125 -1.23438,0.28125 -0.35937,0.15625 -0.5625,0.46875 -0.1875,0.296875 -0.1875,0.65625 0,0.5625 0.42188,0.9375 0.4375,0.375 1.25,0.375 0.8125,0 1.4375,-0.34375 0.64062,-0.359375 0.9375,-0.984375 0.23437,-0.46875 0.23437,-1.40625 z m 8.97656,4.171875 v -1.046875 q -0.78125,1.234375 -2.3125,1.234375 -1,0 -1.82812,-0.546875 -0.82813,-0.546875 -1.29688,-1.53125 -0.45312,-0.984375 -0.45312,-2.25 0,-1.25 0.40625,-2.25 0.42187,-1.015625 1.25,-1.546875 0.82812,-0.546875 1.85937,-0.546875 0.75,0 1.32813,0.3125 0.59375,0.3125 0.95312,0.828125 v -4.109375 h 1.40625 V 57.50016 Z m -4.4375,-4.140625 q 0,1.59375 0.67188,2.390625 0.67187,0.78125 1.57812,0.78125 0.92188,0 1.5625,-0.75 0.65625,-0.765625 0.65625,-2.3125 0,-1.703125 -0.65625,-2.5 -0.65625,-0.796875 -1.625,-0.796875 -0.9375,0 -1.5625,0.765625 -0.625,0.765625 -0.625,2.421875 z m 12.01563,-1.515625 q 0,-2.03125 0.40625,-3.265625 0.42187,-1.234375 1.25,-1.90625 0.82812,-0.671875 2.07812,-0.671875 0.92188,0 1.60938,0.375 0.70312,0.359375 1.15625,1.0625 0.45312,0.703125 0.70312,1.703125 0.26563,1 0.26563,2.703125 0,2.015625 -0.42188,3.265625 -0.40625,1.234375 -1.23437,1.921875 -0.82813,0.671875 -2.07813,0.671875 -1.65625,0 -2.60937,-1.203125 -1.125,-1.421875 -1.125,-4.65625 z m 1.4375,0 q 0,2.828125 0.65625,3.765625 0.67187,0.921875 1.64062,0.921875 0.96875,0 1.625,-0.9375 0.65625,-0.9375 0.65625,-3.75 0,-2.828125 -0.65625,-3.75 -0.65625,-0.9375 -1.64062,-0.9375 -0.96875,0 -1.54688,0.828125 -0.73437,1.046875 -0.73437,3.859375 z"
       fill-rule="nonzero"
       id="path44" />
    <path
       fill="#000000"
       fill-opacity="0"
       d="m 434.93045,66.13648 h 74.20471 v 28.7874 h -74.20471 z"
       fill-rule="evenodd"
       id="path45" />
    <path
       fill="#000000"
       d="M 439.0867,86.290184 V 76.180809 h -3.78125 v -1.34375 h 9.07812 v 1.34375 h -3.78125 v 10.109375 z m 6.67969,0 V 74.837059 h 1.40625 v 4.109375 q 0.98437,-1.140625 2.48437,-1.140625 0.92188,0 1.59375,0.359375 0.6875,0.359375 0.96875,1 0.29688,0.640625 0.29688,1.859375 v 5.265625 h -1.40625 v -5.265625 q 0,-1.046875 -0.45313,-1.53125 -0.45312,-0.484375 -1.29687,-0.484375 -0.625,0 -1.17188,0.328125 -0.54687,0.328125 -0.78125,0.890625 -0.23437,0.546875 -0.23437,1.515625 v 4.546875 z m 8.88281,0 v -8.296875 h 1.26562 v 1.25 q 0.48438,-0.875 0.89063,-1.15625 0.40625,-0.28125 0.90625,-0.28125 0.70312,0 1.4375,0.453125 l -0.48438,1.296875 q -0.51562,-0.296875 -1.03125,-0.296875 -0.45312,0 -0.82812,0.28125 -0.35938,0.265625 -0.51563,0.765625 -0.23437,0.75 -0.23437,1.640625 v 4.34375 z m 11.01562,-2.671875 1.45313,0.171875 q -0.34375,1.28125 -1.28125,1.984375 -0.92188,0.703125 -2.35938,0.703125 -1.82812,0 -2.89062,-1.125 -1.0625,-1.125 -1.0625,-3.140625 0,-2.09375 1.07812,-3.25 1.07813,-1.15625 2.79688,-1.15625 1.65625,0 2.70312,1.140625 1.0625,1.125 1.0625,3.171875 0,0.125 0,0.375 h -6.1875 q 0.0781,1.375 0.76563,2.109375 0.70312,0.71875 1.73437,0.71875 0.78125,0 1.32813,-0.40625 0.54687,-0.40625 0.85937,-1.296875 z m -4.60937,-2.28125 h 4.625 q -0.0937,-1.046875 -0.53125,-1.5625 -0.67188,-0.8125 -1.73438,-0.8125 -0.96875,0 -1.64062,0.65625 -0.65625,0.640625 -0.71875,1.71875 z m 13.24219,3.921875 q -0.78125,0.671875 -1.5,0.953125 -0.71875,0.265625 -1.54688,0.265625 -1.375,0 -2.10937,-0.671875 -0.73438,-0.671875 -0.73438,-1.703125 0,-0.609375 0.28125,-1.109375 0.28125,-0.515625 0.71875,-0.8125 0.45313,-0.3125 1.01563,-0.46875 0.42187,-0.109375 1.25,-0.203125 1.70312,-0.203125 2.51562,-0.484375 0,-0.296875 0,-0.375 0,-0.859375 -0.39062,-1.203125 -0.54688,-0.484375 -1.60938,-0.484375 -0.98437,0 -1.46875,0.359375 -0.46875,0.34375 -0.6875,1.21875 l -1.375,-0.1875 q 0.1875,-0.875 0.60938,-1.421875 0.4375,-0.546875 1.25,-0.828125 0.8125,-0.296875 1.875,-0.296875 1.0625,0 1.71875,0.25 0.67187,0.25 0.98437,0.625 0.3125,0.375 0.4375,0.953125 0.0781,0.359375 0.0781,1.296875 v 1.875 q 0,1.96875 0.0781,2.484375 0.0937,0.515625 0.35938,1 h -1.46875 q -0.21875,-0.4375 -0.28125,-1.03125 z m -0.10938,-3.140625 q -0.76562,0.3125 -2.29687,0.53125 -0.875,0.125 -1.23438,0.28125 -0.35937,0.15625 -0.5625,0.46875 -0.1875,0.296875 -0.1875,0.65625 0,0.5625 0.42188,0.9375 0.4375,0.375 1.25,0.375 0.8125,0 1.4375,-0.34375 0.64062,-0.359375 0.9375,-0.984375 0.23437,-0.46875 0.23437,-1.40625 z m 8.97656,4.171875 v -1.046875 q -0.78125,1.234375 -2.3125,1.234375 -1,0 -1.82812,-0.546875 -0.82813,-0.546875 -1.29688,-1.53125 -0.45312,-0.984375 -0.45312,-2.25 0,-1.25 0.40625,-2.25 0.42187,-1.015625 1.25,-1.546875 0.82812,-0.546875 1.85937,-0.546875 0.75,0 1.32813,0.3125 0.59375,0.3125 0.95312,0.828125 v -4.109375 h 1.40625 v 11.453125 z m -4.4375,-4.140625 q 0,1.59375 0.67188,2.390625 0.67187,0.78125 1.57812,0.78125 0.92188,0 1.5625,-0.75 0.65625,-0.765625 0.65625,-2.3125 0,-1.703125 -0.65625,-2.5 -0.65625,-0.796875 -1.625,-0.796875 -0.9375,0 -1.5625,0.765625 -0.625,0.765625 -0.625,2.421875 z m 17.3125,4.140625 h -1.40625 v -8.96875 q -0.51562,0.484375 -1.34375,0.96875 -0.8125,0.484375 -1.46875,0.734375 v -1.359375 q 1.17188,-0.5625 2.04688,-1.34375 0.89062,-0.796875 1.26562,-1.53125 h 0.90625 z"
       fill-rule="nonzero"
       id="path46" />
    <path
       fill="#000000"
       fill-opacity="0"
       d="m 434.86746,94.58793 h 74.20471 v 28.7874 h -74.20471 z"
       fill-rule="evenodd"
       id="path47" />
    <path
       fill="#000000"
       d="m 439.0237,114.74163 v -10.10937 h -3.78125 v -1.34375 h 9.07813 v 1.34375 h -3.78125 v 10.10937 z m 6.67969,0 v -11.45312 h 1.40625 v 4.10937 q 0.98437,-1.14062 2.48437,-1.14062 0.92188,0 1.59375,0.35937 0.6875,0.35938 0.96875,1 0.29688,0.64063 0.29688,1.85938 v 5.26562 h -1.40625 v -5.26562 q 0,-1.04688 -0.45313,-1.53125 -0.45312,-0.48438 -1.29687,-0.48438 -0.625,0 -1.17188,0.32813 -0.54687,0.32812 -0.78125,0.89062 -0.23437,0.54688 -0.23437,1.51563 v 4.54687 z m 8.88281,0 v -8.29687 h 1.26563 v 1.25 q 0.48437,-0.875 0.89062,-1.15625 0.40625,-0.28125 0.90625,-0.28125 0.70313,0 1.4375,0.45312 l -0.48437,1.29688 q -0.51563,-0.29688 -1.03125,-0.29688 -0.45313,0 -0.82813,0.28125 -0.35937,0.26563 -0.51562,0.76563 -0.23438,0.75 -0.23438,1.64062 v 4.34375 z m 11.01563,-2.67187 1.45312,0.17187 q -0.34375,1.28125 -1.28125,1.98438 -0.92187,0.70312 -2.35937,0.70312 -1.82813,0 -2.89063,-1.125 -1.0625,-1.125 -1.0625,-3.14062 0,-2.09375 1.07813,-3.25 1.07812,-1.15625 2.79687,-1.15625 1.65625,0 2.70313,1.14062 1.0625,1.125 1.0625,3.17188 0,0.125 0,0.375 h -6.1875 q 0.0781,1.375 0.76562,2.10937 0.70313,0.71875 1.73438,0.71875 0.78125,0 1.32812,-0.40625 0.54688,-0.40625 0.85938,-1.29687 z m -4.60938,-2.28125 h 4.625 q -0.0937,-1.04688 -0.53125,-1.5625 -0.67187,-0.8125 -1.73437,-0.8125 -0.96875,0 -1.64063,0.65625 -0.65625,0.64062 -0.71875,1.71875 z m 13.24219,3.92187 q -0.78125,0.67188 -1.5,0.95313 -0.71875,0.26562 -1.54688,0.26562 -1.375,0 -2.10937,-0.67187 -0.73438,-0.67188 -0.73438,-1.70313 0,-0.60937 0.28125,-1.10937 0.28125,-0.51563 0.71875,-0.8125 0.45313,-0.3125 1.01563,-0.46875 0.42187,-0.10938 1.25,-0.20313 1.70312,-0.20312 2.51562,-0.48437 0,-0.29688 0,-0.375 0,-0.85938 -0.39062,-1.20313 -0.54688,-0.48437 -1.60938,-0.48437 -0.98437,0 -1.46875,0.35937 -0.46875,0.34375 -0.6875,1.21875 l -1.375,-0.1875 q 0.1875,-0.875 0.60938,-1.42187 0.4375,-0.54688 1.25,-0.82813 0.8125,-0.29687 1.875,-0.29687 1.0625,0 1.71875,0.25 0.67187,0.25 0.98437,0.625 0.3125,0.375 0.4375,0.95312 0.0781,0.35938 0.0781,1.29688 v 1.875 q 0,1.96875 0.0781,2.48437 0.0937,0.51563 0.35938,1 h -1.46875 q -0.21875,-0.4375 -0.28125,-1.03125 z m -0.10938,-3.14062 q -0.76562,0.3125 -2.29687,0.53125 -0.875,0.125 -1.23438,0.28125 -0.35937,0.15625 -0.5625,0.46875 -0.1875,0.29687 -0.1875,0.65625 0,0.5625 0.42188,0.9375 0.4375,0.375 1.25,0.375 0.8125,0 1.4375,-0.34375 0.64062,-0.35938 0.9375,-0.98438 0.23437,-0.46875 0.23437,-1.40625 z m 8.97657,4.17187 v -1.04687 q -0.78125,1.23437 -2.3125,1.23437 -1,0 -1.82813,-0.54687 -0.82812,-0.54688 -1.29687,-1.53125 -0.45313,-0.98438 -0.45313,-2.25 0,-1.25 0.40625,-2.25 0.42188,-1.01563 1.25,-1.54688 0.82813,-0.54687 1.85938,-0.54687 0.75,0 1.32812,0.3125 0.59375,0.3125 0.95313,0.82812 v -4.10937 h 1.40625 v 11.45312 z m -4.4375,-4.14062 q 0,1.59375 0.67187,2.39062 0.67188,0.78125 1.57813,0.78125 0.92187,0 1.5625,-0.75 0.65625,-0.76562 0.65625,-2.3125 0,-1.70312 -0.65625,-2.5 -0.65625,-0.79687 -1.625,-0.79687 -0.9375,0 -1.5625,0.76562 -0.625,0.76563 -0.625,2.42188 z m 19.40625,2.78125 v 1.35937 h -7.57813 q -0.0156,-0.51562 0.17188,-0.98437 0.28125,-0.76563 0.92187,-1.51563 0.64063,-0.75 1.84375,-1.73437 1.85938,-1.53125 2.51563,-2.42188 0.65625,-0.90625 0.65625,-1.70312 0,-0.82813 -0.59375,-1.40625 -0.59375,-0.57813 -1.5625,-0.57813 -1.01563,0 -1.625,0.60938 -0.60938,0.60937 -0.60938,1.6875 l -1.45312,-0.14063 q 0.15625,-1.625 1.125,-2.46875 0.96875,-0.84375 2.59375,-0.84375 1.65625,0 2.60937,0.92188 0.96875,0.90625 0.96875,2.25 0,0.6875 -0.28125,1.35937 -0.28125,0.65625 -0.9375,1.39063 -0.65625,0.73437 -2.17187,2.01562 -1.26563,1.0625 -1.625,1.45313 -0.35938,0.375 -0.59375,0.75 z"
       fill-rule="nonzero"
       id="path48" />
    <path
       fill="#000000"
       fill-opacity="0"
       d="m 434.93045,123.73229 h 74.20471 v 28.78739 h -74.20471 z"
       fill-rule="evenodd"
       id="path49" />
    <path
       fill="#000000"
       d="m 439.0867,143.88599 v -10.10938 h -3.78125 v -1.34375 h 9.07812 v 1.34375 h -3.78125 v 10.10938 z m 6.67969,0 v -11.45313 h 1.40625 v 4.10938 q 0.98437,-1.14063 2.48437,-1.14063 0.92188,0 1.59375,0.35938 0.6875,0.35937 0.96875,1 0.29688,0.64062 0.29688,1.85937 v 5.26563 h -1.40625 v -5.26563 q 0,-1.04687 -0.45313,-1.53125 -0.45312,-0.48437 -1.29687,-0.48437 -0.625,0 -1.17188,0.32812 -0.54687,0.32813 -0.78125,0.89063 -0.23437,0.54687 -0.23437,1.51562 v 4.54688 z m 8.88281,0 v -8.29688 h 1.26562 v 1.25 q 0.48438,-0.875 0.89063,-1.15625 0.40625,-0.28125 0.90625,-0.28125 0.70312,0 1.4375,0.45313 l -0.48438,1.29687 q -0.51562,-0.29687 -1.03125,-0.29687 -0.45312,0 -0.82812,0.28125 -0.35938,0.26562 -0.51563,0.76562 -0.23437,0.75 -0.23437,1.64063 v 4.34375 z m 11.01562,-2.67188 1.45313,0.17188 q -0.34375,1.28125 -1.28125,1.98437 -0.92188,0.70313 -2.35938,0.70313 -1.82812,0 -2.89062,-1.125 -1.0625,-1.125 -1.0625,-3.14063 0,-2.09375 1.07812,-3.25 1.07813,-1.15625 2.79688,-1.15625 1.65625,0 2.70312,1.14063 1.0625,1.125 1.0625,3.17187 0,0.125 0,0.375 h -6.1875 q 0.0781,1.375 0.76563,2.10938 0.70312,0.71875 1.73437,0.71875 0.78125,0 1.32813,-0.40625 0.54687,-0.40625 0.85937,-1.29688 z m -4.60937,-2.28125 h 4.625 q -0.0937,-1.04687 -0.53125,-1.5625 -0.67188,-0.8125 -1.73438,-0.8125 -0.96875,0 -1.64062,0.65625 -0.65625,0.64063 -0.71875,1.71875 z m 13.24219,3.92188 q -0.78125,0.67187 -1.5,0.95312 -0.71875,0.26563 -1.54688,0.26563 -1.375,0 -2.10937,-0.67188 -0.73438,-0.67187 -0.73438,-1.70312 0,-0.60938 0.28125,-1.10938 0.28125,-0.51562 0.71875,-0.8125 0.45313,-0.3125 1.01563,-0.46875 0.42187,-0.10937 1.25,-0.20312 1.70312,-0.20313 2.51562,-0.48438 0,-0.29687 0,-0.375 0,-0.85937 -0.39062,-1.20312 -0.54688,-0.48438 -1.60938,-0.48438 -0.98437,0 -1.46875,0.35938 -0.46875,0.34375 -0.6875,1.21875 l -1.375,-0.1875 q 0.1875,-0.875 0.60938,-1.42188 0.4375,-0.54687 1.25,-0.82812 0.8125,-0.29688 1.875,-0.29688 1.0625,0 1.71875,0.25 0.67187,0.25 0.98437,0.625 0.3125,0.375 0.4375,0.95313 0.0781,0.35937 0.0781,1.29687 v 1.875 q 0,1.96875 0.0781,2.48438 0.0937,0.51562 0.35938,1 h -1.46875 q -0.21875,-0.4375 -0.28125,-1.03125 z m -0.10938,-3.14063 q -0.76562,0.3125 -2.29687,0.53125 -0.875,0.125 -1.23438,0.28125 -0.35937,0.15625 -0.5625,0.46875 -0.1875,0.29688 -0.1875,0.65625 0,0.5625 0.42188,0.9375 0.4375,0.375 1.25,0.375 0.8125,0 1.4375,-0.34375 0.64062,-0.35937 0.9375,-0.98437 0.23437,-0.46875 0.23437,-1.40625 z m 8.97656,4.17188 v -1.04688 q -0.78125,1.23438 -2.3125,1.23438 -1,0 -1.82812,-0.54688 -0.82813,-0.54687 -1.29688,-1.53125 -0.45312,-0.98437 -0.45312,-2.25 0,-1.25 0.40625,-2.25 0.42187,-1.01562 1.25,-1.54687 0.82812,-0.54688 1.85937,-0.54688 0.75,0 1.32813,0.3125 0.59375,0.3125 0.95312,0.82813 v -4.10938 h 1.40625 v 11.45313 z m -4.4375,-4.14063 q 0,1.59375 0.67188,2.39063 0.67187,0.78125 1.57812,0.78125 0.92188,0 1.5625,-0.75 0.65625,-0.76563 0.65625,-2.3125 0,-1.70313 -0.65625,-2.5 -0.65625,-0.79688 -1.625,-0.79688 -0.9375,0 -1.5625,0.76563 -0.625,0.76562 -0.625,2.42187 z m 12.01563,1.10938 1.40625,-0.1875 q 0.25,1.20312 0.82812,1.73437 0.57813,0.51563 1.42188,0.51563 0.98437,0 1.67187,-0.6875 0.6875,-0.6875 0.6875,-1.70313 0,-0.96875 -0.64062,-1.59375 -0.625,-0.625 -1.60938,-0.625 -0.39062,0 -0.98437,0.15625 l 0.15625,-1.23437 q 0.14062,0.0156 0.21875,0.0156 0.90625,0 1.625,-0.46875 0.71875,-0.46875 0.71875,-1.45312 0,-0.76563 -0.53125,-1.26563 -0.51563,-0.51562 -1.34375,-0.51562 -0.82813,0 -1.375,0.51562 -0.54688,0.51563 -0.70313,1.54688 l -1.40625,-0.25 q 0.26563,-1.42188 1.17188,-2.1875 0.92187,-0.78125 2.28125,-0.78125 0.9375,0 1.71875,0.40625 0.79687,0.39062 1.20312,1.09375 0.42188,0.6875 0.42188,1.46875 0,0.75 -0.40625,1.35937 -0.39063,0.60938 -1.17188,0.96875 1.01563,0.23438 1.57813,0.96875 0.5625,0.73438 0.5625,1.84375 0,1.5 -1.09375,2.54688 -1.09375,1.04687 -2.76563,1.04687 -1.5,0 -2.5,-0.89062 -1,-0.90625 -1.14062,-2.34375 z"
       fill-rule="nonzero"
       id="path50" />
    <path
       fill="#cfe2f3"
       d="m 513.4659,66.14567 h 115.21259 v 28.7874 H 513.4659 Z"
       fill-rule="evenodd"
       id="path51" />
    <path
       stroke="#000000"
       stroke-width="1"
       stroke-linejoin="round"
       stroke-linecap="butt"
       d="m 513.4659,66.14567 h 115.21259 v 28.7874 H 513.4659 Z"
       fill-rule="evenodd"
       id="path52" />
    <path
       fill="#c9daf8"
       d="m 561.46545,80.66798 v 0 c 0,-5.305412 4.3009,-9.6063 9.60632,-9.6063 v 0 c 2.54773,0 4.99115,1.012093 6.79267,2.813621 1.80151,1.801529 2.8136,4.244934 2.8136,6.792679 v 0 c 0,5.305413 -4.30085,9.606301 -9.60627,9.606301 v 0 c -5.30542,0 -9.60632,-4.300888 -9.60632,-9.606301 z"
       fill-rule="evenodd"
       id="path53" />
    <path
       stroke="#000000"
       stroke-width="1"
       stroke-linejoin="round"
       stroke-linecap="butt"
       d="m 561.46545,80.66798 v 0 c 0,-5.305412 4.3009,-9.6063 9.60632,-9.6063 v 0 c 2.54773,0 4.99115,1.012093 6.79267,2.813621 1.80151,1.801529 2.8136,4.244934 2.8136,6.792679 v 0 c 0,5.305413 -4.30085,9.606301 -9.60627,9.606301 v 0 c -5.30542,0 -9.60632,-4.300888 -9.60632,-9.606301 z"
       fill-rule="evenodd"
       id="path54" />
    <path
       fill="#efefef"
       d="M 511.54694,208.22697 H 1320.8382 V 327.78604 H 511.54694 Z"
       fill-rule="evenodd"
       id="path55" />
    <path
       stroke="#000000"
       stroke-width="4"
       stroke-linejoin="round"
       stroke-linecap="butt"
       d="M 511.54694,208.22697 H 1320.8382 V 327.78604 H 511.54694 Z"
       fill-rule="evenodd"
       id="path56" />
    <path
       fill="#efefef"
       d="m 513.5299,210.14699 h 806.3937 v 28.7874 H 513.5299 Z"
       fill-rule="evenodd"
       id="path57" />
    <path
       stroke="#000000"
       stroke-width="1"
       stroke-linejoin="round"
       stroke-linecap="butt"
       d="m 513.5299,210.14699 h 806.3937 v 28.7874 H 513.5299 Z"
       fill-rule="evenodd"
       id="path58" />
    <path
       fill="#efefef"
       d="m 513.5321,238.94698 h 806.3307 v 28.7874 H 513.5321 Z"
       fill-rule="evenodd"
       id="path59" />
    <path
       stroke="#000000"
       stroke-width="1"
       stroke-linejoin="round"
       stroke-linecap="butt"
       d="m 513.5321,238.94698 h 806.3307 v 28.7874 H 513.5321 Z"
       fill-rule="evenodd"
       id="path60" />
    <path
       fill="#efefef"
       d="m 513.5321,267.74698 h 806.3307 V 296.5344 H 513.5321 Z"
       fill-rule="evenodd"
       id="path61" />
    <path
       stroke="#000000"
       stroke-width="1"
       stroke-linejoin="round"
       stroke-linecap="butt"
       d="m 513.5321,267.74698 h 806.3307 V 296.5344 H 513.5321 Z"
       fill-rule="evenodd"
       id="path62" />
    <path
       fill="#000000"
       fill-opacity="0"
       d="m 434.96194,208.22572 h 74.20471 v 28.7874 h -74.20471 z"
       fill-rule="evenodd"
       id="path63" />
    <path
       fill="#000000"
       d="m 439.1182,228.37943 v -10.10937 h -3.78125 v -1.34375 h 9.07812 v 1.34375 h -3.78125 v 10.10937 z m 6.67969,0 v -11.45312 h 1.40625 v 4.10937 q 0.98437,-1.14062 2.48437,-1.14062 0.92188,0 1.59375,0.35937 0.6875,0.35938 0.96875,1 0.29688,0.64063 0.29688,1.85938 v 5.26562 h -1.40625 v -5.26562 q 0,-1.04688 -0.45313,-1.53125 -0.45312,-0.48438 -1.29687,-0.48438 -0.625,0 -1.17188,0.32813 -0.54687,0.32812 -0.78125,0.89062 -0.23437,0.54688 -0.23437,1.51563 v 4.54687 z m 8.88281,0 v -8.29687 h 1.26562 v 1.25 q 0.48438,-0.875 0.89063,-1.15625 0.40625,-0.28125 0.90625,-0.28125 0.70312,0 1.4375,0.45312 l -0.48438,1.29688 q -0.51562,-0.29688 -1.03125,-0.29688 -0.45312,0 -0.82812,0.28125 -0.35938,0.26563 -0.51563,0.76563 -0.23437,0.75 -0.23437,1.64062 v 4.34375 z m 11.01562,-2.67187 1.45313,0.17187 q -0.34375,1.28125 -1.28125,1.98438 -0.92188,0.70312 -2.35938,0.70312 -1.82812,0 -2.89062,-1.125 -1.0625,-1.125 -1.0625,-3.14062 0,-2.09375 1.07812,-3.25 1.07813,-1.15625 2.79688,-1.15625 1.65625,0 2.70312,1.14062 1.0625,1.125 1.0625,3.17188 0,0.125 0,0.375 h -6.1875 q 0.0781,1.375 0.76563,2.10937 0.70312,0.71875 1.73437,0.71875 0.78125,0 1.32813,-0.40625 0.54687,-0.40625 0.85937,-1.29687 z m -4.60937,-2.28125 h 4.625 q -0.0937,-1.04688 -0.53125,-1.5625 -0.67188,-0.8125 -1.73438,-0.8125 -0.96875,0 -1.64062,0.65625 -0.65625,0.64062 -0.71875,1.71875 z m 13.24219,3.92187 q -0.78125,0.67188 -1.5,0.95313 -0.71875,0.26562 -1.54688,0.26562 -1.375,0 -2.10937,-0.67187 -0.73438,-0.67188 -0.73438,-1.70313 0,-0.60937 0.28125,-1.10937 0.28125,-0.51563 0.71875,-0.8125 0.45313,-0.3125 1.01563,-0.46875 0.42187,-0.10938 1.25,-0.20313 1.70312,-0.20312 2.51562,-0.48437 0,-0.29688 0,-0.375 0,-0.85938 -0.39062,-1.20313 -0.54688,-0.48437 -1.60938,-0.48437 -0.98437,0 -1.46875,0.35937 -0.46875,0.34375 -0.6875,1.21875 l -1.375,-0.1875 q 0.1875,-0.875 0.60938,-1.42187 0.4375,-0.54688 1.25,-0.82813 0.8125,-0.29687 1.875,-0.29687 1.0625,0 1.71875,0.25 0.67187,0.25 0.98437,0.625 0.3125,0.375 0.4375,0.95312 0.0781,0.35938 0.0781,1.29688 v 1.875 q 0,1.96875 0.0781,2.48437 0.0937,0.51563 0.35938,1 h -1.46875 q -0.21875,-0.4375 -0.28125,-1.03125 z m -0.10938,-3.14062 q -0.76562,0.3125 -2.29687,0.53125 -0.875,0.125 -1.23438,0.28125 -0.35937,0.15625 -0.5625,0.46875 -0.1875,0.29687 -0.1875,0.65625 0,0.5625 0.42188,0.9375 0.4375,0.375 1.25,0.375 0.8125,0 1.4375,-0.34375 0.64062,-0.35938 0.9375,-0.98438 0.23437,-0.46875 0.23437,-1.40625 z m 8.97656,4.17187 v -1.04687 q -0.78125,1.23437 -2.3125,1.23437 -1,0 -1.82812,-0.54687 -0.82813,-0.54688 -1.29688,-1.53125 -0.45312,-0.98438 -0.45312,-2.25 0,-1.25 0.40625,-2.25 0.42187,-1.01563 1.25,-1.54688 0.82812,-0.54687 1.85937,-0.54687 0.75,0 1.32813,0.3125 0.59375,0.3125 0.95312,0.82812 v -4.10937 h 1.40625 v 11.45312 z m -4.4375,-4.14062 q 0,1.59375 0.67188,2.39062 0.67187,0.78125 1.57812,0.78125 0.92188,0 1.5625,-0.75 0.65625,-0.76562 0.65625,-2.3125 0,-1.70312 -0.65625,-2.5 -0.65625,-0.79687 -1.625,-0.79687 -0.9375,0 -1.5625,0.76562 -0.625,0.76563 -0.625,2.42188 z m 16.51563,4.14062 v -2.75 h -4.96875 v -1.28125 l 5.23437,-7.42187 h 1.14063 v 7.42187 h 1.54687 v 1.28125 h -1.54687 v 2.75 z m 0,-4.03125 v -5.17187 l -3.57813,5.17187 z"
       fill-rule="nonzero"
       id="path64" />
    <path
       fill="#000000"
       fill-opacity="0"
       d="m 434.96194,237.01575 h 74.20471 v 28.78741 h -74.20471 z"
       fill-rule="evenodd"
       id="path65" />
    <path
       fill="#000000"
       d="m 439.1182,257.16946 v -10.10939 h -3.78125 v -1.34375 h 9.07812 v 1.34375 h -3.78125 v 10.10939 z m 6.67969,0 v -11.45314 h 1.40625 v 4.10938 q 0.98437,-1.14063 2.48437,-1.14063 0.92188,0 1.59375,0.35938 0.6875,0.35937 0.96875,1 0.29688,0.64062 0.29688,1.85937 v 5.26564 h -1.40625 v -5.26564 q 0,-1.04687 -0.45313,-1.53125 -0.45312,-0.48437 -1.29687,-0.48437 -0.625,0 -1.17188,0.32812 -0.54687,0.32813 -0.78125,0.89063 -0.23437,0.54687 -0.23437,1.51562 v 4.54689 z m 8.88281,0 v -8.29689 h 1.26562 v 1.25 q 0.48438,-0.875 0.89063,-1.15625 0.40625,-0.28125 0.90625,-0.28125 0.70312,0 1.4375,0.45313 l -0.48438,1.29687 q -0.51562,-0.29687 -1.03125,-0.29687 -0.45312,0 -0.82812,0.28125 -0.35938,0.26562 -0.51563,0.76562 -0.23437,0.75 -0.23437,1.64063 v 4.34376 z m 11.01562,-2.67189 1.45313,0.17187 q -0.34375,1.28125 -1.28125,1.9844 -0.92188,0.70312 -2.35938,0.70312 -1.82812,0 -2.89062,-1.125 -1.0625,-1.12502 -1.0625,-3.14064 0,-2.09375 1.07812,-3.25 1.07813,-1.15625 2.79688,-1.15625 1.65625,0 2.70312,1.14062 1.0625,1.125 1.0625,3.17188 0,0.125 0,0.375 h -6.1875 q 0.0781,1.375 0.76563,2.10937 0.70312,0.71877 1.73437,0.71877 0.78125,0 1.32813,-0.40627 0.54687,-0.40625 0.85937,-1.29687 z m -4.60937,-2.28125 h 4.625 q -0.0937,-1.04688 -0.53125,-1.5625 -0.67188,-0.8125 -1.73438,-0.8125 -0.96875,0 -1.64062,0.65625 -0.65625,0.64062 -0.71875,1.71875 z m 13.24219,3.92189 q -0.78125,0.67188 -1.5,0.95313 -0.71875,0.26562 -1.54688,0.26562 -1.375,0 -2.10937,-0.67187 -0.73438,-0.67188 -0.73438,-1.70315 0,-0.60937 0.28125,-1.10937 0.28125,-0.51563 0.71875,-0.8125 0.45313,-0.3125 1.01563,-0.46875 0.42187,-0.10938 1.25,-0.20313 1.70312,-0.20312 2.51562,-0.48437 0,-0.29688 0,-0.375 0,-0.85938 -0.39062,-1.20313 -0.54688,-0.48437 -1.60938,-0.48437 -0.98437,0 -1.46875,0.35937 -0.46875,0.34375 -0.6875,1.21875 l -1.375,-0.1875 q 0.1875,-0.875 0.60938,-1.42187 0.4375,-0.54688 1.25,-0.82813 0.8125,-0.29687 1.875,-0.29687 1.0625,0 1.71875,0.25 0.67187,0.25 0.98437,0.625 0.3125,0.375 0.4375,0.95312 0.0781,0.35938 0.0781,1.29688 v 1.875 q 0,1.96875 0.0781,2.48439 0.0937,0.51563 0.35938,1 h -1.46875 q -0.21875,-0.4375 -0.28125,-1.03125 z m -0.10938,-3.14064 q -0.76562,0.3125 -2.29687,0.53125 -0.875,0.125 -1.23438,0.28125 -0.35937,0.15625 -0.5625,0.46875 -0.1875,0.29687 -0.1875,0.65625 0,0.5625 0.42188,0.9375 0.4375,0.37501 1.25,0.37501 0.8125,0 1.4375,-0.34376 0.64062,-0.35938 0.9375,-0.98438 0.23437,-0.46875 0.23437,-1.40625 z m 8.97656,4.17189 v -1.04687 q -0.78125,1.23437 -2.3125,1.23437 -1,0 -1.82812,-0.54687 -0.82813,-0.54688 -1.29688,-1.53127 -0.45312,-0.98438 -0.45312,-2.25 0,-1.25 0.40625,-2.25 0.42187,-1.01563 1.25,-1.54688 0.82812,-0.54687 1.85937,-0.54687 0.75,0 1.32813,0.3125 0.59375,0.3125 0.95312,0.82812 v -4.10937 h 1.40625 v 11.45314 z m -4.4375,-4.14064 q 0,1.59375 0.67188,2.39062 0.67187,0.78127 1.57812,0.78127 0.92188,0 1.5625,-0.75002 0.65625,-0.76562 0.65625,-2.3125 0,-1.70312 -0.65625,-2.5 -0.65625,-0.79687 -1.625,-0.79687 -0.9375,0 -1.5625,0.76562 -0.625,0.76563 -0.625,2.42188 z m 12.01563,1.14062 1.46875,-0.125 q 0.17187,1.07813 0.76562,1.625 0.59375,0.53127 1.4375,0.53127 1.01563,0 1.71875,-0.76564 0.70313,-0.76563 0.70313,-2.03125 0,-1.20313 -0.67188,-1.89063 -0.67187,-0.70312 -1.76562,-0.70312 -0.6875,0 -1.23438,0.3125 -0.54687,0.3125 -0.85937,0.79687 l -1.3125,-0.17187 1.10937,-5.875 h 5.6875 v 1.34375 h -4.5625 l -0.625,3.07812 q 1.03125,-0.71875 2.17188,-0.71875 1.5,0 2.53125,1.04688 1.03125,1.03125 1.03125,2.65625 0,1.5625 -0.90625,2.6875 -1.10938,1.40627 -3.01563,1.40627 -1.5625,0 -2.54687,-0.875 -0.98438,-0.89065 -1.125,-2.32815 z"
       fill-rule="nonzero"
       id="path66" />
    <path
       fill="#000000"
       fill-opacity="0"
       d="m 434.89896,265.4672 h 74.20471 v 28.78741 h -74.20471 z"
       fill-rule="evenodd"
       id="path67" />
    <path
       fill="#000000"
       d="M 439.0552,285.62088 V 275.5115 h -3.78125 v -1.34375 h 9.07813 v 1.34375 h -3.78125 v 10.10938 z m 6.67969,0 v -11.45313 h 1.40625 v 4.10938 q 0.98437,-1.14063 2.48437,-1.14063 0.92188,0 1.59375,0.35938 0.6875,0.35937 0.96875,1 0.29688,0.64062 0.29688,1.85937 v 5.26563 h -1.40625 v -5.26563 q 0,-1.04687 -0.45313,-1.53125 -0.45312,-0.48437 -1.29687,-0.48437 -0.625,0 -1.17188,0.32812 -0.54687,0.32813 -0.78125,0.89063 -0.23437,0.54687 -0.23437,1.51562 v 4.54688 z m 8.88281,0 V 277.324 h 1.26563 v 1.25 q 0.48437,-0.875 0.89062,-1.15625 0.40625,-0.28125 0.90625,-0.28125 0.70313,0 1.4375,0.45313 l -0.48437,1.29687 q -0.51563,-0.29687 -1.03125,-0.29687 -0.45313,0 -0.82813,0.28125 -0.35937,0.26562 -0.51562,0.76562 -0.23438,0.75 -0.23438,1.64063 v 4.34375 z m 11.01563,-2.67188 1.45312,0.17188 q -0.34375,1.28125 -1.28125,1.98437 -0.92187,0.70313 -2.35937,0.70313 -1.82813,0 -2.89063,-1.125 -1.0625,-1.125 -1.0625,-3.14063 0,-2.09375 1.07813,-3.25 1.07812,-1.15625 2.79687,-1.15625 1.65625,0 2.70313,1.14063 1.0625,1.125 1.0625,3.17187 0,0.125 0,0.375 h -6.1875 q 0.0781,1.375 0.76562,2.10938 0.70313,0.71875 1.73438,0.71875 0.78125,0 1.32812,-0.40625 0.54688,-0.40625 0.85938,-1.29688 z m -4.60938,-2.28125 h 4.625 q -0.0937,-1.04687 -0.53125,-1.5625 -0.67187,-0.8125 -1.73437,-0.8125 -0.96875,0 -1.64063,0.65625 -0.65625,0.64063 -0.71875,1.71875 z m 13.24219,3.92188 q -0.78125,0.67187 -1.5,0.95312 -0.71875,0.26563 -1.54688,0.26563 -1.375,0 -2.10937,-0.67188 -0.73438,-0.67187 -0.73438,-1.70312 0,-0.60938 0.28125,-1.10938 0.28125,-0.51562 0.71875,-0.8125 0.45313,-0.3125 1.01563,-0.46875 0.42187,-0.10937 1.25,-0.20312 1.70312,-0.20313 2.51562,-0.48438 0,-0.29687 0,-0.375 0,-0.85937 -0.39062,-1.20312 -0.54688,-0.48438 -1.60938,-0.48438 -0.98437,0 -1.46875,0.35938 -0.46875,0.34375 -0.6875,1.21875 l -1.375,-0.1875 q 0.1875,-0.875 0.60938,-1.42188 0.4375,-0.54687 1.25,-0.82812 0.8125,-0.29688 1.875,-0.29688 1.0625,0 1.71875,0.25 0.67187,0.25 0.98437,0.625 0.3125,0.375 0.4375,0.95313 0.0781,0.35937 0.0781,1.29687 v 1.875 q 0,1.96875 0.0781,2.48438 0.0937,0.51562 0.35938,1 h -1.46875 q -0.21875,-0.4375 -0.28125,-1.03125 z m -0.10938,-3.14063 q -0.76562,0.3125 -2.29687,0.53125 -0.875,0.125 -1.23438,0.28125 -0.35937,0.15625 -0.5625,0.46875 -0.1875,0.29688 -0.1875,0.65625 0,0.5625 0.42188,0.9375 0.4375,0.375 1.25,0.375 0.8125,0 1.4375,-0.34375 0.64062,-0.35937 0.9375,-0.98437 0.23437,-0.46875 0.23437,-1.40625 z m 8.97657,4.17188 V 284.574 q -0.78125,1.23438 -2.3125,1.23438 -1,0 -1.82813,-0.54688 -0.82812,-0.54687 -1.29687,-1.53125 -0.45313,-0.98437 -0.45313,-2.25 0,-1.25 0.40625,-2.25 0.42188,-1.01562 1.25,-1.54687 0.82813,-0.54688 1.85938,-0.54688 0.75,0 1.32812,0.3125 0.59375,0.3125 0.95313,0.82813 v -4.10938 h 1.40625 v 11.45313 z m -4.4375,-4.14063 q 0,1.59375 0.67187,2.39063 0.67188,0.78125 1.57813,0.78125 0.92187,0 1.5625,-0.75 0.65625,-0.76563 0.65625,-2.3125 0,-1.70313 -0.65625,-2.5 -0.65625,-0.79688 -1.625,-0.79688 -0.9375,0 -1.5625,0.76563 -0.625,0.76562 -0.625,2.42187 z m 19.3125,-4.51562 -1.40625,0.10937 q -0.1875,-0.82812 -0.53125,-1.20312 -0.5625,-0.59375 -1.40625,-0.59375 -0.67188,0 -1.17188,0.375 -0.67187,0.48437 -1.0625,1.42187 -0.375,0.92188 -0.39062,2.64063 0.51562,-0.78125 1.25,-1.15625 0.73437,-0.375 1.53125,-0.375 1.40625,0 2.39062,1.04687 1,1.03125 1,2.67188 0,1.07812 -0.46875,2 -0.46875,0.92187 -1.28125,1.42187 -0.8125,0.5 -1.84375,0.5 -1.75,0 -2.85937,-1.29687 -1.10938,-1.29688 -1.10938,-4.26563 0,-3.32812 1.21875,-4.82812 1.07813,-1.3125 2.89063,-1.3125 1.34375,0 2.20312,0.76562 0.875,0.75 1.04688,2.07813 z m -5.75,4.9375 q 0,0.73437 0.3125,1.40625 0.3125,0.65625 0.85937,1 0.5625,0.34375 1.17188,0.34375 0.89062,0 1.53125,-0.71875 0.64062,-0.71875 0.64062,-1.95313 0,-1.1875 -0.64062,-1.85937 -0.625,-0.6875 -1.59375,-0.6875 -0.95313,0 -1.625,0.6875 -0.65625,0.67187 -0.65625,1.78125 z"
       fill-rule="nonzero"
       id="path68" />
    <path
       fill="#000000"
       fill-opacity="0"
       d="m 434.96194,294.61154 h 74.20471 v 28.78741 h -74.20471 z"
       fill-rule="evenodd"
       id="path69" />
    <path
       fill="#000000"
       d="m 439.1182,314.76526 v -10.10938 h -3.78125 v -1.34375 h 9.07812 v 1.34375 h -3.78125 v 10.10938 z m 6.67969,0 v -11.45313 h 1.40625 v 4.10938 q 0.98437,-1.14063 2.48437,-1.14063 0.92188,0 1.59375,0.35938 0.6875,0.35937 0.96875,1 0.29688,0.64062 0.29688,1.85937 v 5.26563 h -1.40625 v -5.26563 q 0,-1.04687 -0.45313,-1.53125 -0.45312,-0.48437 -1.29687,-0.48437 -0.625,0 -1.17188,0.32812 -0.54687,0.32813 -0.78125,0.89063 -0.23437,0.54687 -0.23437,1.51562 v 4.54688 z m 8.88281,0 v -8.29688 h 1.26562 v 1.25 q 0.48438,-0.875 0.89063,-1.15625 0.40625,-0.28125 0.90625,-0.28125 0.70312,0 1.4375,0.45313 l -0.48438,1.29687 q -0.51562,-0.29687 -1.03125,-0.29687 -0.45312,0 -0.82812,0.28125 -0.35938,0.26562 -0.51563,0.76562 -0.23437,0.75 -0.23437,1.64063 v 4.34375 z m 11.01562,-2.67188 1.45313,0.17188 q -0.34375,1.28125 -1.28125,1.98437 -0.92188,0.70313 -2.35938,0.70313 -1.82812,0 -2.89062,-1.125 -1.0625,-1.125 -1.0625,-3.14063 0,-2.09375 1.07812,-3.25 1.07813,-1.15625 2.79688,-1.15625 1.65625,0 2.70312,1.14063 1.0625,1.125 1.0625,3.17187 0,0.125 0,0.375 h -6.1875 q 0.0781,1.375 0.76563,2.10938 0.70312,0.71875 1.73437,0.71875 0.78125,0 1.32813,-0.40625 0.54687,-0.40625 0.85937,-1.29688 z m -4.60937,-2.28125 h 4.625 q -0.0937,-1.04687 -0.53125,-1.5625 -0.67188,-0.8125 -1.73438,-0.8125 -0.96875,0 -1.64062,0.65625 -0.65625,0.64063 -0.71875,1.71875 z m 13.24219,3.92188 q -0.78125,0.67187 -1.5,0.95312 -0.71875,0.26563 -1.54688,0.26563 -1.375,0 -2.10937,-0.67188 -0.73438,-0.67187 -0.73438,-1.70312 0,-0.60938 0.28125,-1.10938 0.28125,-0.51562 0.71875,-0.8125 0.45313,-0.3125 1.01563,-0.46875 0.42187,-0.10937 1.25,-0.20312 1.70312,-0.20313 2.51562,-0.48438 0,-0.29687 0,-0.375 0,-0.85937 -0.39062,-1.20312 -0.54688,-0.48438 -1.60938,-0.48438 -0.98437,0 -1.46875,0.35938 -0.46875,0.34375 -0.6875,1.21875 l -1.375,-0.1875 q 0.1875,-0.875 0.60938,-1.42188 0.4375,-0.54687 1.25,-0.82812 0.8125,-0.29688 1.875,-0.29688 1.0625,0 1.71875,0.25 0.67187,0.25 0.98437,0.625 0.3125,0.375 0.4375,0.95313 0.0781,0.35937 0.0781,1.29687 v 1.875 q 0,1.96875 0.0781,2.48438 0.0937,0.51562 0.35938,1 h -1.46875 q -0.21875,-0.4375 -0.28125,-1.03125 z m -0.10938,-3.14063 q -0.76562,0.3125 -2.29687,0.53125 -0.875,0.125 -1.23438,0.28125 -0.35937,0.15625 -0.5625,0.46875 -0.1875,0.29688 -0.1875,0.65625 0,0.5625 0.42188,0.9375 0.4375,0.375 1.25,0.375 0.8125,0 1.4375,-0.34375 0.64062,-0.35937 0.9375,-0.98437 0.23437,-0.46875 0.23437,-1.40625 z m 8.97656,4.17188 v -1.04688 q -0.78125,1.23438 -2.3125,1.23438 -1,0 -1.82812,-0.54688 -0.82813,-0.54687 -1.29688,-1.53125 -0.45312,-0.98437 -0.45312,-2.25 0,-1.25 0.40625,-2.25 0.42187,-1.01562 1.25,-1.54687 0.82812,-0.54688 1.85937,-0.54688 0.75,0 1.32813,0.3125 0.59375,0.3125 0.95312,0.82813 v -4.10938 h 1.40625 v 11.45313 z m -4.4375,-4.14063 q 0,1.59375 0.67188,2.39063 0.67187,0.78125 1.57812,0.78125 0.92188,0 1.5625,-0.75 0.65625,-0.76563 0.65625,-2.3125 0,-1.70313 -0.65625,-2.5 -0.65625,-0.79688 -1.625,-0.79688 -0.9375,0 -1.5625,0.76563 -0.625,0.76562 -0.625,2.42187 z m 12.10938,-5.8125 v -1.35937 h 7.40625 v 1.09375 q -1.09375,1.17187 -2.17188,3.10937 -1.0625,1.92188 -1.65625,3.95313 -0.42187,1.4375 -0.53125,3.15625 h -1.45312 q 0.0312,-1.35938 0.53125,-3.26563 0.51562,-1.92187 1.45312,-3.6875 0.95313,-1.78125 2.03125,-3 z"
       fill-rule="nonzero"
       id="path70" />
    <path
       fill="#efefef"
       d="m 513.4669,296.54697 h 806.3307 v 28.78741 H 513.4669 Z"
       fill-rule="evenodd"
       id="path71" />
    <path
       stroke="#000000"
       stroke-width="1"
       stroke-linejoin="round"
       stroke-linecap="butt"
       d="m 513.4669,296.54697 h 806.3307 v 28.78741 H 513.4669 Z"
       fill-rule="evenodd"
       id="path72" />
    <path
       fill="#cfe2f3"
       d="m 513.4659,94.9462 h 115.21259 v 28.7874 H 513.4659 Z"
       fill-rule="evenodd"
       id="path73" />
    <path
       stroke="#000000"
       stroke-width="1"
       stroke-linejoin="round"
       stroke-linecap="butt"
       d="m 513.4659,94.9462 h 115.21259 v 28.7874 H 513.4659 Z"
       fill-rule="evenodd"
       id="path74" />
    <path
       fill="#ea9999"
       d="m 561.46545,109.46851 v 0 c 0,-5.30542 4.3009,-9.606304 9.60632,-9.606304 v 0 c 2.54773,0 4.99115,1.012084 6.79267,2.813624 1.80151,1.80153 2.8136,4.24492 2.8136,6.79268 v 0 c 0,5.30541 -4.30085,9.6063 -9.60627,9.6063 v 0 c -5.30542,0 -9.60632,-4.30089 -9.60632,-9.6063 z"
       fill-rule="evenodd"
       id="path75" />
    <path
       stroke="#000000"
       stroke-width="1"
       stroke-linejoin="round"
       stroke-linecap="butt"
       d="m 561.46545,109.46851 v 0 c 0,-5.30542 4.3009,-9.606304 9.60632,-9.606304 v 0 c 2.54773,0 4.99115,1.012084 6.79267,2.813624 1.80151,1.80153 2.8136,4.24492 2.8136,6.79268 v 0 c 0,5.30541 -4.30085,9.6063 -9.60627,9.6063 v 0 c -5.30542,0 -9.60632,-4.30089 -9.60632,-9.6063 z"
       fill-rule="evenodd"
       id="path76" />
    <path
       fill="#cfe2f3"
       d="m 513.4659,123.74541 h 115.21259 v 28.7874 H 513.4659 Z"
       fill-rule="evenodd"
       id="path77" />
    <path
       stroke="#000000"
       stroke-width="1"
       stroke-linejoin="round"
       stroke-linecap="butt"
       d="m 513.4659,123.74541 h 115.21259 v 28.7874 H 513.4659 Z"
       fill-rule="evenodd"
       id="path78" />
    <path
       fill="#c9daf8"
       d="m 561.46545,138.26772 v 0 c 0,-5.3054 4.3009,-9.60629 9.60632,-9.60629 v 0 c 2.54773,0 4.99115,1.01208 6.79267,2.81361 1.80151,1.80153 2.8136,4.24493 2.8136,6.79268 v 0 c 0,5.30542 -4.30085,9.60629 -9.60627,9.60629 v 0 c -5.30542,0 -9.60632,-4.30087 -9.60632,-9.60629 z"
       fill-rule="evenodd"
       id="path79" />
    <path
       stroke="#000000"
       stroke-width="1"
       stroke-linejoin="round"
       stroke-linecap="butt"
       d="m 561.46545,138.26772 v 0 c 0,-5.3054 4.3009,-9.60629 9.60632,-9.60629 v 0 c 2.54773,0 4.99115,1.01208 6.79267,2.81361 1.80151,1.80153 2.8136,4.24493 2.8136,6.79268 v 0 c 0,5.30542 -4.30085,9.60629 -9.60627,9.60629 v 0 c -5.30542,0 -9.60632,-4.30087 -9.60632,-9.60629 z"
       fill-rule="evenodd"
       id="path80" />
    <path
       fill="#cfe2f3"
       d="m 513.4659,210.14699 h 115.21259 v 28.7874 H 513.4659 Z"
       fill-rule="evenodd"
       id="path81" />
    <path
       stroke="#000000"
       stroke-width="1"
       stroke-linejoin="round"
       stroke-linecap="butt"
       d="m 513.4659,210.14699 h 115.21259 v 28.7874 H 513.4659 Z"
       fill-rule="evenodd"
       id="path82" />
    <path
       fill="#ea9999"
       d="m 561.46545,224.6693 v 0 c 0,-5.30542 4.3009,-9.60631 9.60632,-9.60631 v 0 c 2.54773,0 4.99115,1.0121 6.79267,2.81363 1.80151,1.80153 2.8136,4.24492 2.8136,6.79268 v 0 c 0,5.3054 -4.30085,9.60629 -9.60627,9.60629 v 0 c -5.30542,0 -9.60632,-4.30088 -9.60632,-9.60629 z"
       fill-rule="evenodd"
       id="path83" />
    <path
       stroke="#000000"
       stroke-width="1"
       stroke-linejoin="round"
       stroke-linecap="butt"
       d="m 561.46545,224.6693 v 0 c 0,-5.30542 4.3009,-9.60631 9.60632,-9.60631 v 0 c 2.54773,0 4.99115,1.0121 6.79267,2.81363 1.80151,1.80153 2.8136,4.24492 2.8136,6.79268 v 0 c 0,5.3054 -4.30085,9.60629 -9.60627,9.60629 v 0 c -5.30542,0 -9.60632,-4.30088 -9.60632,-9.60629 z"
       fill-rule="evenodd"
       id="path84" />
    <path
       fill="#cfe2f3"
       d="m 513.4659,238.9462 h 115.21259 v 28.78738 H 513.4659 Z"
       fill-rule="evenodd"
       id="path85" />
    <path
       stroke="#000000"
       stroke-width="1"
       stroke-linejoin="round"
       stroke-linecap="butt"
       d="m 513.4659,238.9462 h 115.21259 v 28.78738 H 513.4659 Z"
       fill-rule="evenodd"
       id="path86" />
    <path
       fill="#ea9999"
       d="m 561.46545,253.4685 v 0 c 0,-5.30542 4.3009,-9.60631 9.60632,-9.60631 v 0 c 2.54773,0 4.99115,1.0121 6.79267,2.81363 1.80151,1.80153 2.8136,4.24494 2.8136,6.79268 v 0 c 0,5.30542 -4.30085,9.60629 -9.60627,9.60629 v 0 c -5.30542,0 -9.60632,-4.30087 -9.60632,-9.60629 z"
       fill-rule="evenodd"
       id="path87" />
    <path
       stroke="#000000"
       stroke-width="1"
       stroke-linejoin="round"
       stroke-linecap="butt"
       d="m 561.46545,253.4685 v 0 c 0,-5.30542 4.3009,-9.60631 9.60632,-9.60631 v 0 c 2.54773,0 4.99115,1.0121 6.79267,2.81363 1.80151,1.80153 2.8136,4.24494 2.8136,6.79268 v 0 c 0,5.30542 -4.30085,9.60629 -9.60627,9.60629 v 0 c -5.30542,0 -9.60632,-4.30087 -9.60632,-9.60629 z"
       fill-rule="evenodd"
       id="path88" />
    <path
       fill="#cfe2f3"
       d="m 513.4659,267.7467 h 115.21259 v 28.78741 H 513.4659 Z"
       fill-rule="evenodd"
       id="path89" />
    <path
       stroke="#000000"
       stroke-width="1"
       stroke-linejoin="round"
       stroke-linecap="butt"
       d="m 513.4659,267.7467 h 115.21259 v 28.78741 H 513.4659 Z"
       fill-rule="evenodd"
       id="path90" />
    <path
       fill="#c9daf8"
       d="m 561.46545,282.26904 v 0 c 0,-5.30542 4.3009,-9.60632 9.60632,-9.60632 v 0 c 2.54773,0 4.99115,1.01208 6.79267,2.81363 1.80151,1.80154 2.8136,4.24493 2.8136,6.79269 v 0 c 0,5.30539 -4.30085,9.60629 -9.60627,9.60629 v 0 c -5.30542,0 -9.60632,-4.3009 -9.60632,-9.60629 z"
       fill-rule="evenodd"
       id="path91" />
    <path
       stroke="#000000"
       stroke-width="1"
       stroke-linejoin="round"
       stroke-linecap="butt"
       d="m 561.46545,282.26904 v 0 c 0,-5.30542 4.3009,-9.60632 9.60632,-9.60632 v 0 c 2.54773,0 4.99115,1.01208 6.79267,2.81363 1.80151,1.80154 2.8136,4.24493 2.8136,6.79269 v 0 c 0,5.30539 -4.30085,9.60629 -9.60627,9.60629 v 0 c -5.30542,0 -9.60632,-4.3009 -9.60632,-9.60629 z"
       fill-rule="evenodd"
       id="path92" />
    <path
       fill="#cfe2f3"
       d="m 513.4659,296.54724 h 115.21259 v 28.78741 H 513.4659 Z"
       fill-rule="evenodd"
       id="path93" />
    <path
       stroke="#000000"
       stroke-width="1"
       stroke-linejoin="round"
       stroke-linecap="butt"
       d="m 513.4659,296.54724 h 115.21259 v 28.78741 H 513.4659 Z"
       fill-rule="evenodd"
       id="path94" />
    <path
       fill="#c9daf8"
       d="m 561.46545,311.06955 v 0 c 0,-5.30542 4.3009,-9.60629 9.60632,-9.60629 v 0 c 2.54773,0 4.99115,1.01208 6.79267,2.81363 1.80151,1.80151 2.8136,4.24493 2.8136,6.79266 v 0 c 0,5.30542 -4.30085,9.60629 -9.60627,9.60629 v 0 c -5.30542,0 -9.60632,-4.30087 -9.60632,-9.60629 z"
       fill-rule="evenodd"
       id="path95" />
    <path
       stroke="#000000"
       stroke-width="1"
       stroke-linejoin="round"
       stroke-linecap="butt"
       d="m 561.46545,311.06955 v 0 c 0,-5.30542 4.3009,-9.60629 9.60632,-9.60629 v 0 c 2.54773,0 4.99115,1.01208 6.79267,2.81363 1.80151,1.80151 2.8136,4.24493 2.8136,6.79266 v 0 c 0,5.30542 -4.30085,9.60629 -9.60627,9.60629 v 0 c -5.30542,0 -9.60632,-4.30087 -9.60632,-9.60629 z"
       fill-rule="evenodd"
       id="path96" />
    <path
       fill="#ea9999"
       d="m 686.2669,210.1483 h 115.21265 v 28.7874 H 686.2669 Z"
       fill-rule="evenodd"
       id="path97" />
    <path
       stroke="#000000"
       stroke-width="1"
       stroke-linejoin="round"
       stroke-linecap="butt"
       d="m 686.2669,210.1483 h 115.21265 v 28.7874 H 686.2669 Z"
       fill-rule="evenodd"
       id="path98" />
    <path
       fill="#ea9999"
       d="m 686.2669,239.20604 h 115.21265 v 28.7874 H 686.2669 Z"
       fill-rule="evenodd"
       id="path99" />
    <path
       stroke="#000000"
       stroke-width="1"
       stroke-linejoin="round"
       stroke-linecap="butt"
       d="m 686.2669,239.20604 h 115.21265 v 28.7874 H 686.2669 Z"
       fill-rule="evenodd"
       id="path100" />
    <path
       fill="#ea9999"
       d="m 686.2669,268.00656 h 115.21265 v 28.78741 H 686.2669 Z"
       fill-rule="evenodd"
       id="path101" />
    <path
       stroke="#000000"
       stroke-width="1"
       stroke-linejoin="round"
       stroke-linecap="butt"
       d="m 686.2669,268.00656 h 115.21265 v 28.78741 H 686.2669 Z"
       fill-rule="evenodd"
       id="path102" />
    <path
       fill="#ea9999"
       d="m 686.2669,296.8058 h 115.21265 v 28.78738 H 686.2669 Z"
       fill-rule="evenodd"
       id="path103" />
    <path
       stroke="#000000"
       stroke-width="1"
       stroke-linejoin="round"
       stroke-linecap="butt"
       d="m 686.2669,296.8058 h 115.21265 v 28.78738 H 686.2669 Z"
       fill-rule="evenodd"
       id="path104" />
    <path
       fill="#cfe2f3"
       d="M 686.2664,37.34698 H 801.47898 V 66.134383 H 686.2664 Z"
       fill-rule="evenodd"
       id="path105" />
    <path
       stroke="#000000"
       stroke-width="1"
       stroke-linejoin="round"
       stroke-linecap="butt"
       d="M 686.2664,37.34698 H 801.47898 V 66.134383 H 686.2664 Z"
       fill-rule="evenodd"
       id="path106" />
    <path
       fill="#cfe2f3"
       d="m 686.2664,66.404724 h 115.21258 v 28.7874 H 686.2664 Z"
       fill-rule="evenodd"
       id="path107" />
    <path
       stroke="#000000"
       stroke-width="1"
       stroke-linejoin="round"
       stroke-linecap="butt"
       d="m 686.2664,66.404724 h 115.21258 v 28.7874 H 686.2664 Z"
       fill-rule="evenodd"
       id="path108" />
    <path
       fill="#cfe2f3"
       d="M 686.2664,95.205246 H 801.47898 V 123.99265 H 686.2664 Z"
       fill-rule="evenodd"
       id="path109" />
    <path
       stroke="#000000"
       stroke-width="1"
       stroke-linejoin="round"
       stroke-linecap="butt"
       d="M 686.2664,95.205246 H 801.47898 V 123.99265 H 686.2664 Z"
       fill-rule="evenodd"
       id="path110" />
    <path
       fill="#cfe2f3"
       d="m 686.2664,124.00446 h 115.21258 v 28.78741 H 686.2664 Z"
       fill-rule="evenodd"
       id="path111" />
    <path
       stroke="#000000"
       stroke-width="1"
       stroke-linejoin="round"
       stroke-linecap="butt"
       d="m 686.2664,124.00446 h 115.21258 v 28.78741 H 686.2664 Z"
       fill-rule="evenodd"
       id="path112" />
    <path
       fill="#d9d9d9"
       d="m 733.6247,133.82399 5.0293,-4.86955 5.21869,5.38992 5.21875,-5.38992 5.02929,4.86955 -5.37591,5.55228 5.37591,5.55229 -5.02929,4.86955 -5.21875,-5.38994 -5.21869,5.38994 -5.0293,-4.86955 5.37592,-5.55229 z"
       fill-rule="evenodd"
       id="path113" />
    <path
       stroke="#000000"
       stroke-width="1"
       stroke-linejoin="round"
       stroke-linecap="butt"
       d="m 733.6247,133.82399 5.0293,-4.86955 5.21869,5.38992 5.21875,-5.38992 5.02929,4.86955 -5.37591,5.55228 5.37591,5.55229 -5.02929,4.86955 -5.21875,-5.38994 -5.21869,5.38994 -5.0293,-4.86955 5.37592,-5.55229 z"
       fill-rule="evenodd"
       id="path114" />
    <path
       fill="#d9ead3"
       d="m 628.6706,37.62859 h 57.60632 V 325.34511 H 628.6706 Z"
       fill-rule="evenodd"
       id="path115" />
    <path
       stroke="#000000"
       stroke-width="1"
       stroke-linejoin="round"
       stroke-linecap="butt"
       d="m 628.6706,37.62859 h 57.60632 V 325.34511 H 628.6706 Z"
       fill-rule="evenodd"
       id="path116" />
    <path
       fill="#d9d9d9"
       d="m 733.6247,278.08383 5.0293,-4.86954 5.21869,5.38993 5.21875,-5.38993 5.02929,4.86954 -5.37591,5.55228 5.37591,5.5523 -5.02929,4.86954 -5.21875,-5.38992 -5.21869,5.38992 -5.0293,-4.86954 5.37592,-5.5523 z"
       fill-rule="evenodd"
       id="path117" />
    <path
       stroke="#000000"
       stroke-width="1"
       stroke-linejoin="round"
       stroke-linecap="butt"
       d="m 733.6247,278.08383 5.0293,-4.86954 5.21869,5.38993 5.21875,-5.38993 5.02929,4.86954 -5.37591,5.55228 5.37591,5.5523 -5.02929,4.86954 -5.21875,-5.38992 -5.21869,5.38992 -5.0293,-4.86954 5.37592,-5.5523 z"
       fill-rule="evenodd"
       id="path118" />
    <path
       fill="#ea9999"
       d="m 734.266,224.53937 v 0 c 0,-5.3054 4.3009,-9.60629 9.60626,-9.60629 v 0 c 2.54779,0 4.99115,1.01208 6.79273,2.81361 1.80151,1.80153 2.8136,4.24493 2.8136,6.79268 v 0 c 0,5.30542 -4.30091,9.60631 -9.60633,9.60631 v 0 c -5.30536,0 -9.60626,-4.30089 -9.60626,-9.60631 z"
       fill-rule="evenodd"
       id="path119" />
    <path
       stroke="#000000"
       stroke-width="1"
       stroke-linejoin="round"
       stroke-linecap="butt"
       d="m 734.266,224.53937 v 0 c 0,-5.3054 4.3009,-9.60629 9.60626,-9.60629 v 0 c 2.54779,0 4.99115,1.01208 6.79273,2.81361 1.80151,1.80153 2.8136,4.24493 2.8136,6.79268 v 0 c 0,5.30542 -4.30091,9.60631 -9.60633,9.60631 v 0 c -5.30536,0 -9.60626,-4.30089 -9.60626,-9.60631 z"
       fill-rule="evenodd"
       id="path120" />
    <path
       fill="#cfe2f3"
       d="m 734.266,109.59712 v 0 c 0,-5.30542 4.3009,-9.606305 9.60626,-9.606305 v 0 c 2.54779,0 4.99115,1.012085 6.79273,2.813625 1.80151,1.80153 2.8136,4.24492 2.8136,6.79268 v 0 c 0,5.30541 -4.30091,9.6063 -9.60633,9.6063 v 0 c -5.30536,0 -9.60626,-4.30089 -9.60626,-9.6063 z"
       fill-rule="evenodd"
       id="path121" />
    <path
       stroke="#000000"
       stroke-width="1"
       stroke-linejoin="round"
       stroke-linecap="butt"
       d="m 734.266,109.59712 v 0 c 0,-5.30542 4.3009,-9.606305 9.60626,-9.606305 v 0 c 2.54779,0 4.99115,1.012085 6.79273,2.813625 1.80151,1.80153 2.8136,4.24492 2.8136,6.79268 v 0 c 0,5.30541 -4.30091,9.6063 -9.60633,9.6063 v 0 c -5.30536,0 -9.60626,-4.30089 -9.60626,-9.6063 z"
       fill-rule="evenodd"
       id="path122" />
    <path
       fill="#cfe2f3"
       d="m 734.266,253.59973 v 0 c 0,-5.3054 4.3009,-9.60629 9.60626,-9.60629 v 0 c 2.54779,0 4.99115,1.01208 6.79273,2.81361 1.80151,1.80153 2.8136,4.24493 2.8136,6.79268 v 0 c 0,5.30542 -4.30091,9.60629 -9.60633,9.60629 v 0 c -5.30536,0 -9.60626,-4.30087 -9.60626,-9.60629 z"
       fill-rule="evenodd"
       id="path123" />
    <path
       stroke="#000000"
       stroke-width="1"
       stroke-linejoin="round"
       stroke-linecap="butt"
       d="m 734.266,253.59973 v 0 c 0,-5.3054 4.3009,-9.60629 9.60626,-9.60629 v 0 c 2.54779,0 4.99115,1.01208 6.79273,2.81361 1.80151,1.80153 2.8136,4.24493 2.8136,6.79268 v 0 c 0,5.30542 -4.30091,9.60629 -9.60633,9.60629 v 0 c -5.30536,0 -9.60626,-4.30087 -9.60626,-9.60629 z"
       fill-rule="evenodd"
       id="path124" />
    <path
       fill="#ea9999"
       d="m 734.266,51.75328 v 0 c 0,-5.305412 4.3009,-9.6063 9.60626,-9.6063 v 0 c 2.54779,0 4.99115,1.012089 6.79273,2.813621 1.80151,1.801529 2.8136,4.244931 2.8136,6.792679 v 0 c 0,5.305413 -4.30091,9.6063 -9.60633,9.6063 v 0 c -5.30536,0 -9.60626,-4.300888 -9.60626,-9.6063 z"
       fill-rule="evenodd"
       id="path125" />
    <path
       stroke="#000000"
       stroke-width="1"
       stroke-linejoin="round"
       stroke-linecap="butt"
       d="m 734.266,51.75328 v 0 c 0,-5.305412 4.3009,-9.6063 9.60626,-9.6063 v 0 c 2.54779,0 4.99115,1.012089 6.79273,2.813621 1.80151,1.801529 2.8136,4.244931 2.8136,6.792679 v 0 c 0,5.305413 -4.30091,9.6063 -9.60633,9.6063 v 0 c -5.30536,0 -9.60626,-4.300888 -9.60626,-9.6063 z"
       fill-rule="evenodd"
       id="path126" />
    <path
       fill="#ea9999"
       d="m 734.266,80.66798 v 0 c 0,-5.305412 4.3009,-9.6063 9.60626,-9.6063 v 0 c 2.54779,0 4.99115,1.012093 6.79273,2.813621 1.80151,1.801529 2.8136,4.244934 2.8136,6.792679 v 0 c 0,5.305413 -4.30091,9.606301 -9.60633,9.606301 v 0 c -5.30536,0 -9.60626,-4.300888 -9.60626,-9.606301 z"
       fill-rule="evenodd"
       id="path127" />
    <path
       stroke="#000000"
       stroke-width="1"
       stroke-linejoin="round"
       stroke-linecap="butt"
       d="m 734.266,80.66798 v 0 c 0,-5.305412 4.3009,-9.6063 9.60626,-9.6063 v 0 c 2.54779,0 4.99115,1.012093 6.79273,2.813621 1.80151,1.801529 2.8136,4.244934 2.8136,6.792679 v 0 c 0,5.305413 -4.30091,9.606301 -9.60633,9.606301 v 0 c -5.30536,0 -9.60626,-4.300888 -9.60626,-9.606301 z"
       fill-rule="evenodd"
       id="path128" />
    <path
       fill="#ea9999"
       d="m 734.266,310.95328 v 0 c 0,-5.30542 4.3009,-9.60629 9.60626,-9.60629 v 0 c 2.54779,0 4.99115,1.01208 6.79273,2.81363 1.80151,1.80151 2.8136,4.2449 2.8136,6.79266 v 0 c 0,5.30542 -4.30091,9.60629 -9.60633,9.60629 v 0 c -5.30536,0 -9.60626,-4.30087 -9.60626,-9.60629 z"
       fill-rule="evenodd"
       id="path129" />
    <path
       stroke="#000000"
       stroke-width="1"
       stroke-linejoin="round"
       stroke-linecap="butt"
       d="m 734.266,310.95328 v 0 c 0,-5.30542 4.3009,-9.60629 9.60626,-9.60629 v 0 c 2.54779,0 4.99115,1.01208 6.79273,2.81363 1.80151,1.80151 2.8136,4.2449 2.8136,6.79266 v 0 c 0,5.30542 -4.30091,9.60629 -9.60633,9.60629 v 0 c -5.30536,0 -9.60626,-4.30087 -9.60626,-9.60629 z"
       fill-rule="evenodd"
       id="path130" />
    <path
       fill="#cfe2f3"
       d="M 859.06696,37.34698 H 974.27954 V 66.134383 H 859.06696 Z"
       fill-rule="evenodd"
       id="path131" />
    <path
       stroke="#000000"
       stroke-width="1"
       stroke-linejoin="round"
       stroke-linecap="butt"
       d="M 859.06696,37.34698 H 974.27954 V 66.134383 H 859.06696 Z"
       fill-rule="evenodd"
       id="path132" />
    <path
       fill="#cfe2f3"
       d="m 859.06696,66.146194 h 115.21258 v 28.7874 H 859.06696 Z"
       fill-rule="evenodd"
       id="path133" />
    <path
       stroke="#000000"
       stroke-width="1"
       stroke-linejoin="round"
       stroke-linecap="butt"
       d="m 859.06696,66.146194 h 115.21258 v 28.7874 H 859.06696 Z"
       fill-rule="evenodd"
       id="path134" />
    <path
       fill="#ea9999"
       d="m 859.06744,210.1483 h 115.21259 v 28.7874 H 859.06744 Z"
       fill-rule="evenodd"
       id="path135" />
    <path
       stroke="#000000"
       stroke-width="1"
       stroke-linejoin="round"
       stroke-linecap="butt"
       d="m 859.06744,210.1483 h 115.21259 v 28.7874 H 859.06744 Z"
       fill-rule="evenodd"
       id="path136" />
    <path
       fill="#ea9999"
       d="m 859.06744,239.20604 h 115.21259 v 28.7874 H 859.06744 Z"
       fill-rule="evenodd"
       id="path137" />
    <path
       stroke="#000000"
       stroke-width="1"
       stroke-linejoin="round"
       stroke-linecap="butt"
       d="m 859.06744,239.20604 h 115.21259 v 28.7874 H 859.06744 Z"
       fill-rule="evenodd"
       id="path138" />
    <path
       fill="#ea9999"
       d="m 859.06744,268.00656 h 115.21259 v 28.78741 H 859.06744 Z"
       fill-rule="evenodd"
       id="path139" />
    <path
       stroke="#000000"
       stroke-width="1"
       stroke-linejoin="round"
       stroke-linecap="butt"
       d="m 859.06744,268.00656 h 115.21259 v 28.78741 H 859.06744 Z"
       fill-rule="evenodd"
       id="path140" />
    <path
       fill="#d9ead3"
       d="m 974.26904,37.62859 h 57.60636 v 287.71652 h -57.60636 z"
       fill-rule="evenodd"
       id="path141" />
    <path
       stroke="#000000"
       stroke-width="1"
       stroke-linejoin="round"
       stroke-linecap="butt"
       d="m 974.26904,37.62859 h 57.60636 v 287.71652 h -57.60636 z"
       fill-rule="evenodd"
       id="path142" />
    <path
       fill="#ea9999"
       d="m 859.06744,296.8058 h 115.21259 v 28.78738 H 859.06744 Z"
       fill-rule="evenodd"
       id="path143" />
    <path
       stroke="#000000"
       stroke-width="1"
       stroke-linejoin="round"
       stroke-linecap="butt"
       d="m 859.06744,296.8058 h 115.21259 v 28.78738 H 859.06744 Z"
       fill-rule="evenodd"
       id="path144" />
    <path
       fill="#cfe2f3"
       d="m 907.0665,253.47113 v 0 c 0,-5.30542 4.30084,-9.60631 9.60626,-9.60631 v 0 c 2.54779,0 4.99115,1.0121 6.79273,2.81363 1.80151,1.80153 2.8136,4.24494 2.8136,6.79268 v 0 c 0,5.30542 -4.30091,9.60629 -9.60633,9.60629 v 0 c -5.30542,0 -9.60626,-4.30087 -9.60626,-9.60629 z"
       fill-rule="evenodd"
       id="path145" />
    <path
       stroke="#000000"
       stroke-width="1"
       stroke-linejoin="round"
       stroke-linecap="butt"
       d="m 907.0665,253.47113 v 0 c 0,-5.30542 4.30084,-9.60631 9.60626,-9.60631 v 0 c 2.54779,0 4.99115,1.0121 6.79273,2.81363 1.80151,1.80153 2.8136,4.24494 2.8136,6.79268 v 0 c 0,5.30542 -4.30091,9.60629 -9.60633,9.60629 v 0 c -5.30542,0 -9.60626,-4.30087 -9.60626,-9.60629 z"
       fill-rule="evenodd"
       id="path146" />
    <path
       fill="#cfe2f3"
       d="m 907.0665,80.66798 v 0 c 0,-5.305412 4.30084,-9.6063 9.60626,-9.6063 v 0 c 2.54779,0 4.99115,1.012093 6.79273,2.813621 1.80151,1.801529 2.8136,4.244934 2.8136,6.792679 v 0 c 0,5.305413 -4.30091,9.606301 -9.60633,9.606301 v 0 c -5.30542,0 -9.60626,-4.300888 -9.60626,-9.606301 z"
       fill-rule="evenodd"
       id="path147" />
    <path
       stroke="#000000"
       stroke-width="1"
       stroke-linejoin="round"
       stroke-linecap="butt"
       d="m 907.0665,80.66798 v 0 c 0,-5.305412 4.30084,-9.6063 9.60626,-9.6063 v 0 c 2.54779,0 4.99115,1.012093 6.79273,2.813621 1.80151,1.801529 2.8136,4.244934 2.8136,6.792679 v 0 c 0,5.305413 -4.30091,9.606301 -9.60633,9.606301 v 0 c -5.30542,0 -9.60626,-4.300888 -9.60626,-9.606301 z"
       fill-rule="evenodd"
       id="path148" />
    <path
       fill="#ea9999"
       d="m 907.0665,51.74147 v 0 c 0,-5.305412 4.30084,-9.6063 9.60626,-9.6063 v 0 c 2.54779,0 4.99115,1.012089 6.79273,2.813621 1.80151,1.801529 2.8136,4.244931 2.8136,6.792679 v 0 c 0,5.305413 -4.30091,9.6063 -9.60633,9.6063 v 0 c -5.30542,0 -9.60626,-4.300888 -9.60626,-9.6063 z"
       fill-rule="evenodd"
       id="path149" />
    <path
       stroke="#000000"
       stroke-width="1"
       stroke-linejoin="round"
       stroke-linecap="butt"
       d="m 907.0665,51.74147 v 0 c 0,-5.305412 4.30084,-9.6063 9.60626,-9.6063 v 0 c 2.54779,0 4.99115,1.012089 6.79273,2.813621 1.80151,1.801529 2.8136,4.244931 2.8136,6.792679 v 0 c 0,5.305413 -4.30091,9.6063 -9.60633,9.6063 v 0 c -5.30542,0 -9.60626,-4.300888 -9.60626,-9.6063 z"
       fill-rule="evenodd"
       id="path150" />
    <path
       fill="#ea9999"
       d="m 907.0665,282.6601 v 0 c 0,-5.30539 4.30084,-9.60629 9.60626,-9.60629 v 0 c 2.54779,0 4.99115,1.01208 6.79273,2.81363 1.80151,1.80151 2.8136,4.24493 2.8136,6.79266 v 0 c 0,5.30542 -4.30091,9.60632 -9.60633,9.60632 v 0 c -5.30542,0 -9.60626,-4.3009 -9.60626,-9.60632 z"
       fill-rule="evenodd"
       id="path151" />
    <path
       stroke="#000000"
       stroke-width="1"
       stroke-linejoin="round"
       stroke-linecap="butt"
       d="m 907.0665,282.6601 v 0 c 0,-5.30539 4.30084,-9.60629 9.60626,-9.60629 v 0 c 2.54779,0 4.99115,1.01208 6.79273,2.81363 1.80151,1.80151 2.8136,4.24493 2.8136,6.79266 v 0 c 0,5.30542 -4.30091,9.60632 -9.60633,9.60632 v 0 c -5.30542,0 -9.60626,-4.3009 -9.60626,-9.60632 z"
       fill-rule="evenodd"
       id="path152" />
    <path
       fill="#d9d9d9"
       d="m 906.42523,306.62714 5.02924,-4.86954 5.21875,5.38993 5.21875,-5.38993 5.02929,4.86954 -5.37597,5.55228 5.37597,5.5523 -5.02929,4.86954 -5.21875,-5.38992 -5.21875,5.38992 -5.02924,-4.86954 5.37592,-5.5523 z"
       fill-rule="evenodd"
       id="path153" />
    <path
       stroke="#000000"
       stroke-width="1"
       stroke-linejoin="round"
       stroke-linecap="butt"
       d="m 906.42523,306.62714 5.02924,-4.86954 5.21875,5.38993 5.21875,-5.38993 5.02929,4.86954 -5.37597,5.55228 5.37597,5.5523 -5.02929,4.86954 -5.21875,-5.38992 -5.21875,5.38992 -5.02924,-4.86954 5.37592,-5.5523 z"
       fill-rule="evenodd"
       id="path154" />
    <path
       fill="#d9d9d9"
       d="m 906.42523,220.34499 5.02924,-4.86955 5.21875,5.38994 5.21875,-5.38994 5.02929,4.86955 -5.37597,5.55229 5.37597,5.55228 -5.02929,4.86955 -5.21875,-5.38994 -5.21875,5.38994 -5.02924,-4.86955 5.37592,-5.55228 z"
       fill-rule="evenodd"
       id="path155" />
    <path
       stroke="#000000"
       stroke-width="1"
       stroke-linejoin="round"
       stroke-linecap="butt"
       d="m 906.42523,220.34499 5.02924,-4.86955 5.21875,5.38994 5.21875,-5.38994 5.02929,4.86955 -5.37597,5.55229 5.37597,5.55228 -5.02929,4.86955 -5.21875,-5.38994 -5.21875,5.38994 -5.02924,-4.86955 5.37592,-5.55228 z"
       fill-rule="evenodd"
       id="path156" />
    <path
       fill="#ea9999"
       d="m 1031.867,210.1483 h 115.2125 v 28.7874 H 1031.867 Z"
       fill-rule="evenodd"
       id="path157" />
    <path
       stroke="#000000"
       stroke-width="1"
       stroke-linejoin="round"
       stroke-linecap="butt"
       d="m 1031.867,210.1483 h 115.2125 v 28.7874 H 1031.867 Z"
       fill-rule="evenodd"
       id="path158" />
    <path
       fill="#ea9999"
       d="m 1031.867,238.94751 h 115.2125 v 28.78738 H 1031.867 Z"
       fill-rule="evenodd"
       id="path159" />
    <path
       stroke="#000000"
       stroke-width="1"
       stroke-linejoin="round"
       stroke-linecap="butt"
       d="m 1031.867,238.94751 h 115.2125 v 28.78738 H 1031.867 Z"
       fill-rule="evenodd"
       id="path160" />
    <path
       fill="#cfe2f3"
       d="m 1031.8674,37.34698 h 115.2127 v 28.787403 h -115.2127 z"
       fill-rule="evenodd"
       id="path161" />
    <path
       stroke="#000000"
       stroke-width="1"
       stroke-linejoin="round"
       stroke-linecap="butt"
       d="m 1031.8674,37.34698 h 115.2127 v 28.787403 h -115.2127 z"
       fill-rule="evenodd"
       id="path162" />
    <path
       fill="#cfe2f3"
       d="m 1031.8674,66.146194 h 115.2127 v 28.7874 h -115.2127 z"
       fill-rule="evenodd"
       id="path163" />
    <path
       stroke="#000000"
       stroke-width="1"
       stroke-linejoin="round"
       stroke-linecap="butt"
       d="m 1031.8674,66.146194 h 115.2127 v 28.7874 h -115.2127 z"
       fill-rule="evenodd"
       id="path164" />
    <path
       fill="#d9ead3"
       d="m 801.4698,37.61809 h 57.60632 V 325.33461 H 801.4698 Z"
       fill-rule="evenodd"
       id="path165" />
    <path
       stroke="#000000"
       stroke-width="1"
       stroke-linejoin="round"
       stroke-linecap="butt"
       d="m 801.4698,37.61809 h 57.60632 V 325.33461 H 801.4698 Z"
       fill-rule="evenodd"
       id="path166" />
    <path
       fill="#d9d9d9"
       d="m 1079.2257,47.135006 5.0293,-4.869541 5.2187,5.389927 5.2188,-5.389927 5.0293,4.869541 -5.376,5.552292 5.376,5.552288 -5.0293,4.869545 -5.2188,-5.389927 -5.2187,5.389927 -5.0293,-4.869545 5.376,-5.552288 z"
       fill-rule="evenodd"
       id="path167" />
    <path
       stroke="#000000"
       stroke-width="1"
       stroke-linejoin="round"
       stroke-linecap="butt"
       d="m 1079.2257,47.135006 5.0293,-4.869541 5.2187,5.389927 5.2188,-5.389927 5.0293,4.869541 -5.376,5.552292 5.376,5.552288 -5.0293,4.869545 -5.2188,-5.389927 -5.2187,5.389927 -5.0293,-4.869545 5.376,-5.552288 z"
       fill-rule="evenodd"
       id="path168" />
    <path
       fill="#cfe2f3"
       d="m 1079.8671,225.76378 v 0 c 0,-5.3054 4.3009,-9.60629 9.6063,-9.60629 v 0 c 2.5478,0 4.9911,1.01208 6.7926,2.81361 1.8015,1.80153 2.8136,4.24493 2.8136,6.79268 v 0 c 0,5.30542 -4.3009,9.60629 -9.6062,9.60629 v 0 c -5.3054,0 -9.6063,-4.30087 -9.6063,-9.60629 z"
       fill-rule="evenodd"
       id="path169" />
    <path
       stroke="#000000"
       stroke-width="1"
       stroke-linejoin="round"
       stroke-linecap="butt"
       d="m 1079.8671,225.76378 v 0 c 0,-5.3054 4.3009,-9.60629 9.6063,-9.60629 v 0 c 2.5478,0 4.9911,1.01208 6.7926,2.81361 1.8015,1.80153 2.8136,4.24493 2.8136,6.79268 v 0 c 0,5.30542 -4.3009,9.60629 -9.6062,9.60629 v 0 c -5.3054,0 -9.6063,-4.30087 -9.6063,-9.60629 z"
       fill-rule="evenodd"
       id="path170" />
    <path
       fill="#ea9999"
       d="m 1079.8671,253.3412 v 0 c 0,-5.3054 4.3009,-9.60629 9.6063,-9.60629 v 0 c 2.5478,0 4.9911,1.01208 6.7926,2.81361 1.8015,1.80153 2.8136,4.24493 2.8136,6.79268 v 0 c 0,5.3054 -4.3009,9.60631 -9.6062,9.60631 v 0 c -5.3054,0 -9.6063,-4.30091 -9.6063,-9.60631 z"
       fill-rule="evenodd"
       id="path171" />
    <path
       stroke="#000000"
       stroke-width="1"
       stroke-linejoin="round"
       stroke-linecap="butt"
       d="m 1079.8671,253.3412 v 0 c 0,-5.3054 4.3009,-9.60629 9.6063,-9.60629 v 0 c 2.5478,0 4.9911,1.01208 6.7926,2.81361 1.8015,1.80153 2.8136,4.24493 2.8136,6.79268 v 0 c 0,5.3054 -4.3009,9.60631 -9.6062,9.60631 v 0 c -5.3054,0 -9.6063,-4.30091 -9.6063,-9.60631 z"
       fill-rule="evenodd"
       id="path172" />
    <path
       fill="#d9d9d9"
       d="m 1079.2257,74.98802 5.0293,-4.869537 5.2187,5.389923 5.2188,-5.389923 5.0293,4.869537 -5.376,5.552292 5.376,5.552292 -5.0293,4.869545 -5.2188,-5.389931 -5.2187,5.389931 -5.0293,-4.869545 5.376,-5.552292 z"
       fill-rule="evenodd"
       id="path173" />
    <path
       stroke="#000000"
       stroke-width="1"
       stroke-linejoin="round"
       stroke-linecap="butt"
       d="m 1079.2257,74.98802 5.0293,-4.869537 5.2187,5.389923 5.2188,-5.389923 5.0293,4.869537 -5.376,5.552292 5.376,5.552292 -5.0293,4.869545 -5.2188,-5.389931 -5.2187,5.389931 -5.0293,-4.869545 5.376,-5.552292 z"
       fill-rule="evenodd"
       id="path174" />
    <path
       fill="#ea9999"
       d="m 1204.6669,210.14699 h 115.2126 v 28.7874 h -115.2126 z"
       fill-rule="evenodd"
       id="path175" />
    <path
       stroke="#000000"
       stroke-width="1"
       stroke-linejoin="round"
       stroke-linecap="butt"
       d="m 1204.6669,210.14699 h 115.2126 v 28.7874 h -115.2126 z"
       fill-rule="evenodd"
       id="path176" />
    <path
       fill="#cfe2f3"
       d="m 1204.6669,37.089237 h 115.2126 V 65.87664 h -115.2126 z"
       fill-rule="evenodd"
       id="path177" />
    <path
       stroke="#000000"
       stroke-width="1"
       stroke-linejoin="round"
       stroke-linecap="butt"
       d="m 1204.6669,37.089237 h 115.2126 V 65.87664 h -115.2126 z"
       fill-rule="evenodd"
       id="path178" />
    <path
       fill="#d9d9d9"
       d="m 1252.0262,47.135006 5.0293,-4.869541 5.2187,5.389927 5.2188,-5.389927 5.0293,4.869541 -5.376,5.552292 5.376,5.552288 -5.0293,4.869545 -5.2188,-5.389927 -5.2187,5.389927 -5.0293,-4.869545 5.376,-5.552288 z"
       fill-rule="evenodd"
       id="path179" />
    <path
       stroke="#000000"
       stroke-width="1"
       stroke-linejoin="round"
       stroke-linecap="butt"
       d="m 1252.0262,47.135006 5.0293,-4.869541 5.2187,5.389927 5.2188,-5.389927 5.0293,4.869541 -5.376,5.552292 5.376,5.552288 -5.0293,4.869545 -5.2188,-5.389927 -5.2187,5.389927 -5.0293,-4.869545 5.376,-5.552288 z"
       fill-rule="evenodd"
       id="path180" />
    <path
       fill="#d9d9d9"
       d="m 1252.0262,220.21243 5.0293,-4.86954 5.2187,5.38993 5.2188,-5.38993 5.0293,4.86954 -5.376,5.55229 5.376,5.55229 -5.0293,4.86954 -5.2188,-5.38992 -5.2187,5.38992 -5.0293,-4.86954 5.376,-5.55229 z"
       fill-rule="evenodd"
       id="path181" />
    <path
       stroke="#000000"
       stroke-width="1"
       stroke-linejoin="round"
       stroke-linecap="butt"
       d="m 1252.0262,220.21243 5.0293,-4.86954 5.2187,5.38993 5.2188,-5.38993 5.0293,4.86954 -5.376,5.55229 5.376,5.55229 -5.0293,4.86954 -5.2188,-5.38992 -5.2187,5.38992 -5.0293,-4.86954 5.376,-5.55229 z"
       fill-rule="evenodd"
       id="path182" />
    <path
       fill="#000000"
       fill-opacity="0"
       d="m 628.69214,51.47113 57.57477,173.07086"
       fill-rule="evenodd"
       id="path183" />
    <path
       stroke="#000000"
       stroke-width="1"
       stroke-linejoin="round"
       stroke-linecap="butt"
       d="m 628.69214,51.47113 55.68085,167.37762"
       fill-rule="evenodd"
       id="path184" />
    <path
       fill="#000000"
       stroke="#000000"
       stroke-width="1"
       stroke-linecap="butt"
       d="m 682.8057,219.37013 2.99976,3.7847 0.13476,-4.82746 z"
       fill-rule="evenodd"
       id="path185" />
    <path
       fill="#000000"
       fill-opacity="0"
       d="m 628.69214,109.34777 57.57477,144.25195"
       fill-rule="evenodd"
       id="path186" />
    <path
       stroke="#000000"
       stroke-width="1"
       stroke-linejoin="round"
       stroke-linecap="butt"
       d="m 628.69214,109.34777 55.35065,138.67944"
       fill-rule="evenodd"
       id="path187" />
    <path
       fill="#000000"
       stroke="#000000"
       stroke-width="1"
       stroke-linecap="butt"
       d="m 682.5087,248.63948 3.21631,3.60251 -0.14819,-4.82707 z"
       fill-rule="evenodd"
       id="path188" />
    <path
       fill="#000000"
       fill-opacity="0"
       d="m 628.67847,224.54068 57.57483,57.85828"
       fill-rule="evenodd"
       id="path189" />
    <path
       stroke="#000000"
       stroke-width="1"
       stroke-linejoin="round"
       stroke-linecap="butt"
       d="m 628.67847,224.54068 53.34259,53.60523"
       fill-rule="evenodd"
       id="path190" />
    <path
       fill="#000000"
       stroke="#000000"
       stroke-width="1"
       stroke-linecap="butt"
       d="m 680.8503,279.31097 4.37183,2.05173 -2.03022,-4.38187 z"
       fill-rule="evenodd"
       id="path191" />
    <path
       fill="#000000"
       fill-opacity="0"
       d="m 628.67847,253.33989 57.57483,57.85826"
       fill-rule="evenodd"
       id="path192" />
    <path
       stroke="#000000"
       stroke-width="1"
       stroke-linejoin="round"
       stroke-linecap="butt"
       d="m 628.67847,253.33989 53.34259,53.60521"
       fill-rule="evenodd"
       id="path193" />
    <path
       fill="#000000"
       stroke="#000000"
       stroke-width="1"
       stroke-linecap="butt"
       d="m 680.8503,308.1102 4.37183,2.0517 -2.03022,-4.38187 z"
       fill-rule="evenodd"
       id="path194" />
    <path
       fill="#000000"
       fill-opacity="0"
       d="M 628.67847,80.53937 686.2533,51.75197"
       fill-rule="evenodd"
       id="path195" />
    <path
       stroke="#000000"
       stroke-width="1"
       stroke-linejoin="round"
       stroke-linecap="butt"
       d="M 628.67847,80.53937 680.88672,54.435252"
       fill-rule="evenodd"
       id="path196" />
    <path
       fill="#000000"
       stroke="#000000"
       stroke-width="1"
       stroke-linecap="butt"
       d="m 681.62537,55.912605 3.32037,-3.506855 -4.79773,0.552147 z"
       fill-rule="evenodd"
       id="path197" />
    <path
       fill="#d9ead3"
       d="m 1147.0709,37.62859 h 57.6062 v 287.71652 h -57.6062 z"
       fill-rule="evenodd"
       id="path198" />
    <path
       stroke="#000000"
       stroke-width="1"
       stroke-linejoin="round"
       stroke-linecap="butt"
       d="m 1147.0709,37.62859 h 57.6062 v 287.71652 h -57.6062 z"
       fill-rule="evenodd"
       id="path199" />
    <path
       fill="#000000"
       fill-opacity="0"
       d="M 628.67847,138.13911 686.2533,80.78477"
       fill-rule="evenodd"
       id="path200" />
    <path
       stroke="#000000"
       stroke-width="1"
       stroke-linejoin="round"
       stroke-linecap="butt"
       d="M 628.67847,138.13911 682.00251,85.019267"
       fill-rule="evenodd"
       id="path201" />
    <path
       fill="#000000"
       stroke="#000000"
       stroke-width="1"
       stroke-linecap="butt"
       d="m 683.1682,86.18946 2.04938,-4.372948 -4.3808,2.03257 z"
       fill-rule="evenodd"
       id="path202" />
    <path
       fill="#000000"
       fill-opacity="0"
       d="M 628.67847,282.1404 686.2533,109.60497"
       fill-rule="evenodd"
       id="path203" />
    <path
       stroke="#000000"
       stroke-width="1"
       stroke-linejoin="round"
       stroke-linecap="butt"
       d="m 628.67847,282.1404 55.6756,-166.84395"
       fill-rule="evenodd"
       id="path204" />
    <path
       fill="#000000"
       stroke="#000000"
       stroke-width="1"
       stroke-linecap="butt"
       d="m 685.92084,115.8193 -0.13031,-4.82758 -3.0033,3.7819 z"
       fill-rule="evenodd"
       id="path205" />
    <path
       fill="#000000"
       fill-opacity="0"
       d="M 628.67847,310.94095 686.2533,138.40552"
       fill-rule="evenodd"
       id="path206" />
    <path
       stroke="#000000"
       stroke-width="1"
       stroke-linejoin="round"
       stroke-linecap="butt"
       d="m 628.67847,310.94095 55.6756,-166.84396"
       fill-rule="evenodd"
       id="path207" />
    <path
       fill="#000000"
       stroke="#000000"
       stroke-width="1"
       stroke-linecap="butt"
       d="m 685.92084,144.61983 -0.13031,-4.82759 -3.0033,3.78191 z"
       fill-rule="evenodd"
       id="path208" />
    <path
       fill="#000000"
       fill-opacity="0"
       d="m 801.479,51.74068 57.57483,172.78741"
       fill-rule="evenodd"
       id="path209" />
    <path
       stroke="#000000"
       stroke-width="1"
       stroke-linejoin="round"
       stroke-linecap="butt"
       d="M 801.479,51.74068 857.15704,218.8358"
       fill-rule="evenodd"
       id="path210" />
    <path
       fill="#000000"
       stroke="#000000"
       stroke-width="1"
       stroke-linecap="butt"
       d="m 855.59,219.35794 3.00165,3.78322 0.13238,-4.82753 z"
       fill-rule="evenodd"
       id="path211" />
    <path
       fill="#000000"
       fill-opacity="0"
       d="m 801.4927,80.81233 57.57477,172.7874"
       fill-rule="evenodd"
       id="path212" />
    <path
       stroke="#000000"
       stroke-width="1"
       stroke-linejoin="round"
       stroke-linecap="butt"
       d="m 801.4926,80.81233 55.6781,167.09511"
       fill-rule="evenodd"
       id="path213" />
    <path
       fill="#000000"
       stroke="#000000"
       stroke-width="1"
       stroke-linecap="butt"
       d="m 855.60364,248.42958 3.00165,3.78322 0.13244,-4.82752 z"
       fill-rule="evenodd"
       id="path214" />
    <path
       fill="#000000"
       fill-opacity="0"
       d="M 801.479,109.59895 859.05383,51.740677"
       fill-rule="evenodd"
       id="path215" />
    <path
       stroke="#000000"
       stroke-width="1"
       stroke-linejoin="round"
       stroke-linecap="butt"
       d="M 801.479,109.59895 854.82159,55.993726"
       fill-rule="evenodd"
       id="path216" />
    <path
       fill="#000000"
       stroke="#000000"
       stroke-width="1"
       stroke-linecap="butt"
       d="m 855.99243,57.158806 2.03021,-4.38187 -4.37188,2.051712 z"
       fill-rule="evenodd"
       id="path217" />
    <path
       fill="#000000"
       fill-opacity="0"
       d="M 801.47955,253.59973 859.05432,80.52887"
       fill-rule="evenodd"
       id="path218" />
    <path
       stroke="#000000"
       stroke-width="1"
       stroke-linejoin="round"
       stroke-linecap="butt"
       d="M 801.4795,253.59973 857.16035,86.22211"
       fill-rule="evenodd"
       id="path219" />
    <path
       fill="#000000"
       stroke="#000000"
       stroke-width="1"
       stroke-linecap="butt"
       d="m 858.72766,86.74349 -0.13483,-4.827461 -2.99975,3.784698 z"
       fill-rule="evenodd"
       id="path220" />
    <path
       fill="#000000"
       fill-opacity="0"
       d="m 801.4927,224.54199 57.57477,57.85828"
       fill-rule="evenodd"
       id="path221" />
    <path
       stroke="#000000"
       stroke-width="1"
       stroke-linejoin="round"
       stroke-linecap="butt"
       d="m 801.4926,224.54199 53.34259,53.60523"
       fill-rule="evenodd"
       id="path222" />
    <path
       fill="#000000"
       stroke="#000000"
       stroke-width="1"
       stroke-linecap="butt"
       d="m 853.66437,279.3123 4.37189,2.05173 -2.03022,-4.38187 z"
       fill-rule="evenodd"
       id="path223" />
    <path
       fill="#000000"
       fill-opacity="0"
       d="m 801.4927,311.19946 h 57.57477"
       fill-rule="evenodd"
       id="path224" />
    <path
       stroke="#000000"
       stroke-width="1"
       stroke-linejoin="round"
       stroke-linecap="butt"
       d="m 801.4926,311.19946 h 51.57483"
       fill-rule="evenodd"
       id="path225" />
    <path
       fill="#000000"
       stroke="#000000"
       stroke-width="1"
       stroke-linecap="butt"
       d="m 853.06744,312.8512 4.53809,-1.65173 -4.53809,-1.65174 z"
       fill-rule="evenodd"
       id="path226" />
    <path
       fill="#000000"
       fill-opacity="0"
       d="m 974.28,282.40027 57.5748,-29.07088"
       fill-rule="evenodd"
       id="path227" />
    <path
       stroke="#000000"
       stroke-width="1"
       stroke-linejoin="round"
       stroke-linecap="butt"
       d="m 974.28,282.40027 52.2189,-26.36652"
       fill-rule="evenodd"
       id="path228" />
    <path
       fill="#000000"
       stroke="#000000"
       stroke-width="1"
       stroke-linecap="butt"
       d="m 1027.2433,257.50818 3.3065,-3.51987 -4.7954,0.571 z"
       fill-rule="evenodd"
       id="path229" />
    <path
       fill="#000000"
       fill-opacity="0"
       d="m 974.27954,51.74068 57.57486,172.78741"
       fill-rule="evenodd"
       id="path230" />
    <path
       stroke="#000000"
       stroke-width="1"
       stroke-linejoin="round"
       stroke-linecap="butt"
       d="M 974.27954,51.74068 1029.9576,218.8358"
       fill-rule="evenodd"
       id="path231" />
    <path
       fill="#000000"
       stroke="#000000"
       stroke-width="1"
       stroke-linecap="butt"
       d="m 1028.3905,219.35794 3.0017,3.78322 0.1325,-4.82753 z"
       fill-rule="evenodd"
       id="path232" />
    <path
       fill="#000000"
       fill-opacity="0"
       d="M 974.28,253.59973 1031.8548,80.52887"
       fill-rule="evenodd"
       id="path233" />
    <path
       stroke="#000000"
       stroke-width="1"
       stroke-linejoin="round"
       stroke-linecap="butt"
       d="M 974.28,253.59973 1029.9608,86.22211"
       fill-rule="evenodd"
       id="path234" />
    <path
       fill="#000000"
       stroke="#000000"
       stroke-width="1"
       stroke-linecap="butt"
       d="m 1031.5282,86.74349 -0.1349,-4.827461 -2.9997,3.784698 z"
       fill-rule="evenodd"
       id="path235" />
    <path
       fill="#000000"
       fill-opacity="0"
       d="m 974.27954,80.539894 57.57486,-28.7874"
       fill-rule="evenodd"
       id="path236" />
    <path
       stroke="#000000"
       stroke-width="1"
       stroke-linejoin="round"
       stroke-linecap="butt"
       d="M 974.27954,80.539894 1026.4878,54.435772"
       fill-rule="evenodd"
       id="path237" />
    <path
       fill="#000000"
       stroke="#000000"
       stroke-width="1"
       stroke-linecap="butt"
       d="m 1027.2264,55.913128 3.3203,-3.506855 -4.7976,0.552147 z"
       fill-rule="evenodd"
       id="path238" />
    <path
       fill="#000000"
       fill-opacity="0"
       d="M 1147.0795,224.54199 1204.6543,51.47113"
       fill-rule="evenodd"
       id="path239" />
    <path
       stroke="#000000"
       stroke-width="1"
       stroke-linejoin="round"
       stroke-linecap="butt"
       d="M 1147.0796,224.54199 1202.7604,57.16437"
       fill-rule="evenodd"
       id="path240" />
    <path
       fill="#000000"
       stroke="#000000"
       stroke-width="1"
       stroke-linecap="butt"
       d="m 1204.3278,57.68575 -0.1349,-4.827461 -2.9997,3.784698 z"
       fill-rule="evenodd"
       id="path241" />
    <path
       fill="#000000"
       fill-opacity="0"
       d="m 1147.0795,253.3412 57.5748,-28.7874"
       fill-rule="evenodd"
       id="path242" />
    <path
       stroke="#000000"
       stroke-width="1"
       stroke-linejoin="round"
       stroke-linecap="butt"
       d="m 1147.0796,253.3412 52.2083,-26.10413"
       fill-rule="evenodd"
       id="path243" />
    <path
       fill="#000000"
       stroke="#000000"
       stroke-width="1"
       stroke-linecap="butt"
       d="m 1200.0265,228.71445 3.3203,-3.50685 -4.7977,0.55214 z"
       fill-rule="evenodd"
       id="path244" />
  </g>
</svg>
