<svg version="1.1" viewBox="0.0 0.0 1369.8188976377953 363.20997375328085" fill="none" stroke="none" stroke-linecap="square" stroke-miterlimit="10" xmlns:xlink="http://www.w3.org/1999/xlink" xmlns="http://www.w3.org/2000/svg"><clipPath id="p.0"><path d="m0 0l1369.8188 0l0 363.20996l-1369.8188 0l0 -363.20996z" clip-rule="nonzero"/></clipPath><g clip-path="url(#p.0)"><path fill="#000000" fill-opacity="0.0" d="m0 0l1369.8188 0l0 363.20996l-1369.8188 0z" fill-rule="evenodd"/><path fill="#cfe2f3" d="m73.980316 150.08244l0 0c0 -13.263535 9.835632 -24.015755 21.968506 -24.015755l0 0c5.8264084 0 11.414185 2.53022 15.534073 7.03405c4.119896 4.50383 6.4344254 10.612335 6.4344254 16.981705l0 0c0 13.263535 -9.835632 24.015747 -21.968498 24.015747l0 0c-12.132874 0 -21.968506 -10.752213 -21.968506 -24.015747z" fill-rule="evenodd"/><path stroke="#000000" stroke-width="2.0" stroke-linejoin="round" stroke-linecap="butt" d="m73.980316 150.08244l0 0c0 -13.263535 9.835632 -24.015755 21.968506 -24.015755l0 0c5.8264084 0 11.414185 2.53022 15.534073 7.03405c4.119896 4.50383 6.4344254 10.612335 6.4344254 16.981705l0 0c0 13.263535 -9.835632 24.015747 -21.968498 24.015747l0 0c-12.132874 0 -21.968506 -10.752213 -21.968506 -24.015747z" fill-rule="evenodd"/><path fill="#000000" d="m89.695786 157.00244l5.125 -13.359375l1.90625 0l5.46875 13.359375l-2.015625 0l-1.546875 -4.046875l-5.59375 0l-1.46875 4.046875l-1.875 0zm3.859375 -5.484375l4.53125 0l-1.40625 -3.703125q-0.625 -1.6875 -0.9375 -2.765625q-0.265625 1.28125 -0.71875 2.546875l-1.46875 3.921875z" fill-rule="nonzero"/><path fill="#ea9999" d="m322.1493 150.08244l0 0c0 -13.263535 9.835632 -24.015755 21.968506 -24.015755l0 0c5.8263855 0 11.414185 2.53022 15.534058 7.03405c4.1199036 4.50383 6.4344482 10.612335 6.4344482 16.981705l0 0c0 13.263535 -9.835663 24.015747 -21.968506 24.015747l0 0c-12.132874 0 -21.968506 -10.752213 -21.968506 -24.015747z" fill-rule="evenodd"/><path stroke="#000000" stroke-width="2.0" stroke-linejoin="round" stroke-linecap="butt" d="m322.1493 150.08244l0 0c0 -13.263535 9.835632 -24.015755 21.968506 -24.015755l0 0c5.8263855 0 11.414185 2.53022 15.534058 7.03405c4.1199036 4.50383 6.4344482 10.612335 6.4344482 16.981705l0 0c0 13.263535 -9.835663 24.015747 -21.968506 24.015747l0 0c-12.132874 0 -21.968506 -10.752213 -21.968506 -24.015747z" fill-rule="evenodd"/><path fill="#000000" d="m339.25537 157.00244l0 -13.359375l5.015625 0q1.53125 0 2.453125 0.40625q0.921875 0.40625 1.4375 1.25q0.53125 0.84375 0.53125 1.765625q0 0.859375 -0.46875 1.625q-0.453125 0.75 -1.390625 1.203125q1.203125 0.359375 1.859375 1.21875q0.65625 0.859375 0.65625 2.015625q0 0.9375 -0.40625 1.75q-0.390625 0.796875 -0.984375 1.234375q-0.578125 0.4375 -1.453125 0.671875q-0.875 0.21875 -2.15625 0.21875l-5.09375 0zm1.78125 -7.75l2.875 0q1.1875 0 1.6875 -0.140625q0.671875 -0.203125 1.015625 -0.671875q0.34375 -0.46875 0.34375 -1.171875q0 -0.65625 -0.328125 -1.15625q-0.3125 -0.515625 -0.90625 -0.703125q-0.59375 -0.1875 -2.03125 -0.1875l-2.65625 0l0 4.03125zm0 6.171875l3.3125 0q0.859375 0 1.203125 -0.0625q0.609375 -0.109375 1.015625 -0.359375q0.421875 -0.265625 0.6875 -0.75q0.265625 -0.484375 0.265625 -1.125q0 -0.75 -0.390625 -1.296875q-0.375 -0.546875 -1.0625 -0.765625q-0.671875 -0.234375 -1.953125 -0.234375l-3.078125 0l0 4.59375z" fill-rule="nonzero"/><path fill="#000000" fill-opacity="0.0" d="m111.482895 133.10074c0 -16.017021 54.27559 -32.041924 108.55118 -32.03405c54.27559 0.007873535 108.55119 16.048523 108.55119 32.09704" fill-rule="evenodd"/><path stroke="#000000" stroke-width="3.0" stroke-linejoin="round" stroke-linecap="butt" d="m111.482895 133.10074c0 -16.017029 54.27559 -32.041916 108.55118 -32.034042c27.137802 0.0039367676 54.27559 4.01606 74.62895 10.033279c5.088318 1.5042953 9.7526245 3.1339188 13.886902 4.857559c2.0671387 0.8618164 4.00177 1.747139 5.7906494 2.6520538c0.4472046 0.22623444 0.88531494 0.45368958 1.3141174 0.6823044c0.21438599 0.11430359 0.42645264 0.22891235 0.6361389 0.34378815l0.2586975 0.14368439" fill-rule="evenodd"/><path fill="#000000" stroke="#000000" stroke-width="3.0" stroke-linecap="butt" d="m312.86496 123.09266l12.787781 6.8099747l-5.41864 -13.436569z" fill-rule="evenodd"/><path fill="#000000" fill-opacity="0.0" d="m328.5837 167.06413c0 16.017029 -54.275604 32.026184 -108.55118 32.034058c-54.27559 0.007873535 -108.551186 -15.985535 -108.551186 -31.971054" fill-rule="evenodd"/><path stroke="#000000" stroke-width="3.0" stroke-linejoin="round" stroke-linecap="butt" d="m328.5837 167.06415c0 16.017014 -54.275604 32.026154 -108.55119 32.034027c-27.137787 0.0039367676 -54.275574 -3.992447 -74.62892 -9.988007c-5.088333 -1.4988861 -9.75264 -3.1227112 -13.886917 -4.8402405c-2.0671387 -0.8587494 -4.00177 -1.7409363 -5.790642 -2.6426086c-0.4472046 -0.22543335 -0.8853226 -0.4520874 -1.3141098 -0.6798706c-0.21438599 -0.11390686 -0.42645264 -0.22810364 -0.63616943 -0.3425598l-0.22446442 -0.1242218" fill-rule="evenodd"/><path fill="#000000" stroke="#000000" stroke-width="3.0" stroke-linecap="butt" d="m127.22736 177.15793l-12.805168 -6.7772064l5.453018 13.422653z" fill-rule="evenodd"/><path fill="#000000" fill-opacity="0.0" d="m95.94882 174.09819c0 44.59842 55.291336 89.19685 110.58267 89.19685" fill-rule="evenodd"/><path stroke="#000000" stroke-width="3.0" stroke-linejoin="round" stroke-linecap="butt" d="m95.94882 174.09818c0 22.29921 13.82283 44.598434 34.557083 61.322845c10.367126 8.362198 22.462112 15.330704 35.42102 20.208649c6.4794464 2.4389954 13.174881 4.355316 19.978302 5.6619263c0.85043335 0.16329956 1.7025452 0.31710815 2.556137 0.46121216l0.13446045 0.021911621" fill-rule="evenodd"/><path fill="#000000" stroke="#000000" stroke-width="3.0" stroke-linecap="butt" d="m188.17729 266.71222l13.984161 -3.7876282l-13.14711 -6.087372z" fill-rule="evenodd"/><path fill="#000000" fill-opacity="0.0" d="m344.1178 174.09819c0 44.59842 -55.165375 89.19685 -110.33072 89.19685" fill-rule="evenodd"/><path stroke="#000000" stroke-width="3.0" stroke-linejoin="round" stroke-linecap="butt" d="m344.11777 174.09818c0 22.29921 -13.791321 44.598434 -34.478333 61.322845c-10.343506 8.362198 -22.41092 15.330704 -35.3403 20.208649c-6.464691 2.4389954 -13.144867 4.355316 -19.932785 5.6619263c-0.84851074 0.16329956 -1.6986694 0.31710815 -2.5503235 0.46121216l-0.093826294 0.015319824" fill-rule="evenodd"/><path fill="#000000" stroke="#000000" stroke-width="3.0" stroke-linecap="butt" d="m251.30186 256.8308l-13.144897 6.0921936l13.985565 3.7824707z" fill-rule="evenodd"/><path fill="#d9d9d9" d="m201.93918 250.72993l9.173126 -8.256302l9.047089 10.051712l9.047089 -10.051712l9.173126 8.256302l-9.918091 11.019455l9.918091 11.019409l-9.173126 8.256317l-9.047089 -10.051697l-9.047089 10.051697l-9.173126 -8.256317l9.918091 -11.019409z" fill-rule="evenodd"/><path stroke="#000000" stroke-width="2.0" stroke-linejoin="round" stroke-linecap="butt" d="m201.93918 250.72993l9.173126 -8.256302l9.047089 10.051712l9.047089 -10.051712l9.173126 8.256302l-9.918091 11.019455l9.918091 11.019409l-9.173126 8.256317l-9.047089 -10.051697l-9.047089 10.051697l-9.173126 -8.256317l9.918091 -11.019409z" fill-rule="evenodd"/><path fill="#000000" fill-opacity="0.0" d="m80.41474 133.10074c0 -16.017036 -7.857483 -34.459938 -15.7172165 -32.03408c-7.85973 2.42585 -15.72171 25.720459 -15.717209 49.015724c0.004497528 23.295258 7.875477 46.591187 15.748711 49.01573c7.87323 2.42453 15.748703 -16.022308 15.748703 -32.044617" fill-rule="evenodd"/><path stroke="#000000" stroke-width="3.0" stroke-linejoin="round" stroke-linecap="butt" d="m80.41474 133.10074c0 -16.017036 -7.857483 -34.459938 -15.7172165 -32.03409c-7.859726 2.4258575 -15.72171 25.720467 -15.717209 49.01573c0.004501343 23.295258 7.875477 46.5912 15.748711 49.01573c3.936615 1.2122498 7.873787 -2.7933197 10.826813 -9.104736c0.73825836 -1.5778656 1.4150009 -3.2998505 2.0148544 -5.1204224l0.017051697 -0.052978516" fill-rule="evenodd"/><path fill="#000000" stroke="#000000" stroke-width="3.0" stroke-linecap="butt" d="m82.47866 185.61557l-2.7050781 -14.233261l-7.0767517 12.64209z" fill-rule="evenodd"/><path fill="#000000" fill-opacity="0.0" d="m359.65186 133.10074c0 -16.017036 9.434967 -34.459938 18.867645 -32.03408c9.432709 2.42585 18.863129 25.720459 18.867645 49.015724c0.004486084 23.295258 -9.416962 46.591187 -18.836151 49.01573c-9.419189 2.42453 -18.836151 -16.022308 -18.836151 -32.044617" fill-rule="evenodd"/><path stroke="#000000" stroke-width="3.0" stroke-linejoin="round" stroke-linecap="butt" d="m359.65186 133.10074c0 -16.017036 9.434967 -34.459938 18.867676 -32.03409c9.432648 2.4258575 18.863098 25.720467 18.867615 49.01573c0.0045166016 23.295258 -9.416962 46.5912 -18.83612 49.01573c-4.7096252 1.2122498 -9.41864 -2.7933197 -12.950317 -9.104736c-0.88290405 -1.5778656 -1.6921997 -3.2998505 -2.409546 -5.1204224l-0.056732178 -0.14727783" fill-rule="evenodd"/><path fill="#000000" stroke="#000000" stroke-width="3.0" stroke-linecap="butt" d="m367.9994 183.78432l-7.451355 -12.424988l-2.278534 14.307739z" fill-rule="evenodd"/><path fill="#efefef" d="m511.54694 35.425198l809.2913 0l0 119.55905l-809.2913 0z" fill-rule="evenodd"/><path stroke="#000000" stroke-width="4.0" stroke-linejoin="round" stroke-linecap="butt" d="m511.54694 35.425198l809.2913 0l0 119.55905l-809.2913 0z" fill-rule="evenodd"/><path fill="#efefef" d="m513.63257 37.34698l806.2362 0l0 28.787403l-806.2362 0z" fill-rule="evenodd"/><path stroke="#000000" stroke-width="1.0" stroke-linejoin="round" stroke-linecap="butt" d="m513.63257 37.34698l806.2362 0l0 28.787403l-806.2362 0z" fill-rule="evenodd"/><path fill="#efefef" d="m513.4669 66.14698l806.2362 0l0 28.7874l-806.2362 0z" fill-rule="evenodd"/><path stroke="#000000" stroke-width="1.0" stroke-linejoin="round" stroke-linecap="butt" d="m513.4669 66.14698l806.2362 0l0 28.7874l-806.2362 0z" fill-rule="evenodd"/><path fill="#efefef" d="m513.4669 95.20473l806.2362 0l0 28.7874l-806.2362 0z" fill-rule="evenodd"/><path stroke="#000000" stroke-width="1.0" stroke-linejoin="round" stroke-linecap="butt" d="m513.4669 95.20473l806.2362 0l0 28.7874l-806.2362 0z" fill-rule="evenodd"/><path fill="#efefef" d="m513.4669 123.74698l806.2362 0l0 28.7874l-806.2362 0z" fill-rule="evenodd"/><path stroke="#000000" stroke-width="1.0" stroke-linejoin="round" stroke-linecap="butt" d="m513.4669 123.74698l806.2362 0l0 28.7874l-806.2362 0z" fill-rule="evenodd"/><path fill="#cfe2f3" d="m513.4659 37.087925l115.212585 0l0 28.787403l-115.212585 0z" fill-rule="evenodd"/><path stroke="#000000" stroke-width="1.0" stroke-linejoin="round" stroke-linecap="butt" d="m513.4659 37.087925l115.212585 0l0 28.787403l-115.212585 0z" fill-rule="evenodd"/><path fill="#ea9999" d="m561.46545 51.738846l0 0c0 -5.3054123 4.3009033 -9.6063 9.606323 -9.6063l0 0c2.5477295 0 4.99115 1.0120888 6.7926636 2.8136215c1.8015137 1.8015289 2.8135986 4.2449303 2.8135986 6.792679l0 0c0 5.3054123 -4.3008423 9.6063 -9.606262 9.6063l0 0c-5.30542 0 -9.606323 -4.300888 -9.606323 -9.6063z" fill-rule="evenodd"/><path stroke="#000000" stroke-width="1.0" stroke-linejoin="round" stroke-linecap="butt" d="m561.46545 51.738846l0 0c0 -5.3054123 4.3009033 -9.6063 9.606323 -9.6063l0 0c2.5477295 0 4.99115 1.0120888 6.7926636 2.8136215c1.8015137 1.8015289 2.8135986 4.2449303 2.8135986 6.792679l0 0c0 5.3054123 -4.3008423 9.6063 -9.606262 9.6063l0 0c-5.30542 0 -9.606323 -4.300888 -9.606323 -9.6063z" fill-rule="evenodd"/><path fill="#000000" fill-opacity="0.0" d="m434.93045 37.34646l74.20471 0l0 28.7874l-74.20471 0z" fill-rule="evenodd"/><path fill="#000000" d="m439.0867 57.50016l0 -10.109375l-3.78125 0l0 -1.34375l9.078125 0l0 1.34375l-3.78125 0l0 10.109375l-1.515625 0zm6.6796875 0l0 -11.453125l1.40625 0l0 4.109375q0.984375 -1.140625 2.484375 -1.140625q0.921875 0 1.59375 0.359375q0.6875 0.359375 0.96875 1.0q0.296875 0.640625 0.296875 1.859375l0 5.265625l-1.40625 0l0 -5.265625q0 -1.046875 -0.453125 -1.53125q-0.453125 -0.484375 -1.296875 -0.484375q-0.625 0 -1.171875 0.328125q-0.546875 0.328125 -0.78125 0.890625q-0.234375 0.546875 -0.234375 1.515625l0 4.546875l-1.40625 0zm8.8828125 0l0 -8.296875l1.265625 0l0 1.25q0.484375 -0.875 0.890625 -1.15625q0.40625 -0.28125 0.90625 -0.28125q0.703125 0 1.4375 0.453125l-0.484375 1.296875q-0.515625 -0.296875 -1.03125 -0.296875q-0.453125 0 -0.828125 0.28125q-0.359375 0.265625 -0.515625 0.765625q-0.234375 0.75 -0.234375 1.640625l0 4.34375l-1.40625 0zm11.015625 -2.671875l1.453125 0.171875q-0.34375 1.28125 -1.28125 1.984375q-0.921875 0.703125 -2.359375 0.703125q-1.828125 0 -2.890625 -1.125q-1.0625 -1.125 -1.0625 -3.140625q0 -2.09375 1.078125 -3.25q1.078125 -1.15625 2.796875 -1.15625q1.65625 0 2.703125 1.140625q1.0625 1.125 1.0625 3.171875q0 0.125 0 0.375l-6.1875 0q0.078125 1.375 0.765625 2.109375q0.703125 0.71875 1.734375 0.71875q0.78125 0 1.328125 -0.40625q0.546875 -0.40625 0.859375 -1.296875zm-4.609375 -2.28125l4.625 0q-0.09375 -1.046875 -0.53125 -1.5625q-0.671875 -0.8125 -1.734375 -0.8125q-0.96875 0 -1.640625 0.65625q-0.65625 0.640625 -0.71875 1.71875zm13.2421875 3.921875q-0.78125 0.671875 -1.5 0.953125q-0.71875 0.265625 -1.546875 0.265625q-1.375 0 -2.109375 -0.671875q-0.734375 -0.671875 -0.734375 -1.703125q0 -0.609375 0.28125 -1.109375q0.28125 -0.515625 0.71875 -0.8125q0.453125 -0.3125 1.015625 -0.46875q0.421875 -0.109375 1.25 -0.203125q1.703125 -0.203125 2.515625 -0.484375q0 -0.296875 0 -0.375q0 -0.859375 -0.390625 -1.203125q-0.546875 -0.484375 -1.609375 -0.484375q-0.984375 0 -1.46875 0.359375q-0.46875 0.34375 -0.6875 1.21875l-1.375 -0.1875q0.1875 -0.875 0.609375 -1.421875q0.4375 -0.546875 1.25 -0.828125q0.8125 -0.296875 1.875 -0.296875q1.0625 0 1.71875 0.25q0.671875 0.25 0.984375 0.625q0.3125 0.375 0.4375 0.953125q0.078125 0.359375 0.078125 1.296875l0 1.875q0 1.96875 0.078125 2.484375q0.09375 0.515625 0.359375 1.0l-1.46875 0q-0.21875 -0.4375 -0.28125 -1.03125zm-0.109375 -3.140625q-0.765625 0.3125 -2.296875 0.53125q-0.875 0.125 -1.234375 0.28125q-0.359375 0.15625 -0.5625 0.46875q-0.1875 0.296875 -0.1875 0.65625q0 0.5625 0.421875 0.9375q0.4375 0.375 1.25 0.375q0.8125 0 1.4375 -0.34375q0.640625 -0.359375 0.9375 -0.984375q0.234375 -0.46875 0.234375 -1.40625l0 -0.515625zm8.9765625 4.171875l0 -1.046875q-0.78125 1.234375 -2.3125 1.234375q-1.0 0 -1.828125 -0.546875q-0.828125 -0.546875 -1.296875 -1.53125q-0.453125 -0.984375 -0.453125 -2.25q0 -1.25 0.40625 -2.25q0.421875 -1.015625 1.25 -1.546875q0.828125 -0.546875 1.859375 -0.546875q0.75 0 1.328125 0.3125q0.59375 0.3125 0.953125 0.828125l0 -4.109375l1.40625 0l0 11.453125l-1.3125 0zm-4.4375 -4.140625q0 1.59375 0.671875 2.390625q0.671875 0.78125 1.578125 0.78125q0.921875 0 1.5625 -0.75q0.65625 -0.765625 0.65625 -2.3125q0 -1.703125 -0.65625 -2.5q-0.65625 -0.796875 -1.625 -0.796875q-0.9375 0 -1.5625 0.765625q-0.625 0.765625 -0.625 2.421875zm12.015625 -1.515625q0 -2.03125 0.40625 -3.265625q0.421875 -1.234375 1.25 -1.90625q0.828125 -0.671875 2.078125 -0.671875q0.921875 0 1.609375 0.375q0.703125 0.359375 1.15625 1.0625q0.453125 0.703125 0.703125 1.703125q0.265625 1.0 0.265625 2.703125q0 2.015625 -0.421875 3.265625q-0.40625 1.234375 -1.234375 1.921875q-0.828125 0.671875 -2.078125 0.671875q-1.65625 0 -2.609375 -1.203125q-1.125 -1.421875 -1.125 -4.65625zm1.4375 0q0 2.828125 0.65625 3.765625q0.671875 0.921875 1.640625 0.921875q0.96875 0 1.625 -0.9375q0.65625 -0.9375 0.65625 -3.75q0 -2.828125 -0.65625 -3.75q-0.65625 -0.9375 -1.640625 -0.9375q-0.96875 0 -1.546875 0.828125q-0.734375 1.046875 -0.734375 3.859375z" fill-rule="nonzero"/><path fill="#000000" fill-opacity="0.0" d="m434.93045 66.13648l74.20471 0l0 28.7874l-74.20471 0z" fill-rule="evenodd"/><path fill="#000000" d="m439.0867 86.290184l0 -10.109375l-3.78125 0l0 -1.34375l9.078125 0l0 1.34375l-3.78125 0l0 10.109375l-1.515625 0zm6.6796875 0l0 -11.453125l1.40625 0l0 4.109375q0.984375 -1.140625 2.484375 -1.140625q0.921875 0 1.59375 0.359375q0.6875 0.359375 0.96875 1.0q0.296875 0.640625 0.296875 1.859375l0 5.265625l-1.40625 0l0 -5.265625q0 -1.046875 -0.453125 -1.53125q-0.453125 -0.484375 -1.296875 -0.484375q-0.625 0 -1.171875 0.328125q-0.546875 0.328125 -0.78125 0.890625q-0.234375 0.546875 -0.234375 1.515625l0 4.546875l-1.40625 0zm8.8828125 0l0 -8.296875l1.265625 0l0 1.25q0.484375 -0.875 0.890625 -1.15625q0.40625 -0.28125 0.90625 -0.28125q0.703125 0 1.4375 0.453125l-0.484375 1.296875q-0.515625 -0.296875 -1.03125 -0.296875q-0.453125 0 -0.828125 0.28125q-0.359375 0.265625 -0.515625 0.765625q-0.234375 0.75 -0.234375 1.640625l0 4.34375l-1.40625 0zm11.015625 -2.671875l1.453125 0.171875q-0.34375 1.28125 -1.28125 1.984375q-0.921875 0.703125 -2.359375 0.703125q-1.828125 0 -2.890625 -1.125q-1.0625 -1.125 -1.0625 -3.140625q0 -2.09375 1.078125 -3.25q1.078125 -1.15625 2.796875 -1.15625q1.65625 0 2.703125 1.140625q1.0625 1.125 1.0625 3.171875q0 0.125 0 0.375l-6.1875 0q0.078125 1.375 0.765625 2.109375q0.703125 0.71875 1.734375 0.71875q0.78125 0 1.328125 -0.40625q0.546875 -0.40625 0.859375 -1.296875zm-4.609375 -2.28125l4.625 0q-0.09375 -1.046875 -0.53125 -1.5625q-0.671875 -0.8125 -1.734375 -0.8125q-0.96875 0 -1.640625 0.65625q-0.65625 0.640625 -0.71875 1.71875zm13.2421875 3.921875q-0.78125 0.671875 -1.5 0.953125q-0.71875 0.265625 -1.546875 0.265625q-1.375 0 -2.109375 -0.671875q-0.734375 -0.671875 -0.734375 -1.703125q0 -0.609375 0.28125 -1.109375q0.28125 -0.515625 0.71875 -0.8125q0.453125 -0.3125 1.015625 -0.46875q0.421875 -0.109375 1.25 -0.203125q1.703125 -0.203125 2.515625 -0.484375q0 -0.296875 0 -0.375q0 -0.859375 -0.390625 -1.203125q-0.546875 -0.484375 -1.609375 -0.484375q-0.984375 0 -1.46875 0.359375q-0.46875 0.34375 -0.6875 1.21875l-1.375 -0.1875q0.1875 -0.875 0.609375 -1.421875q0.4375 -0.546875 1.25 -0.828125q0.8125 -0.296875 1.875 -0.296875q1.0625 0 1.71875 0.25q0.671875 0.25 0.984375 0.625q0.3125 0.375 0.4375 0.953125q0.078125 0.359375 0.078125 1.296875l0 1.875q0 1.96875 0.078125 2.484375q0.09375 0.515625 0.359375 1.0l-1.46875 0q-0.21875 -0.4375 -0.28125 -1.03125zm-0.109375 -3.140625q-0.765625 0.3125 -2.296875 0.53125q-0.875 0.125 -1.234375 0.28125q-0.359375 0.15625 -0.5625 0.46875q-0.1875 0.296875 -0.1875 0.65625q0 0.5625 0.421875 0.9375q0.4375 0.375 1.25 0.375q0.8125 0 1.4375 -0.34375q0.640625 -0.359375 0.9375 -0.984375q0.234375 -0.46875 0.234375 -1.40625l0 -0.515625zm8.9765625 4.171875l0 -1.046875q-0.78125 1.234375 -2.3125 1.234375q-1.0 0 -1.828125 -0.546875q-0.828125 -0.546875 -1.296875 -1.53125q-0.453125 -0.984375 -0.453125 -2.25q0 -1.25 0.40625 -2.25q0.421875 -1.015625 1.25 -1.546875q0.828125 -0.546875 1.859375 -0.546875q0.75 0 1.328125 0.3125q0.59375 0.3125 0.953125 0.828125l0 -4.109375l1.40625 0l0 11.453125l-1.3125 0zm-4.4375 -4.140625q0 1.59375 0.671875 2.390625q0.671875 0.78125 1.578125 0.78125q0.921875 0 1.5625 -0.75q0.65625 -0.765625 0.65625 -2.3125q0 -1.703125 -0.65625 -2.5q-0.65625 -0.796875 -1.625 -0.796875q-0.9375 0 -1.5625 0.765625q-0.625 0.765625 -0.625 2.421875zm17.3125 4.140625l-1.40625 0l0 -8.96875q-0.515625 0.484375 -1.34375 0.96875q-0.8125 0.484375 -1.46875 0.734375l0 -1.359375q1.171875 -0.5625 2.046875 -1.34375q0.890625 -0.796875 1.265625 -1.53125l0.90625 0l0 11.5z" fill-rule="nonzero"/><path fill="#000000" fill-opacity="0.0" d="m434.86746 94.58793l74.20471 0l0 28.7874l-74.20471 0z" fill-rule="evenodd"/><path fill="#000000" d="m439.0237 114.74163l0 -10.109375l-3.78125 0l0 -1.34375l9.078125 0l0 1.34375l-3.78125 0l0 10.109375l-1.515625 0zm6.6796875 0l0 -11.453125l1.40625 0l0 4.109375q0.984375 -1.140625 2.484375 -1.140625q0.921875 0 1.59375 0.359375q0.6875 0.359375 0.96875 1.0q0.296875 0.640625 0.296875 1.859375l0 5.265625l-1.40625 0l0 -5.265625q0 -1.046875 -0.453125 -1.53125q-0.453125 -0.484375 -1.296875 -0.484375q-0.625 0 -1.171875 0.328125q-0.546875 0.328125 -0.78125 0.890625q-0.234375 0.546875 -0.234375 1.515625l0 4.546875l-1.40625 0zm8.8828125 0l0 -8.296875l1.265625 0l0 1.25q0.484375 -0.875 0.890625 -1.15625q0.40625 -0.28125 0.90625 -0.28125q0.703125 0 1.4375 0.453125l-0.484375 1.296875q-0.515625 -0.296875 -1.03125 -0.296875q-0.453125 0 -0.828125 0.28125q-0.359375 0.265625 -0.515625 0.765625q-0.234375 0.75 -0.234375 1.640625l0 4.34375l-1.40625 0zm11.015625 -2.671875l1.453125 0.171875q-0.34375 1.28125 -1.28125 1.984375q-0.921875 0.703125 -2.359375 0.703125q-1.828125 0 -2.890625 -1.125q-1.0625 -1.125 -1.0625 -3.140625q0 -2.09375 1.078125 -3.25q1.078125 -1.15625 2.796875 -1.15625q1.65625 0 2.703125 1.140625q1.0625 1.125 1.0625 3.171875q0 0.125 0 0.375l-6.1875 0q0.078125 1.375 0.765625 2.109375q0.703125 0.71875 1.734375 0.71875q0.78125 0 1.328125 -0.40625q0.546875 -0.40625 0.859375 -1.296875zm-4.609375 -2.28125l4.625 0q-0.09375 -1.046875 -0.53125 -1.5625q-0.671875 -0.8125 -1.734375 -0.8125q-0.96875 0 -1.640625 0.65625q-0.65625 0.640625 -0.71875 1.71875zm13.2421875 3.921875q-0.78125 0.671875 -1.5 0.953125q-0.71875 0.265625 -1.546875 0.265625q-1.375 0 -2.109375 -0.671875q-0.734375 -0.671875 -0.734375 -1.703125q0 -0.609375 0.28125 -1.109375q0.28125 -0.515625 0.71875 -0.8125q0.453125 -0.3125 1.015625 -0.46875q0.421875 -0.109375 1.25 -0.203125q1.703125 -0.203125 2.515625 -0.484375q0 -0.296875 0 -0.375q0 -0.859375 -0.390625 -1.203125q-0.546875 -0.484375 -1.609375 -0.484375q-0.984375 0 -1.46875 0.359375q-0.46875 0.34375 -0.6875 1.21875l-1.375 -0.1875q0.1875 -0.875 0.609375 -1.421875q0.4375 -0.546875 1.25 -0.828125q0.8125 -0.296875 1.875 -0.296875q1.0625 0 1.71875 0.25q0.671875 0.25 0.984375 0.625q0.3125 0.375 0.4375 0.953125q0.078125 0.359375 0.078125 1.296875l0 1.875q0 1.96875 0.078125 2.484375q0.09375 0.515625 0.359375 1.0l-1.46875 0q-0.21875 -0.4375 -0.28125 -1.03125zm-0.109375 -3.140625q-0.765625 0.3125 -2.296875 0.53125q-0.875 0.125 -1.234375 0.28125q-0.359375 0.15625 -0.5625 0.46875q-0.1875 0.296875 -0.1875 0.65625q0 0.5625 0.421875 0.9375q0.4375 0.375 1.25 0.375q0.8125 0 1.4375 -0.34375q0.640625 -0.359375 0.9375 -0.984375q0.234375 -0.46875 0.234375 -1.40625l0 -0.515625zm8.9765625 4.171875l0 -1.046875q-0.78125 1.234375 -2.3125 1.234375q-1.0 0 -1.828125 -0.546875q-0.828125 -0.546875 -1.296875 -1.53125q-0.453125 -0.984375 -0.453125 -2.25q0 -1.25 0.40625 -2.25q0.421875 -1.015625 1.25 -1.546875q0.828125 -0.546875 1.859375 -0.546875q0.75 0 1.328125 0.3125q0.59375 0.3125 0.953125 0.828125l0 -4.109375l1.40625 0l0 11.453125l-1.3125 0zm-4.4375 -4.140625q0 1.59375 0.671875 2.390625q0.671875 0.78125 1.578125 0.78125q0.921875 0 1.5625 -0.75q0.65625 -0.765625 0.65625 -2.3125q0 -1.703125 -0.65625 -2.5q-0.65625 -0.796875 -1.625 -0.796875q-0.9375 0 -1.5625 0.765625q-0.625 0.765625 -0.625 2.421875zm19.40625 2.78125l0 1.359375l-7.578125 0q-0.015625 -0.515625 0.171875 -0.984375q0.28125 -0.765625 0.921875 -1.515625q0.640625 -0.75 1.84375 -1.734375q1.859375 -1.53125 2.515625 -2.421875q0.65625 -0.90625 0.65625 -1.703125q0 -0.828125 -0.59375 -1.40625q-0.59375 -0.578125 -1.5625 -0.578125q-1.015625 0 -1.625 0.609375q-0.609375 0.609375 -0.609375 1.6875l-1.453125 -0.140625q0.15625 -1.625 1.125 -2.46875q0.96875 -0.84375 2.59375 -0.84375q1.65625 0 2.609375 0.921875q0.96875 0.90625 0.96875 2.25q0 0.6875 -0.28125 1.359375q-0.28125 0.65625 -0.9375 1.390625q-0.65625 0.734375 -2.171875 2.015625q-1.265625 1.0625 -1.625 1.453125q-0.359375 0.375 -0.59375 0.75l5.625 0z" fill-rule="nonzero"/><path fill="#000000" fill-opacity="0.0" d="m434.93045 123.732285l74.20471 0l0 28.7874l-74.20471 0z" fill-rule="evenodd"/><path fill="#000000" d="m439.0867 143.88599l0 -10.109375l-3.78125 0l0 -1.34375l9.078125 0l0 1.34375l-3.78125 0l0 10.109375l-1.515625 0zm6.6796875 0l0 -11.453125l1.40625 0l0 4.109375q0.984375 -1.140625 2.484375 -1.140625q0.921875 0 1.59375 0.359375q0.6875 0.359375 0.96875 1.0q0.296875 0.640625 0.296875 1.859375l0 5.265625l-1.40625 0l0 -5.265625q0 -1.046875 -0.453125 -1.53125q-0.453125 -0.484375 -1.296875 -0.484375q-0.625 0 -1.171875 0.328125q-0.546875 0.328125 -0.78125 0.890625q-0.234375 0.546875 -0.234375 1.515625l0 4.546875l-1.40625 0zm8.8828125 0l0 -8.296875l1.265625 0l0 1.25q0.484375 -0.875 0.890625 -1.15625q0.40625 -0.28125 0.90625 -0.28125q0.703125 0 1.4375 0.453125l-0.484375 1.296875q-0.515625 -0.296875 -1.03125 -0.296875q-0.453125 0 -0.828125 0.28125q-0.359375 0.265625 -0.515625 0.765625q-0.234375 0.75 -0.234375 1.640625l0 4.34375l-1.40625 0zm11.015625 -2.671875l1.453125 0.171875q-0.34375 1.28125 -1.28125 1.984375q-0.921875 0.703125 -2.359375 0.703125q-1.828125 0 -2.890625 -1.125q-1.0625 -1.125 -1.0625 -3.140625q0 -2.09375 1.078125 -3.25q1.078125 -1.15625 2.796875 -1.15625q1.65625 0 2.703125 1.140625q1.0625 1.125 1.0625 3.171875q0 0.125 0 0.375l-6.1875 0q0.078125 1.375 0.765625 2.109375q0.703125 0.71875 1.734375 0.71875q0.78125 0 1.328125 -0.40625q0.546875 -0.40625 0.859375 -1.296875zm-4.609375 -2.28125l4.625 0q-0.09375 -1.046875 -0.53125 -1.5625q-0.671875 -0.8125 -1.734375 -0.8125q-0.96875 0 -1.640625 0.65625q-0.65625 0.640625 -0.71875 1.71875zm13.2421875 3.921875q-0.78125 0.671875 -1.5 0.953125q-0.71875 0.265625 -1.546875 0.265625q-1.375 0 -2.109375 -0.671875q-0.734375 -0.671875 -0.734375 -1.703125q0 -0.609375 0.28125 -1.109375q0.28125 -0.515625 0.71875 -0.8125q0.453125 -0.3125 1.015625 -0.46875q0.421875 -0.109375 1.25 -0.203125q1.703125 -0.203125 2.515625 -0.484375q0 -0.296875 0 -0.375q0 -0.859375 -0.390625 -1.203125q-0.546875 -0.484375 -1.609375 -0.484375q-0.984375 0 -1.46875 0.359375q-0.46875 0.34375 -0.6875 1.21875l-1.375 -0.1875q0.1875 -0.875 0.609375 -1.421875q0.4375 -0.546875 1.25 -0.828125q0.8125 -0.296875 1.875 -0.296875q1.0625 0 1.71875 0.25q0.671875 0.25 0.984375 0.625q0.3125 0.375 0.4375 0.953125q0.078125 0.359375 0.078125 1.296875l0 1.875q0 1.96875 0.078125 2.484375q0.09375 0.515625 0.359375 1.0l-1.46875 0q-0.21875 -0.4375 -0.28125 -1.03125zm-0.109375 -3.140625q-0.765625 0.3125 -2.296875 0.53125q-0.875 0.125 -1.234375 0.28125q-0.359375 0.15625 -0.5625 0.46875q-0.1875 0.296875 -0.1875 0.65625q0 0.5625 0.421875 0.9375q0.4375 0.375 1.25 0.375q0.8125 0 1.4375 -0.34375q0.640625 -0.359375 0.9375 -0.984375q0.234375 -0.46875 0.234375 -1.40625l0 -0.515625zm8.9765625 4.171875l0 -1.046875q-0.78125 1.234375 -2.3125 1.234375q-1.0 0 -1.828125 -0.546875q-0.828125 -0.546875 -1.296875 -1.53125q-0.453125 -0.984375 -0.453125 -2.25q0 -1.25 0.40625 -2.25q0.421875 -1.015625 1.25 -1.546875q0.828125 -0.546875 1.859375 -0.546875q0.75 0 1.328125 0.3125q0.59375 0.3125 0.953125 0.828125l0 -4.109375l1.40625 0l0 11.453125l-1.3125 0zm-4.4375 -4.140625q0 1.59375 0.671875 2.390625q0.671875 0.78125 1.578125 0.78125q0.921875 0 1.5625 -0.75q0.65625 -0.765625 0.65625 -2.3125q0 -1.703125 -0.65625 -2.5q-0.65625 -0.796875 -1.625 -0.796875q-0.9375 0 -1.5625 0.765625q-0.625 0.765625 -0.625 2.421875zm12.015625 1.109375l1.40625 -0.1875q0.25 1.203125 0.828125 1.734375q0.578125 0.515625 1.421875 0.515625q0.984375 0 1.671875 -0.6875q0.6875 -0.6875 0.6875 -1.703125q0 -0.96875 -0.640625 -1.59375q-0.625 -0.625 -1.609375 -0.625q-0.390625 0 -0.984375 0.15625l0.15625 -1.234375q0.140625 0.015625 0.21875 0.015625q0.90625 0 1.625 -0.46875q0.71875 -0.46875 0.71875 -1.453125q0 -0.765625 -0.53125 -1.265625q-0.515625 -0.515625 -1.34375 -0.515625q-0.828125 0 -1.375 0.515625q-0.546875 0.515625 -0.703125 1.546875l-1.40625 -0.25q0.265625 -1.421875 1.171875 -2.1875q0.921875 -0.78125 2.28125 -0.78125q0.9375 0 1.71875 0.40625q0.796875 0.390625 1.203125 1.09375q0.421875 0.6875 0.421875 1.46875q0 0.75 -0.40625 1.359375q-0.390625 0.609375 -1.171875 0.96875q1.015625 0.234375 1.578125 0.96875q0.5625 0.734375 0.5625 1.84375q0 1.5 -1.09375 2.546875q-1.09375 1.046875 -2.765625 1.046875q-1.5 0 -2.5 -0.890625q-1.0 -0.90625 -1.140625 -2.34375z" fill-rule="nonzero"/><path fill="#cfe2f3" d="m513.4659 66.14567l115.212585 0l0 28.7874l-115.212585 0z" fill-rule="evenodd"/><path stroke="#000000" stroke-width="1.0" stroke-linejoin="round" stroke-linecap="butt" d="m513.4659 66.14567l115.212585 0l0 28.7874l-115.212585 0z" fill-rule="evenodd"/><path fill="#c9daf8" d="m561.46545 80.66798l0 0c0 -5.3054123 4.3009033 -9.6063 9.606323 -9.6063l0 0c2.5477295 0 4.99115 1.0120926 6.7926636 2.8136215c1.8015137 1.8015289 2.8135986 4.244934 2.8135986 6.792679l0 0c0 5.3054123 -4.3008423 9.6063 -9.606262 9.6063l0 0c-5.30542 0 -9.606323 -4.300888 -9.606323 -9.6063z" fill-rule="evenodd"/><path stroke="#000000" stroke-width="1.0" stroke-linejoin="round" stroke-linecap="butt" d="m561.46545 80.66798l0 0c0 -5.3054123 4.3009033 -9.6063 9.606323 -9.6063l0 0c2.5477295 0 4.99115 1.0120926 6.7926636 2.8136215c1.8015137 1.8015289 2.8135986 4.244934 2.8135986 6.792679l0 0c0 5.3054123 -4.3008423 9.6063 -9.606262 9.6063l0 0c-5.30542 0 -9.606323 -4.300888 -9.606323 -9.6063z" fill-rule="evenodd"/><path fill="#efefef" d="m511.54694 208.22697l809.2913 0l0 119.55907l-809.2913 0z" fill-rule="evenodd"/><path stroke="#000000" stroke-width="4.0" stroke-linejoin="round" stroke-linecap="butt" d="m511.54694 208.22697l809.2913 0l0 119.55907l-809.2913 0z" fill-rule="evenodd"/><path fill="#efefef" d="m513.5299 210.14699l806.3937 0l0 28.7874l-806.3937 0z" fill-rule="evenodd"/><path stroke="#000000" stroke-width="1.0" stroke-linejoin="round" stroke-linecap="butt" d="m513.5299 210.14699l806.3937 0l0 28.7874l-806.3937 0z" fill-rule="evenodd"/><path fill="#efefef" d="m513.5321 238.94698l806.3307 0l0 28.7874l-806.3307 0z" fill-rule="evenodd"/><path stroke="#000000" stroke-width="1.0" stroke-linejoin="round" stroke-linecap="butt" d="m513.5321 238.94698l806.3307 0l0 28.7874l-806.3307 0z" fill-rule="evenodd"/><path fill="#efefef" d="m513.5321 267.74698l806.3307 0l0 28.787415l-806.3307 0z" fill-rule="evenodd"/><path stroke="#000000" stroke-width="1.0" stroke-linejoin="round" stroke-linecap="butt" d="m513.5321 267.74698l806.3307 0l0 28.787415l-806.3307 0z" fill-rule="evenodd"/><path fill="#000000" fill-opacity="0.0" d="m434.96194 208.22572l74.20471 0l0 28.7874l-74.20471 0z" fill-rule="evenodd"/><path fill="#000000" d="m439.1182 228.37943l0 -10.109375l-3.78125 0l0 -1.34375l9.078125 0l0 1.34375l-3.78125 0l0 10.109375l-1.515625 0zm6.6796875 0l0 -11.453125l1.40625 0l0 4.109375q0.984375 -1.140625 2.484375 -1.140625q0.921875 0 1.59375 0.359375q0.6875 0.359375 0.96875 1.0q0.296875 0.640625 0.296875 1.859375l0 5.265625l-1.40625 0l0 -5.265625q0 -1.046875 -0.453125 -1.53125q-0.453125 -0.484375 -1.296875 -0.484375q-0.625 0 -1.171875 0.328125q-0.546875 0.328125 -0.78125 0.890625q-0.234375 0.546875 -0.234375 1.515625l0 4.546875l-1.40625 0zm8.8828125 0l0 -8.296875l1.265625 0l0 1.25q0.484375 -0.875 0.890625 -1.15625q0.40625 -0.28125 0.90625 -0.28125q0.703125 0 1.4375 0.453125l-0.484375 1.296875q-0.515625 -0.296875 -1.03125 -0.296875q-0.453125 0 -0.828125 0.28125q-0.359375 0.265625 -0.515625 0.765625q-0.234375 0.75 -0.234375 1.640625l0 4.34375l-1.40625 0zm11.015625 -2.671875l1.453125 0.171875q-0.34375 1.28125 -1.28125 1.984375q-0.921875 0.703125 -2.359375 0.703125q-1.828125 0 -2.890625 -1.125q-1.0625 -1.125 -1.0625 -3.140625q0 -2.09375 1.078125 -3.25q1.078125 -1.15625 2.796875 -1.15625q1.65625 0 2.703125 1.140625q1.0625 1.125 1.0625 3.171875q0 0.125 0 0.375l-6.1875 0q0.078125 1.375 0.765625 2.109375q0.703125 0.71875 1.734375 0.71875q0.78125 0 1.328125 -0.40625q0.546875 -0.40625 0.859375 -1.296875zm-4.609375 -2.28125l4.625 0q-0.09375 -1.046875 -0.53125 -1.5625q-0.671875 -0.8125 -1.734375 -0.8125q-0.96875 0 -1.640625 0.65625q-0.65625 0.640625 -0.71875 1.71875zm13.2421875 3.921875q-0.78125 0.671875 -1.5 0.953125q-0.71875 0.265625 -1.546875 0.265625q-1.375 0 -2.109375 -0.671875q-0.734375 -0.671875 -0.734375 -1.703125q0 -0.609375 0.28125 -1.109375q0.28125 -0.515625 0.71875 -0.8125q0.453125 -0.3125 1.015625 -0.46875q0.421875 -0.109375 1.25 -0.203125q1.703125 -0.203125 2.515625 -0.484375q0 -0.296875 0 -0.375q0 -0.859375 -0.390625 -1.203125q-0.546875 -0.484375 -1.609375 -0.484375q-0.984375 0 -1.46875 0.359375q-0.46875 0.34375 -0.6875 1.21875l-1.375 -0.1875q0.1875 -0.875 0.609375 -1.421875q0.4375 -0.546875 1.25 -0.828125q0.8125 -0.296875 1.875 -0.296875q1.0625 0 1.71875 0.25q0.671875 0.25 0.984375 0.625q0.3125 0.375 0.4375 0.953125q0.078125 0.359375 0.078125 1.296875l0 1.875q0 1.96875 0.078125 2.484375q0.09375 0.515625 0.359375 1.0l-1.46875 0q-0.21875 -0.4375 -0.28125 -1.03125zm-0.109375 -3.140625q-0.765625 0.3125 -2.296875 0.53125q-0.875 0.125 -1.234375 0.28125q-0.359375 0.15625 -0.5625 0.46875q-0.1875 0.296875 -0.1875 0.65625q0 0.5625 0.421875 0.9375q0.4375 0.375 1.25 0.375q0.8125 0 1.4375 -0.34375q0.640625 -0.359375 0.9375 -0.984375q0.234375 -0.46875 0.234375 -1.40625l0 -0.515625zm8.9765625 4.171875l0 -1.046875q-0.78125 1.234375 -2.3125 1.234375q-1.0 0 -1.828125 -0.546875q-0.828125 -0.546875 -1.296875 -1.53125q-0.453125 -0.984375 -0.453125 -2.25q0 -1.25 0.40625 -2.25q0.421875 -1.015625 1.25 -1.546875q0.828125 -0.546875 1.859375 -0.546875q0.75 0 1.328125 0.3125q0.59375 0.3125 0.953125 0.828125l0 -4.109375l1.40625 0l0 11.453125l-1.3125 0zm-4.4375 -4.140625q0 1.59375 0.671875 2.390625q0.671875 0.78125 1.578125 0.78125q0.921875 0 1.5625 -0.75q0.65625 -0.765625 0.65625 -2.3125q0 -1.703125 -0.65625 -2.5q-0.65625 -0.796875 -1.625 -0.796875q-0.9375 0 -1.5625 0.765625q-0.625 0.765625 -0.625 2.421875zm16.515625 4.140625l0 -2.75l-4.96875 0l0 -1.28125l5.234375 -7.421875l1.140625 0l0 7.421875l1.546875 0l0 1.28125l-1.546875 0l0 2.75l-1.40625 0zm0 -4.03125l0 -5.171875l-3.578125 5.171875l3.578125 0z" fill-rule="nonzero"/><path fill="#000000" fill-opacity="0.0" d="m434.96194 237.01575l74.20471 0l0 28.787415l-74.20471 0z" fill-rule="evenodd"/><path fill="#000000" d="m439.1182 257.16946l0 -10.10939l-3.78125 0l0 -1.34375l9.078125 0l0 1.34375l-3.78125 0l0 10.10939l-1.515625 0zm6.6796875 0l0 -11.45314l1.40625 0l0 4.109375q0.984375 -1.140625 2.484375 -1.140625q0.921875 0 1.59375 0.359375q0.6875 0.359375 0.96875 1.0q0.296875 0.640625 0.296875 1.859375l0 5.2656403l-1.40625 0l0 -5.2656403q0 -1.046875 -0.453125 -1.53125q-0.453125 -0.484375 -1.296875 -0.484375q-0.625 0 -1.171875 0.328125q-0.546875 0.328125 -0.78125 0.890625q-0.234375 0.546875 -0.234375 1.515625l0 4.5468903l-1.40625 0zm8.8828125 0l0 -8.29689l1.265625 0l0 1.25q0.484375 -0.875 0.890625 -1.15625q0.40625 -0.28125 0.90625 -0.28125q0.703125 0 1.4375 0.453125l-0.484375 1.296875q-0.515625 -0.296875 -1.03125 -0.296875q-0.453125 0 -0.828125 0.28125q-0.359375 0.265625 -0.515625 0.765625q-0.234375 0.75 -0.234375 1.640625l0 4.3437653l-1.40625 0zm11.015625 -2.6718903l1.453125 0.171875q-0.34375 1.28125 -1.28125 1.9843903q-0.921875 0.703125 -2.359375 0.703125q-1.828125 0 -2.890625 -1.125q-1.0625 -1.1250153 -1.0625 -3.1406403q0 -2.09375 1.078125 -3.25q1.078125 -1.15625 2.796875 -1.15625q1.65625 0 2.703125 1.140625q1.0625 1.125 1.0625 3.171875q0 0.125 0 0.375l-6.1875 0q0.078125 1.375 0.765625 2.109375q0.703125 0.71876526 1.734375 0.71876526q0.78125 0 1.328125 -0.40626526q0.546875 -0.40625 0.859375 -1.296875zm-4.609375 -2.28125l4.625 0q-0.09375 -1.046875 -0.53125 -1.5625q-0.671875 -0.8125 -1.734375 -0.8125q-0.96875 0 -1.640625 0.65625q-0.65625 0.640625 -0.71875 1.71875zm13.2421875 3.9218903q-0.78125 0.671875 -1.5 0.953125q-0.71875 0.265625 -1.546875 0.265625q-1.375 0 -2.109375 -0.671875q-0.734375 -0.671875 -0.734375 -1.7031403q0 -0.609375 0.28125 -1.109375q0.28125 -0.515625 0.71875 -0.8125q0.453125 -0.3125 1.015625 -0.46875q0.421875 -0.109375 1.25 -0.203125q1.703125 -0.203125 2.515625 -0.484375q0 -0.296875 0 -0.375q0 -0.859375 -0.390625 -1.203125q-0.546875 -0.484375 -1.609375 -0.484375q-0.984375 0 -1.46875 0.359375q-0.46875 0.34375 -0.6875 1.21875l-1.375 -0.1875q0.1875 -0.875 0.609375 -1.421875q0.4375 -0.546875 1.25 -0.828125q0.8125 -0.296875 1.875 -0.296875q1.0625 0 1.71875 0.25q0.671875 0.25 0.984375 0.625q0.3125 0.375 0.4375 0.953125q0.078125 0.359375 0.078125 1.296875l0 1.875q0 1.96875 0.078125 2.4843903q0.09375 0.515625 0.359375 1.0l-1.46875 0q-0.21875 -0.4375 -0.28125 -1.03125zm-0.109375 -3.1406403q-0.765625 0.3125 -2.296875 0.53125q-0.875 0.125 -1.234375 0.28125q-0.359375 0.15625 -0.5625 0.46875q-0.1875 0.296875 -0.1875 0.65625q0 0.5625 0.421875 0.9375q0.4375 0.37501526 1.25 0.37501526q0.8125 0 1.4375 -0.34376526q0.640625 -0.359375 0.9375 -0.984375q0.234375 -0.46875 0.234375 -1.40625l0 -0.515625zm8.9765625 4.1718903l0 -1.046875q-0.78125 1.234375 -2.3125 1.234375q-1.0 0 -1.828125 -0.546875q-0.828125 -0.546875 -1.296875 -1.5312653q-0.453125 -0.984375 -0.453125 -2.25q0 -1.25 0.40625 -2.25q0.421875 -1.015625 1.25 -1.546875q0.828125 -0.546875 1.859375 -0.546875q0.75 0 1.328125 0.3125q0.59375 0.3125 0.953125 0.828125l0 -4.109375l1.40625 0l0 11.45314l-1.3125 0zm-4.4375 -4.1406403q0 1.59375 0.671875 2.390625q0.671875 0.78126526 1.578125 0.78126526q0.921875 0 1.5625 -0.75001526q0.65625 -0.765625 0.65625 -2.3125q0 -1.703125 -0.65625 -2.5q-0.65625 -0.796875 -1.625 -0.796875q-0.9375 0 -1.5625 0.765625q-0.625 0.765625 -0.625 2.421875zm12.015625 1.140625l1.46875 -0.125q0.171875 1.078125 0.765625 1.625q0.59375 0.53126526 1.4375 0.53126526q1.015625 0 1.71875 -0.76564026q0.703125 -0.765625 0.703125 -2.03125q0 -1.203125 -0.671875 -1.890625q-0.671875 -0.703125 -1.765625 -0.703125q-0.6875 0 -1.234375 0.3125q-0.546875 0.3125 -0.859375 0.796875l-1.3125 -0.171875l1.109375 -5.875l5.6875 0l0 1.34375l-4.5625 0l-0.625 3.078125q1.03125 -0.71875 2.171875 -0.71875q1.5 0 2.53125 1.046875q1.03125 1.03125 1.03125 2.65625q0 1.5625 -0.90625 2.6875q-1.109375 1.4062653 -3.015625 1.4062653q-1.5625 0 -2.546875 -0.875q-0.984375 -0.89064026 -1.125 -2.3281403z" fill-rule="nonzero"/><path fill="#000000" fill-opacity="0.0" d="m434.89896 265.4672l74.20471 0l0 28.787415l-74.20471 0z" fill-rule="evenodd"/><path fill="#000000" d="m439.0552 285.62088l0 -10.109375l-3.78125 0l0 -1.34375l9.078125 0l0 1.34375l-3.78125 0l0 10.109375l-1.515625 0zm6.6796875 0l0 -11.453125l1.40625 0l0 4.109375q0.984375 -1.140625 2.484375 -1.140625q0.921875 0 1.59375 0.359375q0.6875 0.359375 0.96875 1.0q0.296875 0.640625 0.296875 1.859375l0 5.265625l-1.40625 0l0 -5.265625q0 -1.046875 -0.453125 -1.53125q-0.453125 -0.484375 -1.296875 -0.484375q-0.625 0 -1.171875 0.328125q-0.546875 0.328125 -0.78125 0.890625q-0.234375 0.546875 -0.234375 1.515625l0 4.546875l-1.40625 0zm8.8828125 0l0 -8.296875l1.265625 0l0 1.25q0.484375 -0.875 0.890625 -1.15625q0.40625 -0.28125 0.90625 -0.28125q0.703125 0 1.4375 0.453125l-0.484375 1.296875q-0.515625 -0.296875 -1.03125 -0.296875q-0.453125 0 -0.828125 0.28125q-0.359375 0.265625 -0.515625 0.765625q-0.234375 0.75 -0.234375 1.640625l0 4.34375l-1.40625 0zm11.015625 -2.671875l1.453125 0.171875q-0.34375 1.28125 -1.28125 1.984375q-0.921875 0.703125 -2.359375 0.703125q-1.828125 0 -2.890625 -1.125q-1.0625 -1.125 -1.0625 -3.140625q0 -2.09375 1.078125 -3.25q1.078125 -1.15625 2.796875 -1.15625q1.65625 0 2.703125 1.140625q1.0625 1.125 1.0625 3.171875q0 0.125 0 0.375l-6.1875 0q0.078125 1.375 0.765625 2.109375q0.703125 0.71875 1.734375 0.71875q0.78125 0 1.328125 -0.40625q0.546875 -0.40625 0.859375 -1.296875zm-4.609375 -2.28125l4.625 0q-0.09375 -1.046875 -0.53125 -1.5625q-0.671875 -0.8125 -1.734375 -0.8125q-0.96875 0 -1.640625 0.65625q-0.65625 0.640625 -0.71875 1.71875zm13.2421875 3.921875q-0.78125 0.671875 -1.5 0.953125q-0.71875 0.265625 -1.546875 0.265625q-1.375 0 -2.109375 -0.671875q-0.734375 -0.671875 -0.734375 -1.703125q0 -0.609375 0.28125 -1.109375q0.28125 -0.515625 0.71875 -0.8125q0.453125 -0.3125 1.015625 -0.46875q0.421875 -0.109375 1.25 -0.203125q1.703125 -0.203125 2.515625 -0.484375q0 -0.296875 0 -0.375q0 -0.859375 -0.390625 -1.203125q-0.546875 -0.484375 -1.609375 -0.484375q-0.984375 0 -1.46875 0.359375q-0.46875 0.34375 -0.6875 1.21875l-1.375 -0.1875q0.1875 -0.875 0.609375 -1.421875q0.4375 -0.546875 1.25 -0.828125q0.8125 -0.296875 1.875 -0.296875q1.0625 0 1.71875 0.25q0.671875 0.25 0.984375 0.625q0.3125 0.375 0.4375 0.953125q0.078125 0.359375 0.078125 1.296875l0 1.875q0 1.96875 0.078125 2.484375q0.09375 0.515625 0.359375 1.0l-1.46875 0q-0.21875 -0.4375 -0.28125 -1.03125zm-0.109375 -3.140625q-0.765625 0.3125 -2.296875 0.53125q-0.875 0.125 -1.234375 0.28125q-0.359375 0.15625 -0.5625 0.46875q-0.1875 0.296875 -0.1875 0.65625q0 0.5625 0.421875 0.9375q0.4375 0.375 1.25 0.375q0.8125 0 1.4375 -0.34375q0.640625 -0.359375 0.9375 -0.984375q0.234375 -0.46875 0.234375 -1.40625l0 -0.515625zm8.9765625 4.171875l0 -1.046875q-0.78125 1.234375 -2.3125 1.234375q-1.0 0 -1.828125 -0.546875q-0.828125 -0.546875 -1.296875 -1.53125q-0.453125 -0.984375 -0.453125 -2.25q0 -1.25 0.40625 -2.25q0.421875 -1.015625 1.25 -1.546875q0.828125 -0.546875 1.859375 -0.546875q0.75 0 1.328125 0.3125q0.59375 0.3125 0.953125 0.828125l0 -4.109375l1.40625 0l0 11.453125l-1.3125 0zm-4.4375 -4.140625q0 1.59375 0.671875 2.390625q0.671875 0.78125 1.578125 0.78125q0.921875 0 1.5625 -0.75q0.65625 -0.765625 0.65625 -2.3125q0 -1.703125 -0.65625 -2.5q-0.65625 -0.796875 -1.625 -0.796875q-0.9375 0 -1.5625 0.765625q-0.625 0.765625 -0.625 2.421875zm19.3125 -4.515625l-1.40625 0.109375q-0.1875 -0.828125 -0.53125 -1.203125q-0.5625 -0.59375 -1.40625 -0.59375q-0.671875 0 -1.171875 0.375q-0.671875 0.484375 -1.0625 1.421875q-0.375 0.921875 -0.390625 2.640625q0.515625 -0.78125 1.25 -1.15625q0.734375 -0.375 1.53125 -0.375q1.40625 0 2.390625 1.046875q1.0 1.03125 1.0 2.671875q0 1.078125 -0.46875 2.0q-0.46875 0.921875 -1.28125 1.421875q-0.8125 0.5 -1.84375 0.5q-1.75 0 -2.859375 -1.296875q-1.109375 -1.296875 -1.109375 -4.265625q0 -3.328125 1.21875 -4.828125q1.078125 -1.3125 2.890625 -1.3125q1.34375 0 2.203125 0.765625q0.875 0.75 1.046875 2.078125zm-5.75 4.9375q0 0.734375 0.3125 1.40625q0.3125 0.65625 0.859375 1.0q0.5625 0.34375 1.171875 0.34375q0.890625 0 1.53125 -0.71875q0.640625 -0.71875 0.640625 -1.953125q0 -1.1875 -0.640625 -1.859375q-0.625 -0.6875 -1.59375 -0.6875q-0.953125 0 -1.625 0.6875q-0.65625 0.671875 -0.65625 1.78125z" fill-rule="nonzero"/><path fill="#000000" fill-opacity="0.0" d="m434.96194 294.61154l74.20471 0l0 28.787415l-74.20471 0z" fill-rule="evenodd"/><path fill="#000000" d="m439.1182 314.76526l0 -10.109375l-3.78125 0l0 -1.34375l9.078125 0l0 1.34375l-3.78125 0l0 10.109375l-1.515625 0zm6.6796875 0l0 -11.453125l1.40625 0l0 4.109375q0.984375 -1.140625 2.484375 -1.140625q0.921875 0 1.59375 0.359375q0.6875 0.359375 0.96875 1.0q0.296875 0.640625 0.296875 1.859375l0 5.265625l-1.40625 0l0 -5.265625q0 -1.046875 -0.453125 -1.53125q-0.453125 -0.484375 -1.296875 -0.484375q-0.625 0 -1.171875 0.328125q-0.546875 0.328125 -0.78125 0.890625q-0.234375 0.546875 -0.234375 1.515625l0 4.546875l-1.40625 0zm8.8828125 0l0 -8.296875l1.265625 0l0 1.25q0.484375 -0.875 0.890625 -1.15625q0.40625 -0.28125 0.90625 -0.28125q0.703125 0 1.4375 0.453125l-0.484375 1.296875q-0.515625 -0.296875 -1.03125 -0.296875q-0.453125 0 -0.828125 0.28125q-0.359375 0.265625 -0.515625 0.765625q-0.234375 0.75 -0.234375 1.640625l0 4.34375l-1.40625 0zm11.015625 -2.671875l1.453125 0.171875q-0.34375 1.28125 -1.28125 1.984375q-0.921875 0.703125 -2.359375 0.703125q-1.828125 0 -2.890625 -1.125q-1.0625 -1.125 -1.0625 -3.140625q0 -2.09375 1.078125 -3.25q1.078125 -1.15625 2.796875 -1.15625q1.65625 0 2.703125 1.140625q1.0625 1.125 1.0625 3.171875q0 0.125 0 0.375l-6.1875 0q0.078125 1.375 0.765625 2.109375q0.703125 0.71875 1.734375 0.71875q0.78125 0 1.328125 -0.40625q0.546875 -0.40625 0.859375 -1.296875zm-4.609375 -2.28125l4.625 0q-0.09375 -1.046875 -0.53125 -1.5625q-0.671875 -0.8125 -1.734375 -0.8125q-0.96875 0 -1.640625 0.65625q-0.65625 0.640625 -0.71875 1.71875zm13.2421875 3.921875q-0.78125 0.671875 -1.5 0.953125q-0.71875 0.265625 -1.546875 0.265625q-1.375 0 -2.109375 -0.671875q-0.734375 -0.671875 -0.734375 -1.703125q0 -0.609375 0.28125 -1.109375q0.28125 -0.515625 0.71875 -0.8125q0.453125 -0.3125 1.015625 -0.46875q0.421875 -0.109375 1.25 -0.203125q1.703125 -0.203125 2.515625 -0.484375q0 -0.296875 0 -0.375q0 -0.859375 -0.390625 -1.203125q-0.546875 -0.484375 -1.609375 -0.484375q-0.984375 0 -1.46875 0.359375q-0.46875 0.34375 -0.6875 1.21875l-1.375 -0.1875q0.1875 -0.875 0.609375 -1.421875q0.4375 -0.546875 1.25 -0.828125q0.8125 -0.296875 1.875 -0.296875q1.0625 0 1.71875 0.25q0.671875 0.25 0.984375 0.625q0.3125 0.375 0.4375 0.953125q0.078125 0.359375 0.078125 1.296875l0 1.875q0 1.96875 0.078125 2.484375q0.09375 0.515625 0.359375 1.0l-1.46875 0q-0.21875 -0.4375 -0.28125 -1.03125zm-0.109375 -3.140625q-0.765625 0.3125 -2.296875 0.53125q-0.875 0.125 -1.234375 0.28125q-0.359375 0.15625 -0.5625 0.46875q-0.1875 0.296875 -0.1875 0.65625q0 0.5625 0.421875 0.9375q0.4375 0.375 1.25 0.375q0.8125 0 1.4375 -0.34375q0.640625 -0.359375 0.9375 -0.984375q0.234375 -0.46875 0.234375 -1.40625l0 -0.515625zm8.9765625 4.171875l0 -1.046875q-0.78125 1.234375 -2.3125 1.234375q-1.0 0 -1.828125 -0.546875q-0.828125 -0.546875 -1.296875 -1.53125q-0.453125 -0.984375 -0.453125 -2.25q0 -1.25 0.40625 -2.25q0.421875 -1.015625 1.25 -1.546875q0.828125 -0.546875 1.859375 -0.546875q0.75 0 1.328125 0.3125q0.59375 0.3125 0.953125 0.828125l0 -4.109375l1.40625 0l0 11.453125l-1.3125 0zm-4.4375 -4.140625q0 1.59375 0.671875 2.390625q0.671875 0.78125 1.578125 0.78125q0.921875 0 1.5625 -0.75q0.65625 -0.765625 0.65625 -2.3125q0 -1.703125 -0.65625 -2.5q-0.65625 -0.796875 -1.625 -0.796875q-0.9375 0 -1.5625 0.765625q-0.625 0.765625 -0.625 2.421875zm12.109375 -5.8125l0 -1.359375l7.40625 0l0 1.09375q-1.09375 1.171875 -2.171875 3.109375q-1.0625 1.921875 -1.65625 3.953125q-0.421875 1.4375 -0.53125 3.15625l-1.453125 0q0.03125 -1.359375 0.53125 -3.265625q0.515625 -1.921875 1.453125 -3.6875q0.953125 -1.78125 2.03125 -3.0l-5.609375 0z" fill-rule="nonzero"/><path fill="#efefef" d="m513.4669 296.54697l806.3307 0l0 28.787415l-806.3307 0z" fill-rule="evenodd"/><path stroke="#000000" stroke-width="1.0" stroke-linejoin="round" stroke-linecap="butt" d="m513.4669 296.54697l806.3307 0l0 28.787415l-806.3307 0z" fill-rule="evenodd"/><path fill="#cfe2f3" d="m513.4659 94.9462l115.212585 0l0 28.7874l-115.212585 0z" fill-rule="evenodd"/><path stroke="#000000" stroke-width="1.0" stroke-linejoin="round" stroke-linecap="butt" d="m513.4659 94.9462l115.212585 0l0 28.7874l-115.212585 0z" fill-rule="evenodd"/><path fill="#ea9999" d="m561.46545 109.468506l0 0c0 -5.3054123 4.3009033 -9.6063 9.606323 -9.6063l0 0c2.5477295 0 4.99115 1.012085 6.7926636 2.8136215c1.8015137 1.8015289 2.8135986 4.2449265 2.8135986 6.792679l0 0c0 5.3054123 -4.3008423 9.6063 -9.606262 9.6063l0 0c-5.30542 0 -9.606323 -4.300888 -9.606323 -9.6063z" fill-rule="evenodd"/><path stroke="#000000" stroke-width="1.0" stroke-linejoin="round" stroke-linecap="butt" d="m561.46545 109.468506l0 0c0 -5.3054123 4.3009033 -9.6063 9.606323 -9.6063l0 0c2.5477295 0 4.99115 1.012085 6.7926636 2.8136215c1.8015137 1.8015289 2.8135986 4.2449265 2.8135986 6.792679l0 0c0 5.3054123 -4.3008423 9.6063 -9.606262 9.6063l0 0c-5.30542 0 -9.606323 -4.300888 -9.606323 -9.6063z" fill-rule="evenodd"/><path fill="#cfe2f3" d="m513.4659 123.74541l115.212585 0l0 28.7874l-115.212585 0z" fill-rule="evenodd"/><path stroke="#000000" stroke-width="1.0" stroke-linejoin="round" stroke-linecap="butt" d="m513.4659 123.74541l115.212585 0l0 28.7874l-115.212585 0z" fill-rule="evenodd"/><path fill="#c9daf8" d="m561.46545 138.26772l0 0c0 -5.3054047 4.3009033 -9.606293 9.606323 -9.606293l0 0c2.5477295 0 4.99115 1.012085 6.7926636 2.813614c1.8015137 1.8015289 2.8135986 4.244934 2.8135986 6.792679l0 0c0 5.30542 -4.3008423 9.606293 -9.606262 9.606293l0 0c-5.30542 0 -9.606323 -4.300873 -9.606323 -9.606293z" fill-rule="evenodd"/><path stroke="#000000" stroke-width="1.0" stroke-linejoin="round" stroke-linecap="butt" d="m561.46545 138.26772l0 0c0 -5.3054047 4.3009033 -9.606293 9.606323 -9.606293l0 0c2.5477295 0 4.99115 1.012085 6.7926636 2.813614c1.8015137 1.8015289 2.8135986 4.244934 2.8135986 6.792679l0 0c0 5.30542 -4.3008423 9.606293 -9.606262 9.606293l0 0c-5.30542 0 -9.606323 -4.300873 -9.606323 -9.606293z" fill-rule="evenodd"/><path fill="#cfe2f3" d="m513.4659 210.14699l115.212585 0l0 28.7874l-115.212585 0z" fill-rule="evenodd"/><path stroke="#000000" stroke-width="1.0" stroke-linejoin="round" stroke-linecap="butt" d="m513.4659 210.14699l115.212585 0l0 28.7874l-115.212585 0z" fill-rule="evenodd"/><path fill="#ea9999" d="m561.46545 224.6693l0 0c0 -5.30542 4.3009033 -9.606308 9.606323 -9.606308l0 0c2.5477295 0 4.99115 1.0121002 6.7926636 2.8136292c1.8015137 1.8015289 2.8135986 4.244919 2.8135986 6.792679l0 0c0 5.3054047 -4.3008423 9.606293 -9.606262 9.606293l0 0c-5.30542 0 -9.606323 -4.300888 -9.606323 -9.606293z" fill-rule="evenodd"/><path stroke="#000000" stroke-width="1.0" stroke-linejoin="round" stroke-linecap="butt" d="m561.46545 224.6693l0 0c0 -5.30542 4.3009033 -9.606308 9.606323 -9.606308l0 0c2.5477295 0 4.99115 1.0121002 6.7926636 2.8136292c1.8015137 1.8015289 2.8135986 4.244919 2.8135986 6.792679l0 0c0 5.3054047 -4.3008423 9.606293 -9.606262 9.606293l0 0c-5.30542 0 -9.606323 -4.300888 -9.606323 -9.606293z" fill-rule="evenodd"/><path fill="#cfe2f3" d="m513.4659 238.9462l115.212585 0l0 28.787384l-115.212585 0z" fill-rule="evenodd"/><path stroke="#000000" stroke-width="1.0" stroke-linejoin="round" stroke-linecap="butt" d="m513.4659 238.9462l115.212585 0l0 28.787384l-115.212585 0z" fill-rule="evenodd"/><path fill="#ea9999" d="m561.46545 253.4685l0 0c0 -5.30542 4.3009033 -9.606308 9.606323 -9.606308l0 0c2.5477295 0 4.99115 1.0121002 6.7926636 2.8136292c1.8015137 1.8015289 2.8135986 4.244934 2.8135986 6.792679l0 0c0 5.30542 -4.3008423 9.606293 -9.606262 9.606293l0 0c-5.30542 0 -9.606323 -4.300873 -9.606323 -9.606293z" fill-rule="evenodd"/><path stroke="#000000" stroke-width="1.0" stroke-linejoin="round" stroke-linecap="butt" d="m561.46545 253.4685l0 0c0 -5.30542 4.3009033 -9.606308 9.606323 -9.606308l0 0c2.5477295 0 4.99115 1.0121002 6.7926636 2.8136292c1.8015137 1.8015289 2.8135986 4.244934 2.8135986 6.792679l0 0c0 5.30542 -4.3008423 9.606293 -9.606262 9.606293l0 0c-5.30542 0 -9.606323 -4.300873 -9.606323 -9.606293z" fill-rule="evenodd"/><path fill="#cfe2f3" d="m513.4659 267.7467l115.212585 0l0 28.787415l-115.212585 0z" fill-rule="evenodd"/><path stroke="#000000" stroke-width="1.0" stroke-linejoin="round" stroke-linecap="butt" d="m513.4659 267.7467l115.212585 0l0 28.787415l-115.212585 0z" fill-rule="evenodd"/><path fill="#c9daf8" d="m561.46545 282.26904l0 0c0 -5.30542 4.3009033 -9.606323 9.606323 -9.606323l0 0c2.5477295 0 4.99115 1.012085 6.7926636 2.8136292c1.8015137 1.8015442 2.8135986 4.244934 2.8135986 6.792694l0 0c0 5.3053894 -4.3008423 9.606293 -9.606262 9.606293l0 0c-5.30542 0 -9.606323 -4.3009033 -9.606323 -9.606293z" fill-rule="evenodd"/><path stroke="#000000" stroke-width="1.0" stroke-linejoin="round" stroke-linecap="butt" d="m561.46545 282.26904l0 0c0 -5.30542 4.3009033 -9.606323 9.606323 -9.606323l0 0c2.5477295 0 4.99115 1.012085 6.7926636 2.8136292c1.8015137 1.8015442 2.8135986 4.244934 2.8135986 6.792694l0 0c0 5.3053894 -4.3008423 9.606293 -9.606262 9.606293l0 0c-5.30542 0 -9.606323 -4.3009033 -9.606323 -9.606293z" fill-rule="evenodd"/><path fill="#cfe2f3" d="m513.4659 296.54724l115.212585 0l0 28.787415l-115.212585 0z" fill-rule="evenodd"/><path stroke="#000000" stroke-width="1.0" stroke-linejoin="round" stroke-linecap="butt" d="m513.4659 296.54724l115.212585 0l0 28.787415l-115.212585 0z" fill-rule="evenodd"/><path fill="#c9daf8" d="m561.46545 311.06955l0 0c0 -5.30542 4.3009033 -9.606293 9.606323 -9.606293l0 0c2.5477295 0 4.99115 1.012085 6.7926636 2.8136292c1.8015137 1.8015137 2.8135986 4.244934 2.8135986 6.7926636l0 0c0 5.30542 -4.3008423 9.606293 -9.606262 9.606293l0 0c-5.30542 0 -9.606323 -4.300873 -9.606323 -9.606293z" fill-rule="evenodd"/><path stroke="#000000" stroke-width="1.0" stroke-linejoin="round" stroke-linecap="butt" d="m561.46545 311.06955l0 0c0 -5.30542 4.3009033 -9.606293 9.606323 -9.606293l0 0c2.5477295 0 4.99115 1.012085 6.7926636 2.8136292c1.8015137 1.8015137 2.8135986 4.244934 2.8135986 6.7926636l0 0c0 5.30542 -4.3008423 9.606293 -9.606262 9.606293l0 0c-5.30542 0 -9.606323 -4.300873 -9.606323 -9.606293z" fill-rule="evenodd"/><path fill="#ea9999" d="m686.2669 210.1483l115.21265 0l0 28.7874l-115.21265 0z" fill-rule="evenodd"/><path stroke="#000000" stroke-width="1.0" stroke-linejoin="round" stroke-linecap="butt" d="m686.2669 210.1483l115.21265 0l0 28.7874l-115.21265 0z" fill-rule="evenodd"/><path fill="#ea9999" d="m686.2669 239.20604l115.21265 0l0 28.7874l-115.21265 0z" fill-rule="evenodd"/><path stroke="#000000" stroke-width="1.0" stroke-linejoin="round" stroke-linecap="butt" d="m686.2669 239.20604l115.21265 0l0 28.7874l-115.21265 0z" fill-rule="evenodd"/><path fill="#ea9999" d="m686.2669 268.00656l115.21265 0l0 28.787415l-115.21265 0z" fill-rule="evenodd"/><path stroke="#000000" stroke-width="1.0" stroke-linejoin="round" stroke-linecap="butt" d="m686.2669 268.00656l115.21265 0l0 28.787415l-115.21265 0z" fill-rule="evenodd"/><path fill="#ea9999" d="m686.2669 296.8058l115.21265 0l0 28.787384l-115.21265 0z" fill-rule="evenodd"/><path stroke="#000000" stroke-width="1.0" stroke-linejoin="round" stroke-linecap="butt" d="m686.2669 296.8058l115.21265 0l0 28.787384l-115.21265 0z" fill-rule="evenodd"/><path fill="#cfe2f3" d="m686.2664 37.34698l115.212585 0l0 28.787403l-115.212585 0z" fill-rule="evenodd"/><path stroke="#000000" stroke-width="1.0" stroke-linejoin="round" stroke-linecap="butt" d="m686.2664 37.34698l115.212585 0l0 28.787403l-115.212585 0z" fill-rule="evenodd"/><path fill="#cfe2f3" d="m686.2664 66.404724l115.212585 0l0 28.7874l-115.212585 0z" fill-rule="evenodd"/><path stroke="#000000" stroke-width="1.0" stroke-linejoin="round" stroke-linecap="butt" d="m686.2664 66.404724l115.212585 0l0 28.7874l-115.212585 0z" fill-rule="evenodd"/><path fill="#cfe2f3" d="m686.2664 95.205246l115.212585 0l0 28.787407l-115.212585 0z" fill-rule="evenodd"/><path stroke="#000000" stroke-width="1.0" stroke-linejoin="round" stroke-linecap="butt" d="m686.2664 95.205246l115.212585 0l0 28.787407l-115.212585 0z" fill-rule="evenodd"/><path fill="#cfe2f3" d="m686.2664 124.00446l115.212585 0l0 28.787407l-115.212585 0z" fill-rule="evenodd"/><path stroke="#000000" stroke-width="1.0" stroke-linejoin="round" stroke-linecap="butt" d="m686.2664 124.00446l115.212585 0l0 28.787407l-115.212585 0z" fill-rule="evenodd"/><path fill="#d9d9d9" d="m733.6247 133.82399l5.029297 -4.8695526l5.218689 5.389923l5.21875 -5.389923l5.029297 4.8695526l-5.3759155 5.5522766l5.3759155 5.552292l-5.029297 4.8695526l-5.21875 -5.3899384l-5.218689 5.3899384l-5.029297 -4.8695526l5.3759155 -5.552292z" fill-rule="evenodd"/><path stroke="#000000" stroke-width="1.0" stroke-linejoin="round" stroke-linecap="butt" d="m733.6247 133.82399l5.029297 -4.8695526l5.218689 5.389923l5.21875 -5.389923l5.029297 4.8695526l-5.3759155 5.5522766l5.3759155 5.552292l-5.029297 4.8695526l-5.21875 -5.3899384l-5.218689 5.3899384l-5.029297 -4.8695526l5.3759155 -5.552292z" fill-rule="evenodd"/><path fill="#d9ead3" d="m628.6706 37.62859l57.606323 0l0 287.71652l-57.606323 0z" fill-rule="evenodd"/><path stroke="#000000" stroke-width="1.0" stroke-linejoin="round" stroke-linecap="butt" d="m628.6706 37.62859l57.606323 0l0 287.71652l-57.606323 0z" fill-rule="evenodd"/><path fill="#d9d9d9" d="m733.6247 278.08383l5.029297 -4.8695374l5.218689 5.389923l5.21875 -5.389923l5.029297 4.8695374l-5.3759155 5.5522766l5.3759155 5.552307l-5.029297 4.8695374l-5.21875 -5.389923l-5.218689 5.389923l-5.029297 -4.8695374l5.3759155 -5.552307z" fill-rule="evenodd"/><path stroke="#000000" stroke-width="1.0" stroke-linejoin="round" stroke-linecap="butt" d="m733.6247 278.08383l5.029297 -4.8695374l5.218689 5.389923l5.21875 -5.389923l5.029297 4.8695374l-5.3759155 5.5522766l5.3759155 5.552307l-5.029297 4.8695374l-5.21875 -5.389923l-5.218689 5.389923l-5.029297 -4.8695374l5.3759155 -5.552307z" fill-rule="evenodd"/><path fill="#ea9999" d="m734.266 224.53937l0 0c0 -5.3054047 4.3009033 -9.606293 9.606262 -9.606293l0 0c2.5477905 0 4.99115 1.012085 6.7927246 2.813614c1.8015137 1.8015289 2.8135986 4.244934 2.8135986 6.792679l0 0c0 5.30542 -4.3009033 9.606308 -9.606323 9.606308l0 0c-5.305359 0 -9.606262 -4.300888 -9.606262 -9.606308z" fill-rule="evenodd"/><path stroke="#000000" stroke-width="1.0" stroke-linejoin="round" stroke-linecap="butt" d="m734.266 224.53937l0 0c0 -5.3054047 4.3009033 -9.606293 9.606262 -9.606293l0 0c2.5477905 0 4.99115 1.012085 6.7927246 2.813614c1.8015137 1.8015289 2.8135986 4.244934 2.8135986 6.792679l0 0c0 5.30542 -4.3009033 9.606308 -9.606323 9.606308l0 0c-5.305359 0 -9.606262 -4.300888 -9.606262 -9.606308z" fill-rule="evenodd"/><path fill="#cfe2f3" d="m734.266 109.597115l0 0c0 -5.3054123 4.3009033 -9.6063 9.606262 -9.6063l0 0c2.5477905 0 4.99115 1.012085 6.7927246 2.8136215c1.8015137 1.8015289 2.8135986 4.2449265 2.8135986 6.792679l0 0c0 5.3054123 -4.3009033 9.6063 -9.606323 9.6063l0 0c-5.305359 0 -9.606262 -4.300888 -9.606262 -9.6063z" fill-rule="evenodd"/><path stroke="#000000" stroke-width="1.0" stroke-linejoin="round" stroke-linecap="butt" d="m734.266 109.597115l0 0c0 -5.3054123 4.3009033 -9.6063 9.606262 -9.6063l0 0c2.5477905 0 4.99115 1.012085 6.7927246 2.8136215c1.8015137 1.8015289 2.8135986 4.2449265 2.8135986 6.792679l0 0c0 5.3054123 -4.3009033 9.6063 -9.606323 9.6063l0 0c-5.305359 0 -9.606262 -4.300888 -9.606262 -9.6063z" fill-rule="evenodd"/><path fill="#cfe2f3" d="m734.266 253.59973l0 0c0 -5.3054047 4.3009033 -9.606293 9.606262 -9.606293l0 0c2.5477905 0 4.99115 1.012085 6.7927246 2.813614c1.8015137 1.8015289 2.8135986 4.244934 2.8135986 6.792679l0 0c0 5.30542 -4.3009033 9.606293 -9.606323 9.606293l0 0c-5.305359 0 -9.606262 -4.300873 -9.606262 -9.606293z" fill-rule="evenodd"/><path stroke="#000000" stroke-width="1.0" stroke-linejoin="round" stroke-linecap="butt" d="m734.266 253.59973l0 0c0 -5.3054047 4.3009033 -9.606293 9.606262 -9.606293l0 0c2.5477905 0 4.99115 1.012085 6.7927246 2.813614c1.8015137 1.8015289 2.8135986 4.244934 2.8135986 6.792679l0 0c0 5.30542 -4.3009033 9.606293 -9.606323 9.606293l0 0c-5.305359 0 -9.606262 -4.300873 -9.606262 -9.606293z" fill-rule="evenodd"/><path fill="#ea9999" d="m734.266 51.75328l0 0c0 -5.3054123 4.3009033 -9.6063 9.606262 -9.6063l0 0c2.5477905 0 4.99115 1.0120888 6.7927246 2.8136215c1.8015137 1.8015289 2.8135986 4.2449303 2.8135986 6.792679l0 0c0 5.3054123 -4.3009033 9.6063 -9.606323 9.6063l0 0c-5.305359 0 -9.606262 -4.300888 -9.606262 -9.6063z" fill-rule="evenodd"/><path stroke="#000000" stroke-width="1.0" stroke-linejoin="round" stroke-linecap="butt" d="m734.266 51.75328l0 0c0 -5.3054123 4.3009033 -9.6063 9.606262 -9.6063l0 0c2.5477905 0 4.99115 1.0120888 6.7927246 2.8136215c1.8015137 1.8015289 2.8135986 4.2449303 2.8135986 6.792679l0 0c0 5.3054123 -4.3009033 9.6063 -9.606323 9.6063l0 0c-5.305359 0 -9.606262 -4.300888 -9.606262 -9.6063z" fill-rule="evenodd"/><path fill="#ea9999" d="m734.266 80.66798l0 0c0 -5.3054123 4.3009033 -9.6063 9.606262 -9.6063l0 0c2.5477905 0 4.99115 1.0120926 6.7927246 2.8136215c1.8015137 1.8015289 2.8135986 4.244934 2.8135986 6.792679l0 0c0 5.3054123 -4.3009033 9.6063 -9.606323 9.6063l0 0c-5.305359 0 -9.606262 -4.300888 -9.606262 -9.6063z" fill-rule="evenodd"/><path stroke="#000000" stroke-width="1.0" stroke-linejoin="round" stroke-linecap="butt" d="m734.266 80.66798l0 0c0 -5.3054123 4.3009033 -9.6063 9.606262 -9.6063l0 0c2.5477905 0 4.99115 1.0120926 6.7927246 2.8136215c1.8015137 1.8015289 2.8135986 4.244934 2.8135986 6.792679l0 0c0 5.3054123 -4.3009033 9.6063 -9.606323 9.6063l0 0c-5.305359 0 -9.606262 -4.300888 -9.606262 -9.6063z" fill-rule="evenodd"/><path fill="#ea9999" d="m734.266 310.95328l0 0c0 -5.30542 4.3009033 -9.606293 9.606262 -9.606293l0 0c2.5477905 0 4.99115 1.012085 6.7927246 2.8136292c1.8015137 1.8015137 2.8135986 4.2449036 2.8135986 6.7926636l0 0c0 5.30542 -4.3009033 9.606293 -9.606323 9.606293l0 0c-5.305359 0 -9.606262 -4.300873 -9.606262 -9.606293z" fill-rule="evenodd"/><path stroke="#000000" stroke-width="1.0" stroke-linejoin="round" stroke-linecap="butt" d="m734.266 310.95328l0 0c0 -5.30542 4.3009033 -9.606293 9.606262 -9.606293l0 0c2.5477905 0 4.99115 1.012085 6.7927246 2.8136292c1.8015137 1.8015137 2.8135986 4.2449036 2.8135986 6.7926636l0 0c0 5.30542 -4.3009033 9.606293 -9.606323 9.606293l0 0c-5.305359 0 -9.606262 -4.300873 -9.606262 -9.606293z" fill-rule="evenodd"/><path fill="#cfe2f3" d="m859.06696 37.34698l115.212585 0l0 28.787403l-115.212585 0z" fill-rule="evenodd"/><path stroke="#000000" stroke-width="1.0" stroke-linejoin="round" stroke-linecap="butt" d="m859.06696 37.34698l115.212585 0l0 28.787403l-115.212585 0z" fill-rule="evenodd"/><path fill="#cfe2f3" d="m859.06696 66.146194l115.212585 0l0 28.7874l-115.212585 0z" fill-rule="evenodd"/><path stroke="#000000" stroke-width="1.0" stroke-linejoin="round" stroke-linecap="butt" d="m859.06696 66.146194l115.212585 0l0 28.7874l-115.212585 0z" fill-rule="evenodd"/><path fill="#ea9999" d="m859.06744 210.1483l115.212585 0l0 28.7874l-115.212585 0z" fill-rule="evenodd"/><path stroke="#000000" stroke-width="1.0" stroke-linejoin="round" stroke-linecap="butt" d="m859.06744 210.1483l115.212585 0l0 28.7874l-115.212585 0z" fill-rule="evenodd"/><path fill="#ea9999" d="m859.06744 239.20604l115.212585 0l0 28.7874l-115.212585 0z" fill-rule="evenodd"/><path stroke="#000000" stroke-width="1.0" stroke-linejoin="round" stroke-linecap="butt" d="m859.06744 239.20604l115.212585 0l0 28.7874l-115.212585 0z" fill-rule="evenodd"/><path fill="#ea9999" d="m859.06744 268.00656l115.212585 0l0 28.787415l-115.212585 0z" fill-rule="evenodd"/><path stroke="#000000" stroke-width="1.0" stroke-linejoin="round" stroke-linecap="butt" d="m859.06744 268.00656l115.212585 0l0 28.787415l-115.212585 0z" fill-rule="evenodd"/><path fill="#d9ead3" d="m974.26904 37.62859l57.606323 0l0 287.71652l-57.606323 0z" fill-rule="evenodd"/><path stroke="#000000" stroke-width="1.0" stroke-linejoin="round" stroke-linecap="butt" d="m974.26904 37.62859l57.606323 0l0 287.71652l-57.606323 0z" fill-rule="evenodd"/><path fill="#ea9999" d="m859.06744 296.8058l115.212585 0l0 28.787384l-115.212585 0z" fill-rule="evenodd"/><path stroke="#000000" stroke-width="1.0" stroke-linejoin="round" stroke-linecap="butt" d="m859.06744 296.8058l115.212585 0l0 28.787384l-115.212585 0z" fill-rule="evenodd"/><path fill="#cfe2f3" d="m907.0665 253.47113l0 0c0 -5.30542 4.3008423 -9.606308 9.606262 -9.606308l0 0c2.5477905 0 4.99115 1.0121002 6.7927246 2.8136292c1.8015137 1.8015289 2.8135986 4.244934 2.8135986 6.792679l0 0c0 5.30542 -4.3009033 9.606293 -9.606323 9.606293l0 0c-5.30542 0 -9.606262 -4.300873 -9.606262 -9.606293z" fill-rule="evenodd"/><path stroke="#000000" stroke-width="1.0" stroke-linejoin="round" stroke-linecap="butt" d="m907.0665 253.47113l0 0c0 -5.30542 4.3008423 -9.606308 9.606262 -9.606308l0 0c2.5477905 0 4.99115 1.0121002 6.7927246 2.8136292c1.8015137 1.8015289 2.8135986 4.244934 2.8135986 6.792679l0 0c0 5.30542 -4.3009033 9.606293 -9.606323 9.606293l0 0c-5.30542 0 -9.606262 -4.300873 -9.606262 -9.606293z" fill-rule="evenodd"/><path fill="#cfe2f3" d="m907.0665 80.66798l0 0c0 -5.3054123 4.3008423 -9.6063 9.606262 -9.6063l0 0c2.5477905 0 4.99115 1.0120926 6.7927246 2.8136215c1.8015137 1.8015289 2.8135986 4.244934 2.8135986 6.792679l0 0c0 5.3054123 -4.3009033 9.6063 -9.606323 9.6063l0 0c-5.30542 0 -9.606262 -4.300888 -9.606262 -9.6063z" fill-rule="evenodd"/><path stroke="#000000" stroke-width="1.0" stroke-linejoin="round" stroke-linecap="butt" d="m907.0665 80.66798l0 0c0 -5.3054123 4.3008423 -9.6063 9.606262 -9.6063l0 0c2.5477905 0 4.99115 1.0120926 6.7927246 2.8136215c1.8015137 1.8015289 2.8135986 4.244934 2.8135986 6.792679l0 0c0 5.3054123 -4.3009033 9.6063 -9.606323 9.6063l0 0c-5.30542 0 -9.606262 -4.300888 -9.606262 -9.6063z" fill-rule="evenodd"/><path fill="#ea9999" d="m907.0665 51.74147l0 0c0 -5.3054123 4.3008423 -9.6063 9.606262 -9.6063l0 0c2.5477905 0 4.99115 1.0120888 6.7927246 2.8136215c1.8015137 1.8015289 2.8135986 4.2449303 2.8135986 6.792679l0 0c0 5.3054123 -4.3009033 9.6063 -9.606323 9.6063l0 0c-5.30542 0 -9.606262 -4.300888 -9.606262 -9.6063z" fill-rule="evenodd"/><path stroke="#000000" stroke-width="1.0" stroke-linejoin="round" stroke-linecap="butt" d="m907.0665 51.74147l0 0c0 -5.3054123 4.3008423 -9.6063 9.606262 -9.6063l0 0c2.5477905 0 4.99115 1.0120888 6.7927246 2.8136215c1.8015137 1.8015289 2.8135986 4.2449303 2.8135986 6.792679l0 0c0 5.3054123 -4.3009033 9.6063 -9.606323 9.6063l0 0c-5.30542 0 -9.606262 -4.300888 -9.606262 -9.6063z" fill-rule="evenodd"/><path fill="#ea9999" d="m907.0665 282.6601l0 0c0 -5.3053894 4.3008423 -9.606293 9.606262 -9.606293l0 0c2.5477905 0 4.99115 1.012085 6.7927246 2.8136292c1.8015137 1.8015137 2.8135986 4.244934 2.8135986 6.7926636l0 0c0 5.30542 -4.3009033 9.606323 -9.606323 9.606323l0 0c-5.30542 0 -9.606262 -4.3009033 -9.606262 -9.606323z" fill-rule="evenodd"/><path stroke="#000000" stroke-width="1.0" stroke-linejoin="round" stroke-linecap="butt" d="m907.0665 282.6601l0 0c0 -5.3053894 4.3008423 -9.606293 9.606262 -9.606293l0 0c2.5477905 0 4.99115 1.012085 6.7927246 2.8136292c1.8015137 1.8015137 2.8135986 4.244934 2.8135986 6.7926636l0 0c0 5.30542 -4.3009033 9.606323 -9.606323 9.606323l0 0c-5.30542 0 -9.606262 -4.3009033 -9.606262 -9.606323z" fill-rule="evenodd"/><path fill="#d9d9d9" d="m906.42523 306.62714l5.029236 -4.8695374l5.21875 5.389923l5.21875 -5.389923l5.029297 4.8695374l-5.3759766 5.5522766l5.3759766 5.552307l-5.029297 4.8695374l-5.21875 -5.389923l-5.21875 5.389923l-5.029236 -4.8695374l5.3759155 -5.552307z" fill-rule="evenodd"/><path stroke="#000000" stroke-width="1.0" stroke-linejoin="round" stroke-linecap="butt" d="m906.42523 306.62714l5.029236 -4.8695374l5.21875 5.389923l5.21875 -5.389923l5.029297 4.8695374l-5.3759766 5.5522766l5.3759766 5.552307l-5.029297 4.8695374l-5.21875 -5.389923l-5.21875 5.389923l-5.029236 -4.8695374l5.3759155 -5.552307z" fill-rule="evenodd"/><path fill="#d9d9d9" d="m906.42523 220.34499l5.029236 -4.8695526l5.21875 5.3899384l5.21875 -5.3899384l5.029297 4.8695526l-5.3759766 5.552292l5.3759766 5.5522766l-5.029297 4.8695526l-5.21875 -5.3899384l-5.21875 5.3899384l-5.029236 -4.8695526l5.3759155 -5.5522766z" fill-rule="evenodd"/><path stroke="#000000" stroke-width="1.0" stroke-linejoin="round" stroke-linecap="butt" d="m906.42523 220.34499l5.029236 -4.8695526l5.21875 5.3899384l5.21875 -5.3899384l5.029297 4.8695526l-5.3759766 5.552292l5.3759766 5.5522766l-5.029297 4.8695526l-5.21875 -5.3899384l-5.21875 5.3899384l-5.029236 -4.8695526l5.3759155 -5.5522766z" fill-rule="evenodd"/><path fill="#ea9999" d="m1031.867 210.1483l115.212524 0l0 28.7874l-115.212524 0z" fill-rule="evenodd"/><path stroke="#000000" stroke-width="1.0" stroke-linejoin="round" stroke-linecap="butt" d="m1031.867 210.1483l115.212524 0l0 28.7874l-115.212524 0z" fill-rule="evenodd"/><path fill="#ea9999" d="m1031.867 238.94751l115.212524 0l0 28.787384l-115.212524 0z" fill-rule="evenodd"/><path stroke="#000000" stroke-width="1.0" stroke-linejoin="round" stroke-linecap="butt" d="m1031.867 238.94751l115.212524 0l0 28.787384l-115.212524 0z" fill-rule="evenodd"/><path fill="#cfe2f3" d="m1031.8674 37.34698l115.21265 0l0 28.787403l-115.21265 0z" fill-rule="evenodd"/><path stroke="#000000" stroke-width="1.0" stroke-linejoin="round" stroke-linecap="butt" d="m1031.8674 37.34698l115.21265 0l0 28.787403l-115.21265 0z" fill-rule="evenodd"/><path fill="#cfe2f3" d="m1031.8674 66.146194l115.21265 0l0 28.7874l-115.21265 0z" fill-rule="evenodd"/><path stroke="#000000" stroke-width="1.0" stroke-linejoin="round" stroke-linecap="butt" d="m1031.8674 66.146194l115.21265 0l0 28.7874l-115.21265 0z" fill-rule="evenodd"/><path fill="#d9ead3" d="m801.4698 37.61809l57.606323 0l0 287.71652l-57.606323 0z" fill-rule="evenodd"/><path stroke="#000000" stroke-width="1.0" stroke-linejoin="round" stroke-linecap="butt" d="m801.4698 37.61809l57.606323 0l0 287.71652l-57.606323 0z" fill-rule="evenodd"/><path fill="#d9d9d9" d="m1079.2257 47.135006l5.029297 -4.869541l5.21875 5.389927l5.21875 -5.389927l5.029297 4.869541l-5.3759766 5.552292l5.3759766 5.552288l-5.029297 4.869545l-5.21875 -5.389927l-5.21875 5.389927l-5.029297 -4.869545l5.3759766 -5.552288z" fill-rule="evenodd"/><path stroke="#000000" stroke-width="1.0" stroke-linejoin="round" stroke-linecap="butt" d="m1079.2257 47.135006l5.029297 -4.869541l5.21875 5.389927l5.21875 -5.389927l5.029297 4.869541l-5.3759766 5.552292l5.3759766 5.552288l-5.029297 4.869545l-5.21875 -5.389927l-5.21875 5.389927l-5.029297 -4.869545l5.3759766 -5.552288z" fill-rule="evenodd"/><path fill="#cfe2f3" d="m1079.8671 225.76378l0 0c0 -5.3054047 4.3009033 -9.606293 9.606323 -9.606293l0 0c2.5477295 0 4.991089 1.012085 6.7926025 2.813614c1.8015137 1.8015289 2.8135986 4.244934 2.8135986 6.792679l0 0c0 5.30542 -4.3009033 9.606293 -9.606201 9.606293l0 0c-5.30542 0 -9.606323 -4.300873 -9.606323 -9.606293z" fill-rule="evenodd"/><path stroke="#000000" stroke-width="1.0" stroke-linejoin="round" stroke-linecap="butt" d="m1079.8671 225.76378l0 0c0 -5.3054047 4.3009033 -9.606293 9.606323 -9.606293l0 0c2.5477295 0 4.991089 1.012085 6.7926025 2.813614c1.8015137 1.8015289 2.8135986 4.244934 2.8135986 6.792679l0 0c0 5.30542 -4.3009033 9.606293 -9.606201 9.606293l0 0c-5.30542 0 -9.606323 -4.300873 -9.606323 -9.606293z" fill-rule="evenodd"/><path fill="#ea9999" d="m1079.8671 253.3412l0 0c0 -5.3054047 4.3009033 -9.606293 9.606323 -9.606293l0 0c2.5477295 0 4.991089 1.012085 6.7926025 2.813614c1.8015137 1.8015289 2.8135986 4.244934 2.8135986 6.792679l0 0c0 5.3054047 -4.3009033 9.606308 -9.606201 9.606308l0 0c-5.30542 0 -9.606323 -4.3009033 -9.606323 -9.606308z" fill-rule="evenodd"/><path stroke="#000000" stroke-width="1.0" stroke-linejoin="round" stroke-linecap="butt" d="m1079.8671 253.3412l0 0c0 -5.3054047 4.3009033 -9.606293 9.606323 -9.606293l0 0c2.5477295 0 4.991089 1.012085 6.7926025 2.813614c1.8015137 1.8015289 2.8135986 4.244934 2.8135986 6.792679l0 0c0 5.3054047 -4.3009033 9.606308 -9.606201 9.606308l0 0c-5.30542 0 -9.606323 -4.3009033 -9.606323 -9.606308z" fill-rule="evenodd"/><path fill="#d9d9d9" d="m1079.2257 74.98802l5.029297 -4.8695374l5.21875 5.389923l5.21875 -5.389923l5.029297 4.8695374l-5.3759766 5.552292l5.3759766 5.552292l-5.029297 4.869545l-5.21875 -5.3899307l-5.21875 5.3899307l-5.029297 -4.869545l5.3759766 -5.552292z" fill-rule="evenodd"/><path stroke="#000000" stroke-width="1.0" stroke-linejoin="round" stroke-linecap="butt" d="m1079.2257 74.98802l5.029297 -4.8695374l5.21875 5.389923l5.21875 -5.389923l5.029297 4.8695374l-5.3759766 5.552292l5.3759766 5.552292l-5.029297 4.869545l-5.21875 -5.3899307l-5.21875 5.3899307l-5.029297 -4.869545l5.3759766 -5.552292z" fill-rule="evenodd"/><path fill="#ea9999" d="m1204.6669 210.14699l115.21265 0l0 28.7874l-115.21265 0z" fill-rule="evenodd"/><path stroke="#000000" stroke-width="1.0" stroke-linejoin="round" stroke-linecap="butt" d="m1204.6669 210.14699l115.21265 0l0 28.7874l-115.21265 0z" fill-rule="evenodd"/><path fill="#cfe2f3" d="m1204.6669 37.089237l115.21265 0l0 28.787403l-115.21265 0z" fill-rule="evenodd"/><path stroke="#000000" stroke-width="1.0" stroke-linejoin="round" stroke-linecap="butt" d="m1204.6669 37.089237l115.21265 0l0 28.787403l-115.21265 0z" fill-rule="evenodd"/><path fill="#d9d9d9" d="m1252.0262 47.135006l5.029297 -4.869541l5.21875 5.389927l5.21875 -5.389927l5.029297 4.869541l-5.3759766 5.552292l5.3759766 5.552288l-5.029297 4.869545l-5.21875 -5.389927l-5.21875 5.389927l-5.029297 -4.869545l5.3759766 -5.552288z" fill-rule="evenodd"/><path stroke="#000000" stroke-width="1.0" stroke-linejoin="round" stroke-linecap="butt" d="m1252.0262 47.135006l5.029297 -4.869541l5.21875 5.389927l5.21875 -5.389927l5.029297 4.869541l-5.3759766 5.552292l5.3759766 5.552288l-5.029297 4.869545l-5.21875 -5.389927l-5.21875 5.389927l-5.029297 -4.869545l5.3759766 -5.552288z" fill-rule="evenodd"/><path fill="#d9d9d9" d="m1252.0262 220.21243l5.029297 -4.8695374l5.21875 5.389923l5.21875 -5.389923l5.029297 4.8695374l-5.3759766 5.552292l5.3759766 5.552292l-5.029297 4.8695374l-5.21875 -5.389923l-5.21875 5.389923l-5.029297 -4.8695374l5.3759766 -5.552292z" fill-rule="evenodd"/><path stroke="#000000" stroke-width="1.0" stroke-linejoin="round" stroke-linecap="butt" d="m1252.0262 220.21243l5.029297 -4.8695374l5.21875 5.389923l5.21875 -5.389923l5.029297 4.8695374l-5.3759766 5.552292l5.3759766 5.552292l-5.029297 4.8695374l-5.21875 -5.389923l-5.21875 5.389923l-5.029297 -4.8695374l5.3759766 -5.552292z" fill-rule="evenodd"/><path fill="#000000" fill-opacity="0.0" d="m628.69214 51.47113l57.574768 173.07086" fill-rule="evenodd"/><path stroke="#000000" stroke-width="1.0" stroke-linejoin="round" stroke-linecap="butt" d="m628.69214 51.47113l55.680847 167.37762" fill-rule="evenodd"/><path fill="#000000" stroke="#000000" stroke-width="1.0" stroke-linecap="butt" d="m682.8057 219.37013l2.9997559 3.7846985l0.13476562 -4.8274536z" fill-rule="evenodd"/><path fill="#000000" fill-opacity="0.0" d="m628.69214 109.34777l57.574768 144.25195" fill-rule="evenodd"/><path stroke="#000000" stroke-width="1.0" stroke-linejoin="round" stroke-linecap="butt" d="m628.69214 109.34777l55.350647 138.67944" fill-rule="evenodd"/><path fill="#000000" stroke="#000000" stroke-width="1.0" stroke-linecap="butt" d="m682.5087 248.63948l3.2163086 3.6025085l-0.14819336 -4.827072z" fill-rule="evenodd"/><path fill="#000000" fill-opacity="0.0" d="m628.67847 224.54068l57.57483 57.858276" fill-rule="evenodd"/><path stroke="#000000" stroke-width="1.0" stroke-linejoin="round" stroke-linecap="butt" d="m628.67847 224.54068l53.34259 53.605225" fill-rule="evenodd"/><path fill="#000000" stroke="#000000" stroke-width="1.0" stroke-linecap="butt" d="m680.8503 279.31097l4.371826 2.0517273l-2.0302124 -4.3818665z" fill-rule="evenodd"/><path fill="#000000" fill-opacity="0.0" d="m628.67847 253.33989l57.57483 57.85826" fill-rule="evenodd"/><path stroke="#000000" stroke-width="1.0" stroke-linejoin="round" stroke-linecap="butt" d="m628.67847 253.33989l53.34259 53.60521" fill-rule="evenodd"/><path fill="#000000" stroke="#000000" stroke-width="1.0" stroke-linecap="butt" d="m680.8503 308.1102l4.371826 2.0516968l-2.0302124 -4.3818665z" fill-rule="evenodd"/><path fill="#000000" fill-opacity="0.0" d="m628.67847 80.53937l57.57483 -28.7874" fill-rule="evenodd"/><path stroke="#000000" stroke-width="1.0" stroke-linejoin="round" stroke-linecap="butt" d="m628.67847 80.53937l52.208252 -26.104118" fill-rule="evenodd"/><path fill="#000000" stroke="#000000" stroke-width="1.0" stroke-linecap="butt" d="m681.62537 55.912605l3.3203735 -3.506855l-4.7977295 0.5521469z" fill-rule="evenodd"/><path fill="#d9ead3" d="m1147.0709 37.62859l57.6062 0l0 287.71652l-57.6062 0z" fill-rule="evenodd"/><path stroke="#000000" stroke-width="1.0" stroke-linejoin="round" stroke-linecap="butt" d="m1147.0709 37.62859l57.6062 0l0 287.71652l-57.6062 0z" fill-rule="evenodd"/><path fill="#000000" fill-opacity="0.0" d="m628.67847 138.13911l57.57483 -57.35434" fill-rule="evenodd"/><path stroke="#000000" stroke-width="1.0" stroke-linejoin="round" stroke-linecap="butt" d="m628.67847 138.13911l53.324036 -53.119843" fill-rule="evenodd"/><path fill="#000000" stroke="#000000" stroke-width="1.0" stroke-linecap="butt" d="m683.1682 86.18946l2.0493774 -4.3729477l-4.3807983 2.03257z" fill-rule="evenodd"/><path fill="#000000" fill-opacity="0.0" d="m628.67847 282.1404l57.57483 -172.53543" fill-rule="evenodd"/><path stroke="#000000" stroke-width="1.0" stroke-linejoin="round" stroke-linecap="butt" d="m628.67847 282.1404l55.6756 -166.84395" fill-rule="evenodd"/><path fill="#000000" stroke="#000000" stroke-width="1.0" stroke-linecap="butt" d="m685.92084 115.8193l-0.13031006 -4.8275833l-3.003296 3.7819061z" fill-rule="evenodd"/><path fill="#000000" fill-opacity="0.0" d="m628.67847 310.94095l57.57483 -172.53543" fill-rule="evenodd"/><path stroke="#000000" stroke-width="1.0" stroke-linejoin="round" stroke-linecap="butt" d="m628.67847 310.94095l55.6756 -166.84396" fill-rule="evenodd"/><path fill="#000000" stroke="#000000" stroke-width="1.0" stroke-linecap="butt" d="m685.92084 144.61983l-0.13031006 -4.827591l-3.003296 3.7819061z" fill-rule="evenodd"/><path fill="#000000" fill-opacity="0.0" d="m801.479 51.74068l57.57483 172.78741" fill-rule="evenodd"/><path stroke="#000000" stroke-width="1.0" stroke-linejoin="round" stroke-linecap="butt" d="m801.479 51.74068l55.67804 167.09512" fill-rule="evenodd"/><path fill="#000000" stroke="#000000" stroke-width="1.0" stroke-linecap="butt" d="m855.59 219.35794l3.001648 3.7832184l0.13238525 -4.82753z" fill-rule="evenodd"/><path fill="#000000" fill-opacity="0.0" d="m801.4927 80.81233l57.574768 172.7874" fill-rule="evenodd"/><path stroke="#000000" stroke-width="1.0" stroke-linejoin="round" stroke-linecap="butt" d="m801.4926 80.81233l55.6781 167.09511" fill-rule="evenodd"/><path fill="#000000" stroke="#000000" stroke-width="1.0" stroke-linecap="butt" d="m855.60364 248.42958l3.001648 3.7832184l0.13244629 -4.8275146z" fill-rule="evenodd"/><path fill="#000000" fill-opacity="0.0" d="m801.479 109.59895l57.57483 -57.858273" fill-rule="evenodd"/><path stroke="#000000" stroke-width="1.0" stroke-linejoin="round" stroke-linecap="butt" d="m801.479 109.598946l53.34259 -53.60522" fill-rule="evenodd"/><path fill="#000000" stroke="#000000" stroke-width="1.0" stroke-linecap="butt" d="m855.99243 57.158806l2.0302124 -4.3818703l-4.371887 2.051712z" fill-rule="evenodd"/><path fill="#000000" fill-opacity="0.0" d="m801.47955 253.59973l57.574768 -173.07086" fill-rule="evenodd"/><path stroke="#000000" stroke-width="1.0" stroke-linejoin="round" stroke-linecap="butt" d="m801.4795 253.59973l55.680847 -167.37762" fill-rule="evenodd"/><path fill="#000000" stroke="#000000" stroke-width="1.0" stroke-linecap="butt" d="m858.72766 86.74349l-0.13482666 -4.8274612l-2.9997559 3.7846985z" fill-rule="evenodd"/><path fill="#000000" fill-opacity="0.0" d="m801.4927 224.54199l57.574768 57.858276" fill-rule="evenodd"/><path stroke="#000000" stroke-width="1.0" stroke-linejoin="round" stroke-linecap="butt" d="m801.4926 224.54199l53.34259 53.605225" fill-rule="evenodd"/><path fill="#000000" stroke="#000000" stroke-width="1.0" stroke-linecap="butt" d="m853.66437 279.3123l4.371887 2.0517273l-2.0302124 -4.3818665z" fill-rule="evenodd"/><path fill="#000000" fill-opacity="0.0" d="m801.4927 311.19946l57.574768 0" fill-rule="evenodd"/><path stroke="#000000" stroke-width="1.0" stroke-linejoin="round" stroke-linecap="butt" d="m801.4926 311.19946l51.57483 0" fill-rule="evenodd"/><path fill="#000000" stroke="#000000" stroke-width="1.0" stroke-linecap="butt" d="m853.06744 312.8512l4.538086 -1.6517334l-4.538086 -1.6517334z" fill-rule="evenodd"/><path fill="#000000" fill-opacity="0.0" d="m974.28 282.40027l57.57483 -29.070877" fill-rule="evenodd"/><path stroke="#000000" stroke-width="1.0" stroke-linejoin="round" stroke-linecap="butt" d="m974.28 282.40027l52.218872 -26.366516" fill-rule="evenodd"/><path fill="#000000" stroke="#000000" stroke-width="1.0" stroke-linecap="butt" d="m1027.2433 257.50818l3.3065186 -3.519867l-4.79541 0.57099915z" fill-rule="evenodd"/><path fill="#000000" fill-opacity="0.0" d="m974.27954 51.74068l57.57483 172.78741" fill-rule="evenodd"/><path stroke="#000000" stroke-width="1.0" stroke-linejoin="round" stroke-linecap="butt" d="m974.27954 51.74068l55.6781 167.09512" fill-rule="evenodd"/><path fill="#000000" stroke="#000000" stroke-width="1.0" stroke-linecap="butt" d="m1028.3905 219.35794l3.001709 3.7832184l0.13244629 -4.82753z" fill-rule="evenodd"/><path fill="#000000" fill-opacity="0.0" d="m974.28 253.59973l57.57483 -173.07086" fill-rule="evenodd"/><path stroke="#000000" stroke-width="1.0" stroke-linejoin="round" stroke-linecap="butt" d="m974.28 253.59973l55.680786 -167.37762" fill-rule="evenodd"/><path fill="#000000" stroke="#000000" stroke-width="1.0" stroke-linecap="butt" d="m1031.5282 86.74349l-0.1348877 -4.8274612l-2.9997559 3.7846985z" fill-rule="evenodd"/><path fill="#000000" fill-opacity="0.0" d="m974.27954 80.539894l57.57483 -28.7874" fill-rule="evenodd"/><path stroke="#000000" stroke-width="1.0" stroke-linejoin="round" stroke-linecap="butt" d="m974.27954 80.539894l52.208252 -26.104122" fill-rule="evenodd"/><path fill="#000000" stroke="#000000" stroke-width="1.0" stroke-linecap="butt" d="m1027.2264 55.913128l3.3203125 -3.506855l-4.7976074 0.5521469z" fill-rule="evenodd"/><path fill="#000000" fill-opacity="0.0" d="m1147.0795 224.54199l57.57483 -173.07086" fill-rule="evenodd"/><path stroke="#000000" stroke-width="1.0" stroke-linejoin="round" stroke-linecap="butt" d="m1147.0796 224.54199l55.680786 -167.37762" fill-rule="evenodd"/><path fill="#000000" stroke="#000000" stroke-width="1.0" stroke-linecap="butt" d="m1204.3278 57.68575l-0.1348877 -4.8274612l-2.9997559 3.7846985z" fill-rule="evenodd"/><path fill="#000000" fill-opacity="0.0" d="m1147.0795 253.3412l57.57483 -28.7874" fill-rule="evenodd"/><path stroke="#000000" stroke-width="1.0" stroke-linejoin="round" stroke-linecap="butt" d="m1147.0796 253.3412l52.208252 -26.104126" fill-rule="evenodd"/><path fill="#000000" stroke="#000000" stroke-width="1.0" stroke-linecap="butt" d="m1200.0265 228.71445l3.3203125 -3.5068512l-4.7977295 0.5521393z" fill-rule="evenodd"/></g></svg>